STARTFONT 2.1
COMMENT
COMMENT Converted from OpenType font "MFMiMeng_Noncommercial-Regular.ttf" by "otf2bdf 3.0".
COMMENT
FONT -FreeType-MF MiMeng(Noncommercial)-Medium-R-Normal--50-360-100-100-P-373-ISO10646-1
SIZE 36 100 100
FONTBOUNDINGBOX 45 63 0 -16
STARTPROPERTIES 19
FOUNDRY "FreeType"
FAMILY_NAME "MF MiMeng(Noncommercial)"
WEIGHT_NAME "Medium"
SLANT "R"
SETWIDTH_NAME "Normal"
ADD_STYLE_NAME ""
PIXEL_SIZE 50
POINT_SIZE 360
RESOLUTION_X 100
RESOLUTION_Y 100
SPACING "P"
AVERAGE_WIDTH 373
CHARSET_REGISTRY "ISO10646"
CHARSET_ENCODING "1"
FONT_ASCENT 44
FONT_DESCENT 6
COPYRIGHT "© 2018 SN. All rights reserved."
_OTF_FONTFILE "MFMiMeng_Noncommercial-Regular.ttf"
_OTF_PSNAME "MF MiMeng(Noncommercial)-Regular"
ENDPROPERTIES
CHARS 7226
STARTCHAR 0020
ENCODING 32
SWIDTH 260 0
DWIDTH 13 0
BBX 0 0 0 0
BITMAP
ENDCHAR
STARTCHAR 0021
ENCODING 33
SWIDTH 140 0
DWIDTH 7 0
BBX 3 44 2 -2
BITMAP
C0
E0
E0
E0
E0
E0
E0
E0
E0
E0
E0
E0
E0
E0
E0
E0
E0
E0
E0
E0
E0
E0
E0
E0
E0
E0
E0
E0
E0
E0
E0
E0
C0
00
00
00
00
00
00
C0
E0
E0
C0
40
ENDCHAR
STARTCHAR 0022
ENCODING 34
SWIDTH 260 0
DWIDTH 13 0
BBX 10 6 2 37
BITMAP
71C0
71C0
E380
E380
C300
8200
ENDCHAR
STARTCHAR 0023
ENCODING 35
SWIDTH 700 0
DWIDTH 35 0
BBX 33 42 1 -2
BITMAP
000000E000
000700E000
000700E000
000600C000
000600C000
000E01C000
000E01C000
000E01C000
000C018000
001C038000
001C038000
3C1C038000
3FFF038000
3FFFFFC000
003FFFFF00
00381FFF80
0030070700
0030060000
0070060000
00700E0000
00700E0000
00600E0000
00E00C0000
00E01C0000
00E01C0000
00C01C0000
7FFFFFFE00
FFFFFFFE00
FFFFFFFC00
0180380000
0380380000
0380380000
0380300000
0380700000
0300700000
0700700000
0700700000
0700600000
0600E00000
0600E00000
0000E00000
0000C00000
ENDCHAR
STARTCHAR 0024
ENCODING 36
SWIDTH 540 0
DWIDTH 27 0
BBX 25 46 1 -3
BITMAP
000E0000
000E0000
000E0000
000E0000
000E0000
000E0000
00FF0000
07FFE000
0FFFF000
1F0E7C00
3C0E1C00
780E0E00
700E0600
700E0000
F00E0000
F00E0000
700E0000
700E0000
700E0000
780E0000
3E0E0000
1FFFC000
07FFF800
007FFC00
001C1E00
001C0700
001C0700
001C0380
001C0380
001C0380
001C0380
601C0380
701C0380
781C0700
3C1C0F00
1F1C1E00
0FDC7C00
03FFF800
00FFE000
003E0000
00300000
00300000
00300000
00300000
00300000
00100000
ENDCHAR
STARTCHAR 0025
ENCODING 37
SWIDTH 720 0
DWIDTH 36 0
BBX 34 45 1 -3
BITMAP
0000003000
0000007000
0000007000
000000E000
000000E000
000000C000
0F8001C000
1FE0018000
3FF0038000
7078030000
7038070000
E018070000
E01C0E0000
E01C0E0000
E01C1C0000
E0181C0000
7038180000
7870380000
3FF0300000
1FC0700000
0300600000
0000E00000
0000E00000
0001C00000
0001C00000
0003800000
0003800000
0003000000
0007000000
000600F800
000E01FE00
000C03FF00
001C070780
001C060380
00380E0180
00380E01C0
00700E01C0
00700E01C0
00600E0380
00E0070380
00C0078700
01C003FF00
018001FC00
0380003000
0300000000
ENDCHAR
STARTCHAR 0026
ENCODING 38
SWIDTH 680 0
DWIDTH 34 0
BBX 31 41 2 -1
BITMAP
007C0000
01FF0000
03FF8000
0783C000
0E00E000
0E00E000
1C007000
1C007000
1C007000
1C007000
1C007000
1C007000
1C00E000
0C00E000
0E01C000
0E078000
063F0000
07FE0000
07F00000
0FC00000
1FC00000
3DC00300
78E00380
70F00380
60780380
E0380380
E01C0300
C00E0700
C0070700
C003C700
E001E700
E000FE00
E0007E00
70003E00
70001F80
38003BE0
1C0079FC
1F81F07E
07FFE00E
01FF8000
003C0000
ENDCHAR
STARTCHAR 0027
ENCODING 39
SWIDTH 140 0
DWIDTH 7 0
BBX 4 6 2 36
BITMAP
70
70
E0
E0
C0
C0
ENDCHAR
STARTCHAR 0028
ENCODING 40
SWIDTH 200 0
DWIDTH 10 0
BBX 6 46 2 -4
BITMAP
0C
1C
1C
18
38
38
38
30
70
70
70
70
60
60
60
E0
E0
E0
E0
E0
E0
E0
E0
E0
E0
E0
E0
E0
E0
E0
E0
E0
60
60
70
70
70
70
30
38
38
38
18
1C
1C
0C
ENDCHAR
STARTCHAR 0029
ENCODING 41
SWIDTH 180 0
DWIDTH 9 0
BBX 6 46 2 -4
BITMAP
C0
C0
E0
E0
E0
70
70
70
70
30
38
38
38
38
38
18
18
18
1C
1C
1C
1C
1C
1C
1C
1C
1C
18
18
18
18
38
38
38
38
38
30
70
70
70
70
60
E0
E0
C0
C0
ENDCHAR
STARTCHAR 002A
ENCODING 42
SWIDTH 340 0
DWIDTH 17 0
BBX 15 16 1 28
BITMAP
0300
0380
0380
0380
0384
F39E
FFFE
3FF8
0FE0
07C0
0EE0
1EF0
3C78
3838
7018
2000
ENDCHAR
STARTCHAR 002B
ENCODING 43
SWIDTH 520 0
DWIDTH 26 0
BBX 26 31 0 4
BITMAP
000C0000
000E0000
000E0000
000E0000
000E0000
000E0000
000E0000
000E0000
000E0000
000E0000
000E0000
000E0000
000E0000
000E0000
FFFFFFC0
FFFFFFC0
7FFFFF80
000E0000
000E0000
000E0000
000E0000
000E0000
000E0000
000E0000
000E0000
000E0000
000E0000
000E0000
000E0000
000E0000
000C0000
ENDCHAR
STARTCHAR 002C
ENCODING 44
SWIDTH 200 0
DWIDTH 10 0
BBX 4 7 2 -8
BITMAP
20
70
70
E0
E0
C0
80
ENDCHAR
STARTCHAR 002D
ENCODING 45
SWIDTH 620 0
DWIDTH 31 0
BBX 26 3 2 18
BITMAP
FFFFFFC0
FFFFFFC0
7FFFFF80
ENDCHAR
STARTCHAR 002E
ENCODING 46
SWIDTH 80 0
DWIDTH 4 0
BBX 3 5 1 -5
BITMAP
C0
E0
E0
E0
40
ENDCHAR
STARTCHAR 002F
ENCODING 47
SWIDTH 400 0
DWIDTH 20 0
BBX 15 47 3 -4
BITMAP
0004
000E
000C
001C
001C
001C
0018
0038
0038
0030
0030
0070
0070
0060
00E0
00E0
00E0
00C0
01C0
01C0
0180
0380
0380
0380
0300
0700
0700
0600
0E00
0E00
0E00
0C00
1C00
1C00
1C00
1800
3800
3800
3000
7000
7000
7000
6000
E000
E000
C000
4000
ENDCHAR
STARTCHAR 0030
ENCODING 48
SWIDTH 540 0
DWIDTH 27 0
BBX 23 36 2 0
BITMAP
003C00
01FC00
03F800
078000
0F0300
0E0380
1C03C0
3801E0
3800F0
300070
700038
700018
60001C
60001C
E0000C
E0000C
E0000E
E0000E
E0000E
E0000E
E0000E
E0000E
E0000E
E0000E
E0000C
60000C
70001C
70001C
380038
380038
1C0070
1E00F0
0F83E0
07FFC0
01FF00
007800
ENDCHAR
STARTCHAR 0031
ENCODING 49
SWIDTH 360 0
DWIDTH 18 0
BBX 18 36 0 0
BITMAP
3FC000
3FE000
1FE000
00E000
00E000
00E000
00E000
00E000
00E000
00E000
00E000
00E000
00E000
00E000
00E000
00E000
00E000
00E000
00E000
00E000
00E000
00E000
00E000
00E000
00E000
00E000
00E000
00E000
00E000
00E000
004000
000000
000000
7FFF80
FFFFC0
FFFFC0
ENDCHAR
STARTCHAR 0032
ENCODING 50
SWIDTH 520 0
DWIDTH 26 0
BBX 23 36 2 0
BITMAP
00FC00
07FF00
0FFFC0
1E03C0
3C00E0
380070
700070
700030
600030
600038
E00038
600038
000038
000030
000070
000070
000070
0000E0
0001E0
0001C0
000380
000780
001F00
003C00
007800
00F000
03E000
078000
0F0000
1E0000
3C0000
380000
700000
FFFFFC
FFFFFE
FFFFFE
ENDCHAR
STARTCHAR 0033
ENCODING 51
SWIDTH 500 0
DWIDTH 25 0
BBX 23 37 1 0
BITMAP
01FF00
07FFC0
0F83E0
1E00F0
380078
380038
700018
60001C
60001C
00001C
00001C
000018
000038
000038
000070
0001F0
07FFC0
0FFF80
0FFFC0
0003F0
0000F8
000038
00001C
00001C
00000E
00000E
00000E
C0000E
E0000C
E0001C
70001C
780038
3C0078
1E00F0
0FFFE0
07FFC0
00FE00
ENDCHAR
STARTCHAR 0034
ENCODING 52
SWIDTH 540 0
DWIDTH 27 0
BBX 25 36 1 0
BITMAP
00018000
0201C000
0701C000
0601C000
0E01C000
0E01C000
0E01C000
0C01C000
1C01C000
1C01C000
1C01C000
1801C000
3801C000
3801C000
3001C000
7001C000
7001C000
7001C000
6001C000
E001C000
FFFFFF80
FFFFFF80
7FFFFF00
0001C000
0001C000
0001C000
0001C000
0001C000
0001C000
0001C000
0001C000
0001C000
0001C000
0001C000
0001C000
00018000
ENDCHAR
STARTCHAR 0035
ENCODING 53
SWIDTH 520 0
DWIDTH 26 0
BBX 22 38 2 -1
BITMAP
600000
700000
700000
700000
700FFC
71FFFC
73FFC0
710000
700000
700000
700000
700000
700000
700000
700000
71FE00
7FFF80
7FFFE0
7C01F0
700070
000038
000018
00001C
00001C
00001C
00001C
00001C
00001C
00001C
C0001C
E00038
E00038
700070
7800F0
3E01E0
1FFFC0
07FF80
01FC00
ENDCHAR
STARTCHAR 0036
ENCODING 54
SWIDTH 540 0
DWIDTH 27 0
BBX 23 36 2 0
BITMAP
007F00
03FFC0
07FFF0
0F00F8
1E0038
3C001C
38001C
78000C
700004
700000
F00000
E00000
E00000
E00000
E03F00
E0FFE0
E1FFF0
E3C078
E70038
E6001C
E0000C
E0000E
E0000E
E0000E
E0000E
E0000E
60000E
70000E
70001C
38001C
38003C
1C0078
1F00F0
0FFFE0
03FFC0
00FF00
ENDCHAR
STARTCHAR 0037
ENCODING 55
SWIDTH 460 0
DWIDTH 23 0
BBX 21 35 1 1
BITMAP
FFFFF8
FFFFF8
FFFFF8
000030
000070
000070
000060
0000E0
0000E0
0000C0
0001C0
0001C0
000180
000380
000380
000300
000700
000700
000600
000E00
000E00
000C00
001C00
001C00
001C00
003800
003800
003800
007000
007000
007000
00E000
00E000
00E000
004000
ENDCHAR
STARTCHAR 0038
ENCODING 56
SWIDTH 520 0
DWIDTH 26 0
BBX 22 37 2 -1
BITMAP
003800
03FF00
0FFFC0
1F03E0
3C00F0
380038
700038
700038
E00018
E00000
E00000
E00000
60003C
7001FC
380FF8
3C3F80
1FFC00
07FE00
07FF80
1F0FC0
1C01F0
380070
700038
70001C
E0001C
E0000C
E0000C
E0000C
E0001C
60001C
700038
780038
3C0070
1F01E0
0FFFC0
03FF80
00FC00
ENDCHAR
STARTCHAR 0039
ENCODING 57
SWIDTH 520 0
DWIDTH 26 0
BBX 22 36 2 0
BITMAP
00FC00
07FF00
0FFFC0
1E01E0
3C00F0
780070
700078
600038
E00038
E00038
E0001C
E0001C
E0001C
E0001C
E0001C
60001C
70019C
7803DC
3C079C
1FFF1C
0FFE1C
01F818
000018
000018
000018
000018
000038
000030
600030
E00070
700060
7800E0
3E03C0
1FFF80
07FF00
01F800
ENDCHAR
STARTCHAR 003A
ENCODING 58
SWIDTH 100 0
DWIDTH 5 0
BBX 3 24 1 3
BITMAP
C0
E0
E0
E0
40
00
00
00
00
00
00
00
00
00
00
00
00
00
00
C0
E0
E0
E0
40
ENDCHAR
STARTCHAR 003B
ENCODING 59
SWIDTH 200 0
DWIDTH 10 0
BBX 4 26 2 1
BITMAP
60
70
70
70
20
00
00
00
00
00
00
00
00
00
00
00
00
00
00
00
70
70
E0
E0
C0
C0
ENDCHAR
STARTCHAR 003C
ENCODING 60
SWIDTH 260 0
DWIDTH 13 0
BBX 11 23 0 9
BITMAP
0060
00E0
01E0
01C0
0380
0700
0E00
1C00
3800
3800
7000
E000
7000
3800
1C00
1C00
0E00
0700
0380
01C0
00E0
00E0
0060
ENDCHAR
STARTCHAR 003D
ENCODING 61
SWIDTH 680 0
DWIDTH 34 0
BBX 28 15 3 12
BITMAP
FFFFFFF0
FFFFFFF0
7FFFFFE0
00000000
00000000
00000000
00000000
00000000
00000000
00000000
00000000
00000000
7FFFFFE0
FFFFFFF0
FFFFFFF0
ENDCHAR
STARTCHAR 003E
ENCODING 62
SWIDTH 280 0
DWIDTH 14 0
BBX 11 23 2 9
BITMAP
C000
E000
7000
7800
3800
1C00
0E00
0700
0380
01C0
01C0
00E0
01C0
0380
0380
0700
0E00
1C00
3800
7000
F000
E000
C000
ENDCHAR
STARTCHAR 003F
ENCODING 63
SWIDTH 420 0
DWIDTH 21 0
BBX 20 43 1 -2
BITMAP
01F800
07FF00
1FFF80
3C03C0
3801E0
7000E0
E00060
E00070
E00070
C00070
C00070
C00060
8000E0
0000E0
0001C0
000380
000780
001E00
001C00
003800
007000
007000
00E000
00E000
00E000
00E000
00E000
00E000
00E000
00E000
00E000
004000
000000
000000
000000
000000
000000
000000
00C000
00E000
00E000
00C000
004000
ENDCHAR
STARTCHAR 0040
ENCODING 64
SWIDTH 900 0
DWIDTH 45 0
BBX 40 42 2 -2
BITMAP
0001FF8000
000FFFF000
003FFFFE00
00FC003F00
01F0000780
03C00003C0
07800000E0
0F00000070
0E00000038
1C00000038
380000301C
380060380C
3003FC380E
7007FE380E
700F0F3806
600E073806
E01C033807
E01C003807
E038003807
E038003807
E038003807
E038003807
E038003807
E038003807
E038003807
E038003807
601C00380E
701C03B80E
700E07381C
3007FF383C
3807FE38F8
3C01F81FF0
1C00001FC3
0E00000407
0F0000000E
078000001C
03C0000078
01F00001F0
007C000FE0
003FFFFF80
000FFFFE00
0000FFC000
ENDCHAR
STARTCHAR 0041
ENCODING 65
SWIDTH 600 0
DWIDTH 30 0
BBX 28 36 1 0
BITMAP
00070000
00070000
00070000
00038000
00038000
00318000
0039C000
0071C000
0070C000
0070E000
00E0E000
00E07000
00E07000
01C07000
01C03800
01C03800
03801800
03801C00
03001C00
07000C00
07000E00
060FCE00
0E7FC600
0E7F8700
0C000700
1C000380
1C000380
18000180
380001C0
380001C0
300000C0
700000E0
700000E0
60000060
E0000070
E0000070
ENDCHAR
STARTCHAR 0042
ENCODING 66
SWIDTH 600 0
DWIDTH 30 0
BBX 25 37 3 -1
BITMAP
C3FE0000
E7FFC000
E7FFE000
E603F800
E000F800
E0003C00
E0001C00
E0000E00
E0000E00
E0000E00
E0000E00
E0000E00
E0000E00
E0001C00
E0001C00
E0003800
E000F000
E1FFE000
E3FFE000
E3FFF800
E0007C00
E0001E00
E0000700
E0000700
E0000380
E0000380
E0000380
E0000380
E0000380
E0000380
E0000700
E0000F00
E0001E00
E0007C00
E7FFF800
E7FFE000
C0FF0000
ENDCHAR
STARTCHAR 0043
ENCODING 67
SWIDTH 640 0
DWIDTH 32 0
BBX 28 37 2 -1
BITMAP
000FE000
007FFC00
00FFFE00
03E00F80
078003C0
0F0001E0
0E0000E0
1C000060
3C000000
38000000
70000000
70000000
70000000
60000000
E0000000
E0000000
E0000000
E0000000
E0000000
E0000000
E0000000
E0000000
E0000000
E0000000
60000000
70000000
70000000
30000000
38000000
1C000060
1C0000F0
0E0001E0
078003C0
03E00F80
01FFFF00
007FFC00
001FE000
ENDCHAR
STARTCHAR 0044
ENCODING 68
SWIDTH 600 0
DWIDTH 30 0
BBX 27 35 2 0
BITMAP
C3FE0000
E7FFC000
E3FFF000
E000F800
E0003C00
E0000E00
E0000700
E0000380
E0000380
E0000180
E00001C0
E00001C0
E00000C0
E00000C0
E00000E0
E00000E0
E00000E0
E00000E0
E00000E0
E00000E0
E00000C0
E00000C0
E00001C0
E00001C0
E0000180
E0000380
E0000380
E0000700
E0000E00
E0001E00
E0003C00
E001F000
E33FE000
E7FF8000
C7F80000
ENDCHAR
STARTCHAR 0045
ENCODING 69
SWIDTH 500 0
DWIDTH 25 0
BBX 23 35 2 0
BITMAP
CFFFFE
EFFFFE
E7FFFC
E00000
E00000
E00000
E00000
E00000
E00000
E00000
E00000
E00000
E00000
E00000
E00000
E000FC
E3FFFC
E3FFFC
E3F000
E00000
E00000
E00000
E00000
E00000
E00000
E00000
E00000
E00000
E00000
E00000
E00000
E7FFFC
EFFFFE
EFFFFE
C00000
ENDCHAR
STARTCHAR 0046
ENCODING 70
SWIDTH 540 0
DWIDTH 27 0
BBX 25 35 2 0
BITMAP
C3FFFF80
E3FFFF80
E1FFFF00
E0000000
E0000000
E0000000
E0000000
E0000000
E0000000
E0000000
E0000000
E0000000
E0000000
E0000000
E0000000
E1FFF000
E1FFFE00
E00FFF00
E0000000
E0000000
E0000000
E0000000
E0000000
E0000000
E0000000
E0000000
E0000000
E0000000
E0000000
E0000000
E0000000
E0000000
E0000000
E0000000
C0000000
ENDCHAR
STARTCHAR 0047
ENCODING 71
SWIDTH 620 0
DWIDTH 31 0
BBX 27 38 2 -2
BITMAP
001FC000
00FFF800
01FFFE00
07C01F80
0F8003C0
0E0001E0
1C0000E0
38000000
38000000
70000000
70000000
70000000
E0000000
E0000000
E0000000
E0000000
E0000000
E0007C00
E001FF00
E003FF80
E00383C0
E00001E0
E00000E0
E00000E0
600000E0
700006E0
70000EE0
30000EE0
38000EE0
3C001CE0
1C001CE0
0E0038E0
078078E0
03FFF0E0
01FFE0E0
003F80E0
000000E0
00000060
ENDCHAR
STARTCHAR 0048
ENCODING 72
SWIDTH 560 0
DWIDTH 28 0
BBX 24 36 2 0
BITMAP
C00003
E00007
E00007
E00007
E00007
E00007
E00007
E00007
E00007
E00007
E00007
E00007
E00007
E00007
E00007
E3E007
E3FF87
E1FFC7
E007C7
E00007
E00007
E00007
E00007
E00007
E00007
E00007
E00007
E00007
E00007
E00007
E00007
E00007
E00007
E00007
E00007
C00003
ENDCHAR
STARTCHAR 0049
ENCODING 73
SWIDTH 460 0
DWIDTH 23 0
BBX 22 38 0 0
BITMAP
FFC000
FFFFC0
0FFFE0
0003C0
000000
006000
007000
007000
007000
007000
007000
007000
007000
007000
007000
007000
007000
007000
007000
007000
007000
007000
007000
007000
007000
007000
007000
007000
007000
007000
007000
006000
000000
000018
00FFFC
3FFFFC
3FFE00
100000
ENDCHAR
STARTCHAR 004A
ENCODING 74
SWIDTH 360 0
DWIDTH 18 0
BBX 16 36 0 0
BITMAP
0006
0007
0007
0007
0007
0007
0007
0007
0007
0007
0007
0007
0007
0007
0007
0007
0007
0007
0007
0007
0007
0007
0007
0007
0007
0007
C007
E007
E007
E006
E00E
700E
781C
3FF8
1FF0
07C0
ENDCHAR
STARTCHAR 004B
ENCODING 75
SWIDTH 540 0
DWIDTH 27 0
BBX 24 36 2 0
BITMAP
C00000
E00000
E00000
E00000
E00000
E00000
E00000
E00000
E00006
E0001E
E0007E
E001FC
E003F0
E00FC0
E01F00
E03C00
E02000
E00000
E00000
E00000
E00000
E01800
E01C00
E01E00
E00F00
E00780
E003C0
E001E0
E000F0
E00078
E0003C
E0001E
E0000F
E00007
E00000
C00000
ENDCHAR
STARTCHAR 004C
ENCODING 76
SWIDTH 480 0
DWIDTH 24 0
BBX 22 36 2 0
BITMAP
C00000
E00000
E00000
E00000
E00000
E00000
E00000
E00000
E00000
E00000
E00000
E00000
E00000
E00000
E00000
E00000
E00000
E00000
E00000
E00000
E00000
E00000
E00000
E00000
E00000
E00000
E00000
E00000
E00000
E00000
E00000
E00000
E00000
FFFFF8
FFFFFC
FFFFFC
ENDCHAR
STARTCHAR 004D
ENCODING 77
SWIDTH 680 0
DWIDTH 34 0
BBX 31 36 2 0
BITMAP
03000380
03800380
03800380
07800780
07C00780
07C007C0
07C007C0
06E00FC0
0EE00EC0
0E600CC0
0E701CE0
0E701CE0
0C301CE0
0C3818E0
1C383860
1C183870
1C1C3070
1C1C7070
180C7070
380E7030
380EE030
3806E038
3807E038
3003C038
7003C018
7003C018
7001801C
7001801C
6000001C
6000001C
E000000C
E000000C
E000000E
E000000E
C000000E
00000004
ENDCHAR
STARTCHAR 004E
ENCODING 78
SWIDTH 560 0
DWIDTH 28 0
BBX 24 36 2 0
BITMAP
C00003
E00007
E00007
E30007
E70007
E38007
E18007
E1C007
E0C007
E0E007
E06007
E07007
E03007
E03807
E01C07
E01C07
E00E07
E00E07
E00707
E00707
E00387
E00387
E001C7
E001C7
E000E7
E000E7
E00077
E00077
E0003F
E0001F
E0001F
E0000F
E0000F
E00007
E00007
C00003
ENDCHAR
STARTCHAR 004F
ENCODING 79
SWIDTH 620 0
DWIDTH 31 0
BBX 28 36 2 0
BITMAP
001FC000
007FF000
01FFFC00
03E01E00
07800F00
0F000700
1E000380
1C000380
380001C0
380001C0
700000C0
700000E0
600000E0
E00000E0
E0000060
E0000060
E0000070
E0000070
E0000070
E0000070
E0000070
E0000070
E0000060
60000060
700000E0
700000E0
380000E0
380001C0
1C0001C0
1E000380
0F000380
07800700
03E01E00
01FFFC00
007FF800
001FE000
ENDCHAR
STARTCHAR 0050
ENCODING 80
SWIDTH 520 0
DWIDTH 26 0
BBX 24 36 2 0
BITMAP
C3FF00
E7FFE0
E7FFF0
E00078
E0001C
E0000E
E0000E
E00006
E00007
E00007
E00007
E00007
E00007
E00007
E00006
E0000E
E0001C
E0003C
E00078
E7FFF0
E7FFE0
E1FF00
E00000
E00000
E00000
E00000
E00000
E00000
E00000
E00000
E00000
E00000
E00000
E00000
E00000
C00000
ENDCHAR
STARTCHAR 0051
ENCODING 81
SWIDTH 640 0
DWIDTH 32 0
BBX 29 36 1 0
BITMAP
000FE000
007FF800
01FFFC00
03E01E00
07800F00
0F000780
1E000380
1C0001C0
380001C0
380000C0
700000E0
700000E0
60000060
E0000070
E0000070
E0000070
E0000070
E0000070
E0000070
E0000070
E0000070
E0000070
E0000070
60000070
70000060
700000E0
300000E0
380070E0
1C007DC0
1E003FC0
0F001F80
078007C0
03E01FF0
01FFFE78
007FF818
001FE000
ENDCHAR
STARTCHAR 0052
ENCODING 82
SWIDTH 580 0
DWIDTH 29 0
BBX 26 36 2 0
BITMAP
C7FE0000
E7FFC000
E7FFF000
E0007800
E0003C00
E0001C00
E0000E00
E0000E00
E0000600
E0000700
E0000700
E0000700
E0000600
E0000E00
E0000E00
E0001C00
E0007800
E201F000
E7FFE000
E7FF8000
E0780000
E0000000
E0000000
E0000000
E00C0000
E01E0000
E00F8000
E007C000
E003F000
E000FC00
E0003E00
E0000F00
E00007C0
E00001C0
E0000000
C0000000
ENDCHAR
STARTCHAR 0053
ENCODING 83
SWIDTH 580 0
DWIDTH 29 0
BBX 26 37 2 -1
BITMAP
007F8000
03FFF000
0FFFFC00
1F003E00
1C000F00
38000780
78000380
70000180
70000000
70000000
70000000
70000000
70000000
38000000
3C000000
1E000000
0FFE0000
03FFE000
007FF800
00007E00
00001F00
00000700
00000380
000001C0
000001C0
000001C0
000001C0
000001C0
E00001C0
E00003C0
70000380
38000780
3E001F00
0F807E00
07FFF800
01FFE000
001E0000
ENDCHAR
STARTCHAR 0054
ENCODING 84
SWIDTH 560 0
DWIDTH 28 0
BBX 27 36 0 2
BITMAP
FFE00000
FFFFFE00
0FFFFFE0
0000FFE0
00000000
00000000
00030000
00038000
00038000
00038000
00038000
00038000
00038000
00038000
00038000
00038000
00038000
00038000
00038000
00038000
00038000
00038000
00038000
00038000
00038000
00038000
00038000
00038000
00038000
00038000
00038000
00038000
00038000
00038000
00038000
00030000
ENDCHAR
STARTCHAR 0055
ENCODING 85
SWIDTH 580 0
DWIDTH 29 0
BBX 25 36 2 0
BITMAP
C0000300
E0000380
E0000380
E0000380
E0000380
E0000380
E0000380
E0000380
E0000380
E0000380
E0000380
E0000380
E0000380
E0000380
E0000380
E0000380
E0000380
E0000380
E0000380
E0000380
E0000380
E0000380
E0000380
E0000380
E0000380
E0000380
E0000300
60000700
70000700
70000E00
38001E00
1C003C00
1F007800
07FFF000
03FFC000
007F0000
ENDCHAR
STARTCHAR 0056
ENCODING 86
SWIDTH 540 0
DWIDTH 27 0
BBX 25 36 1 0
BITMAP
40000180
E0000180
E0000380
E0000380
70000300
70000700
70000700
38000600
38000E00
18000E00
1C000C00
1C001C00
0C001C00
0E003800
0E003800
06003800
07007000
07007000
03007000
0380E000
0380E000
0180E000
01C1C000
01C1C000
00C1C000
00E38000
00E38000
00730000
00770000
00770000
003E0000
003E0000
001E0000
001C0000
001C0000
00080000
ENDCHAR
STARTCHAR 0057
ENCODING 87
SWIDTH 680 0
DWIDTH 34 0
BBX 31 36 2 0
BITMAP
00000004
C000000E
C000000E
E000000E
E000000E
E000000C
6000001C
6000001C
7003001C
7003801C
70038018
30078038
3007C038
3807C038
380EC038
380EE030
180CE070
181C6070
1C1C7070
1C1C7070
1C387060
0C3838E0
0C3838E0
0E3038E0
0E7018E0
0E701CC0
06601DC0
06E00DC0
07E00FC0
07C00FC0
07C00780
03C00780
03C00780
03800780
03800380
03000300
ENDCHAR
STARTCHAR 0058
ENCODING 88
SWIDTH 620 0
DWIDTH 31 0
BBX 28 36 2 1
BITMAP
00000060
180000E0
1C0001C0
1E0001C0
0E000380
07000380
03800700
03800700
01C00E00
00E00E00
00F01C00
00703800
00383800
001C7000
001CF000
000EE000
0007C000
0007C000
00038000
0007C000
000FE000
000EF000
001C7000
00383800
00783C00
00F01C00
00E00E00
01C00700
03800780
07000380
0E0001C0
1C0000E0
380000E0
70000070
E0000030
C0000000
ENDCHAR
STARTCHAR 0059
ENCODING 89
SWIDTH 560 0
DWIDTH 28 0
BBX 26 37 1 1
BITMAP
000001C0
000001C0
E0000380
F0000780
78000700
3C000E00
1E001E00
0F001C00
07803800
01C03000
00C07000
00000000
00000000
00000000
000C0000
000E0000
000E0000
000E0000
000E0000
000E0000
000E0000
000E0000
000E0000
000E0000
000E0000
000E0000
000E0000
000E0000
000E0000
000E0000
000E0000
000E0000
000E0000
000E0000
000E0000
000E0000
000C0000
ENDCHAR
STARTCHAR 005A
ENCODING 90
SWIDTH 580 0
DWIDTH 29 0
BBX 27 35 1 0
BITMAP
FFFFFF80
FFFFFFC0
7FFFFF80
00000700
00000F00
00000E00
00001C00
00003C00
00003800
00007000
0000E000
0001E000
0001C000
00038000
00078000
00070000
000E0000
001E0000
001C0000
00380000
00700000
00F00000
00E00000
01C00000
03C00000
03800000
07000000
0F000000
0E000000
1C000000
38000000
78000000
7FFFFFC0
FFFFFFE0
7FFFFFE0
ENDCHAR
STARTCHAR 005B
ENCODING 91
SWIDTH 240 0
DWIDTH 12 0
BBX 10 46 2 -3
BITMAP
7F80
FFC0
FFC0
E000
E000
E000
E000
E000
E000
E000
E000
E000
E000
E000
E000
E000
E000
E000
E000
E000
E000
E000
E000
E000
E000
E000
E000
E000
E000
E000
E000
E000
E000
E000
E000
E000
E000
E000
E000
E000
E000
E000
E000
FF80
FFC0
FFC0
ENDCHAR
STARTCHAR 005C
ENCODING 92
SWIDTH 320 0
DWIDTH 16 0
BBX 15 47 0 -4
BITMAP
4000
E000
6000
6000
7000
7000
3000
3800
3800
3800
1800
1C00
1C00
0C00
0C00
0E00
0E00
0600
0700
0700
0300
0300
0380
0380
0180
01C0
01C0
00C0
00C0
00E0
00E0
0060
0070
0070
0070
0030
0038
0038
0018
001C
001C
001C
000C
000E
000E
0006
0004
ENDCHAR
STARTCHAR 005D
ENCODING 93
SWIDTH 260 0
DWIDTH 13 0
BBX 10 46 1 -3
BITMAP
7F80
FFC0
FFC0
01C0
01C0
01C0
01C0
01C0
01C0
01C0
01C0
01C0
01C0
01C0
01C0
01C0
01C0
01C0
01C0
01C0
01C0
01C0
01C0
01C0
01C0
01C0
01C0
01C0
01C0
01C0
01C0
01C0
01C0
01C0
01C0
01C0
01C0
01C0
01C0
01C0
01C0
01C0
01C0
7FC0
FFC0
FF80
ENDCHAR
STARTCHAR 005E
ENCODING 94
SWIDTH 400 0
DWIDTH 20 0
BBX 18 13 1 34
BITMAP
00C000
01E000
03F000
03F000
073800
0F1C00
1E1E00
1C0E00
380700
700380
F003C0
E001C0
C000C0
ENDCHAR
STARTCHAR 005F
ENCODING 95
SWIDTH 800 0
DWIDTH 40 0
BBX 36 3 2 -1
BITMAP
7FFFFFFFE0
FFFFFFFFF0
FFFFFFFFF0
ENDCHAR
STARTCHAR 0060
ENCODING 96
SWIDTH 160 0
DWIDTH 8 0
BBX 4 6 1 36
BITMAP
E0
E0
70
70
30
30
ENDCHAR
STARTCHAR 0061
ENCODING 97
SWIDTH 480 0
DWIDTH 24 0
BBX 22 21 1 0
BITMAP
0180C0
0FF0E0
1FF8E0
3C3CE0
381CE0
700CE0
6000E0
E000E0
E000E0
E000E0
E000E0
E000E0
E000E0
E000E0
6000E0
7000E0
700EE0
381CF0
1FFC78
0FF87C
07E03C
ENDCHAR
STARTCHAR 0062
ENCODING 98
SWIDTH 420 0
DWIDTH 21 0
BBX 19 35 2 0
BITMAP
C00000
E00000
E00000
E00000
E00000
E00000
E00000
E00000
E00000
E00000
E00000
E00000
E00000
E00000
E00000
E1F800
E7FE00
EFFF00
E40380
E001C0
E001C0
E000E0
E000E0
E000E0
E000E0
E000E0
E000E0
E000E0
E000E0
E001C0
E001C0
E00780
E7FF00
E7FE00
C1F800
ENDCHAR
STARTCHAR 0063
ENCODING 99
SWIDTH 440 0
DWIDTH 22 0
BBX 19 21 1 -1
BITMAP
007000
03FE00
0FFF80
1F07C0
3C01C0
7800C0
700000
E00000
E00000
E00000
E00000
E00000
E00000
E00000
700000
700000
3800E0
3E03C0
1FFF80
07FF00
01FC00
ENDCHAR
STARTCHAR 0064
ENCODING 100
SWIDTH 420 0
DWIDTH 21 0
BBX 19 36 0 0
BITMAP
0000C0
0000E0
0000E0
0000E0
0000E0
0000E0
0000E0
0000E0
0000E0
0000E0
0000E0
0000E0
0000E0
0000E0
0000E0
0000E0
03F0E0
0FFCE0
1FFCE0
380CE0
7000E0
7000E0
E000E0
E000E0
E000E0
E000E0
E000E0
E000E0
E000E0
E000E0
6000E0
7000E0
3800E0
3FFCE0
0FFCE0
03F8C0
ENDCHAR
STARTCHAR 0065
ENCODING 101
SWIDTH 440 0
DWIDTH 22 0
BBX 19 22 1 -2
BITMAP
01F800
07FE00
1FFF00
3C0780
380380
7001C0
7001C0
E001C0
E001C0
E001C0
E3FF80
E7FF80
E7FE00
E00000
E00000
600000
700060
7800E0
3C01C0
1F0FC0
0FFF00
03FE00
ENDCHAR
STARTCHAR 0066
ENCODING 102
SWIDTH 440 0
DWIDTH 22 0
BBX 21 36 0 0
BITMAP
0003E0
000FE0
001FC0
001C00
003800
003800
003800
003800
003800
003800
003800
003800
003800
003800
003800
003FF8
7FFFF8
FFFFC0
FF3800
003800
003800
003800
003800
003800
003800
003800
003800
003800
003800
003800
003800
003800
003800
003800
003800
003000
ENDCHAR
STARTCHAR 0067
ENCODING 103
SWIDTH 440 0
DWIDTH 22 0
BBX 19 35 2 -16
BITMAP
01C0C0
0FFCE0
1FFCE0
3C0CE0
7800E0
7000E0
E000E0
E000E0
E000E0
E000E0
E000E0
E000E0
E000E0
E000E0
6000E0
7000E0
3800E0
3FFCE0
0FFCE0
03F0E0
0000E0
0000E0
0000E0
0000E0
0000E0
0000E0
C000C0
E001C0
E001C0
7001C0
780380
3E0F80
1FFF00
07FC00
01F000
ENDCHAR
STARTCHAR 0068
ENCODING 104
SWIDTH 380 0
DWIDTH 19 0
BBX 17 35 2 0
BITMAP
C00000
E00000
E00000
E00000
E00000
E00000
E00000
E00000
E00000
E00000
E00000
E00000
E00000
E1F800
E7FC00
EFFE00
E40F00
E00700
E00380
E00380
E00380
E00380
E00380
E00380
E00380
E00380
E00380
E00380
E00380
E00380
E00380
E00380
E00380
E00380
C00180
ENDCHAR
STARTCHAR 0069
ENCODING 105
SWIDTH 120 0
DWIDTH 6 0
BBX 3 33 2 0
BITMAP
C0
E0
E0
E0
40
00
00
00
00
00
00
00
C0
E0
E0
E0
E0
E0
E0
E0
E0
E0
E0
E0
E0
E0
E0
E0
E0
E0
E0
E0
C0
ENDCHAR
STARTCHAR 006A
ENCODING 106
SWIDTH 200 0
DWIDTH 10 0
BBX 8 47 0 -14
BITMAP
06
07
07
06
02
00
00
00
00
00
00
00
06
07
07
07
07
07
07
07
07
07
07
07
07
07
07
07
07
07
07
07
07
07
07
07
07
06
06
06
0E
0E
0E
1C
7C
F8
70
ENDCHAR
STARTCHAR 006B
ENCODING 107
SWIDTH 420 0
DWIDTH 21 0
BBX 19 35 2 0
BITMAP
C00000
E00000
E00000
E00000
E00000
E00000
E00000
E00000
E00000
E00000
E00000
E00000
E00000
E00000
E00000
E00300
E00700
E00F00
E03C00
E03800
E06000
E00000
E00000
E00000
E00000
E0E000
E0F000
E07C00
E01E00
E00F00
E007C0
E001E0
E00060
E00000
C00000
ENDCHAR
STARTCHAR 006C
ENCODING 108
SWIDTH 140 0
DWIDTH 7 0
BBX 3 35 2 0
BITMAP
C0
E0
E0
E0
E0
E0
E0
E0
E0
E0
E0
E0
E0
E0
E0
E0
E0
E0
E0
E0
E0
E0
E0
E0
E0
E0
E0
E0
E0
E0
E0
E0
E0
E0
C0
ENDCHAR
STARTCHAR 006D
ENCODING 109
SWIDTH 560 0
DWIDTH 28 0
BBX 24 22 2 0
BITMAP
018020
C7F1FC
EFF3FE
EE7B0E
E03807
E01C07
E01C07
E01C07
E01C07
E01C07
E01C07
E01C07
E01C07
E01C07
E01C07
E01C07
E01C07
E01C07
E01C07
E01C07
E01C07
C01803
ENDCHAR
STARTCHAR 006E
ENCODING 110
SWIDTH 420 0
DWIDTH 21 0
BBX 17 22 2 -1
BITMAP
C1F800
E7FC00
EFFE00
E40F00
E00700
E00380
E00380
E00380
E00380
E00380
E00380
E00380
E00380
E00380
E00380
E00380
E00380
E00380
E00380
E00380
E00380
C00180
ENDCHAR
STARTCHAR 006F
ENCODING 111
SWIDTH 440 0
DWIDTH 22 0
BBX 20 22 1 -1
BITMAP
01F800
07FE00
0FFF00
1E0780
3803C0
7801C0
7000E0
6000E0
E00060
E00070
E00070
E00070
E00070
E00060
E000E0
7000E0
7001C0
3803C0
1C0780
1FFF00
07FE00
01F800
ENDCHAR
STARTCHAR 0070
ENCODING 112
SWIDTH 420 0
DWIDTH 21 0
BBX 19 35 2 -15
BITMAP
01F800
C7FE00
EFFF00
EC0780
E003C0
E001C0
E000E0
E000E0
E000E0
E000E0
E000E0
E000E0
E000E0
E000E0
E000E0
E001C0
E003C0
EF0F80
EFFF00
E7FE00
E00000
E00000
E00000
E00000
E00000
E00000
E00000
E00000
E00000
E00000
E00000
E00000
E00000
E00000
C00000
ENDCHAR
STARTCHAR 0071
ENCODING 113
SWIDTH 420 0
DWIDTH 21 0
BBX 19 35 0 -15
BITMAP
03F000
0FFC60
1FFEE0
3C06E0
7800E0
7000E0
E000E0
E000E0
E000E0
E000E0
E000E0
E000E0
E000E0
E000E0
7000E0
7000E0
3C04E0
3FFEE0
1FFEE0
07F0E0
0000E0
0000E0
0000E0
0000E0
0000E0
0000E0
0000E0
0000E0
0000E0
0000E0
0000E0
0000E0
0000E0
0000E0
000060
ENDCHAR
STARTCHAR 0072
ENCODING 114
SWIDTH 360 0
DWIDTH 18 0
BBX 15 22 2 -1
BITMAP
C000
E000
E000
E006
E01E
E07E
E0FC
E3F0
E780
E000
E000
E000
E000
E000
E000
E000
E000
E000
E000
E000
E000
C000
ENDCHAR
STARTCHAR 0073
ENCODING 115
SWIDTH 460 0
DWIDTH 23 0
BBX 17 24 2 -3
BITMAP
01C000
0FFC00
3FFE00
7C0F00
700780
E00380
E00180
E00000
E00000
F00000
7FC000
3FFC00
07FE00
000F00
000780
000380
000380
C00380
C00380
E00780
780F00
3F3E00
1FFC00
07F000
ENDCHAR
STARTCHAR 0074
ENCODING 116
SWIDTH 400 0
DWIDTH 20 0
BBX 19 34 0 0
BITMAP
006000
007000
007000
007000
007000
007000
007000
007000
007000
007000
007000
007000
0071E0
00FFE0
7FFFE0
FFF800
7C7000
007000
007000
007000
007000
007000
007000
007000
007000
007000
007000
007000
003000
003800
003C00
001E00
001F00
000F00
ENDCHAR
STARTCHAR 0075
ENCODING 117
SWIDTH 440 0
DWIDTH 22 0
BBX 18 22 2 -1
BITMAP
C00180
E001C0
E001C0
E001C0
E001C0
E001C0
E001C0
E001C0
E001C0
E001C0
E001C0
E001C0
E001C0
E001C0
E001C0
E001C0
E001C0
7001C0
7819C0
3FF9C0
1FF9C0
07E180
ENDCHAR
STARTCHAR 0076
ENCODING 118
SWIDTH 420 0
DWIDTH 21 0
BBX 18 21 1 0
BITMAP
C000C0
E000C0
E001C0
6001C0
700380
700380
300380
380700
180700
1C0E00
1C0E00
0E0C00
0E1C00
061C00
073800
033800
03F000
03F000
01E000
01E000
00C000
ENDCHAR
STARTCHAR 0077
ENCODING 119
SWIDTH 560 0
DWIDTH 28 0
BBX 25 22 1 1
BITMAP
60000180
E0000180
600C0180
601C0380
701E0380
701E0380
301E0300
303F0700
383F0700
38370700
38730600
18738E00
1C638E00
1C618C00
0CE1DC00
0EE1DC00
0EC0D800
07C0F800
07C0F800
07807000
03807000
03806000
ENDCHAR
STARTCHAR 0078
ENCODING 120
SWIDTH 440 0
DWIDTH 22 0
BBX 19 22 1 0
BITMAP
000100
000380
000300
180700
3C0700
1E0600
0F0E00
078C00
03DC00
01F800
00F800
007800
00F800
00FC00
01CE00
038700
070380
0E01C0
3C00E0
780040
E00000
C00000
ENDCHAR
STARTCHAR 0079
ENCODING 121
SWIDTH 440 0
DWIDTH 22 0
BBX 19 34 1 -14
BITMAP
0000E0
0000E0
6000E0
E000C0
7001C0
7801C0
3801C0
1C0380
1E0380
0E0380
070700
030700
010600
000E00
000E00
001C00
001C00
003800
003800
007000
007000
00E000
00E000
01C000
03C000
038000
078000
070000
0E0000
1E0000
1C0000
380000
700000
300000
ENDCHAR
STARTCHAR 007A
ENCODING 122
SWIDTH 440 0
DWIDTH 22 0
BBX 18 21 2 -1
BITMAP
7FFF00
FFFF80
FFFF80
000F00
000E00
001C00
003800
007800
00F000
00E000
01C000
03C000
078000
070000
0E0000
1C0000
3C0000
780000
7FFF80
FFFFC0
FFFFC0
ENDCHAR
STARTCHAR 007B
ENCODING 123
SWIDTH 340 0
DWIDTH 17 0
BBX 16 45 0 -4
BITMAP
007F
00FF
01FE
01C0
01C0
01C0
01C0
01C0
01C0
01C0
01C0
01C0
01C0
01C0
01C0
01C0
01C0
01C0
01C0
01C0
0380
7F80
FF00
FF00
0380
0180
01C0
01C0
01C0
01C0
01C0
01C0
01C0
01C0
01C0
01C0
01C0
01C0
01C0
01C0
01C0
01C0
01FE
01FF
00FF
ENDCHAR
STARTCHAR 007C
ENCODING 124
SWIDTH 140 0
DWIDTH 7 0
BBX 3 46 2 -4
BITMAP
C0
E0
E0
E0
E0
E0
E0
E0
E0
E0
E0
E0
E0
E0
E0
E0
E0
E0
E0
E0
E0
E0
E0
E0
E0
E0
E0
E0
E0
E0
E0
E0
E0
E0
E0
E0
E0
E0
E0
E0
E0
E0
E0
E0
E0
C0
ENDCHAR
STARTCHAR 007D
ENCODING 125
SWIDTH 340 0
DWIDTH 17 0
BBX 17 45 0 -4
BITMAP
7F0000
FF8000
7F8000
01C000
01C000
01C000
01C000
01C000
01C000
01C000
01C000
01C000
01C000
01C000
01C000
01C000
01C000
01C000
01C000
01C000
01C000
00FF00
007F80
00FF80
00E000
01C000
01C000
01C000
01C000
01C000
01C000
01C000
01C000
01C000
01C000
01C000
01C000
01C000
01C000
01C000
01C000
01C000
7FC000
FF8000
7F8000
ENDCHAR
STARTCHAR 007E
ENCODING 126
SWIDTH 520 0
DWIDTH 26 0
BBX 24 5 2 19
BITMAP
078000
3FF007
7FFC1F
E01FFC
C003F8
ENDCHAR
STARTCHAR 00A5
ENCODING 165
SWIDTH 560 0
DWIDTH 28 0
BBX 28 40 0 -2
BITMAP
0E001E00
0F003C00
07807C00
0380F000
00800000
00000000
00000000
00000000
00000000
FFFFFFC0
FFFFFFE0
FFFFFFE0
00000000
000C0000
000E0000
000E0000
000E0000
000E0000
000E0000
000E0000
000E0000
FFFFFFF0
FFFFFFF0
7FFFFFE0
000E0000
000E0000
000E0000
000E0000
000E0000
000E0000
000E0000
000E0000
000E0000
000E0000
000E0000
000E0000
000E0000
000E0000
000E0000
000C0000
ENDCHAR
STARTCHAR 00A9
ENCODING 169
SWIDTH 860 0
DWIDTH 43 0
BBX 41 42 1 -2
BITMAP
0000FF800000
0007FFF00000
001FFFFC0000
007E003F0000
00F000078000
03E00003E000
07800000F000
070000007000
0E0000003800
1C0000001C00
1C001C001C00
3800FF800E00
3801FFC00E00
7003C1F00700
700780700700
600E00300300
E00E00000380
E01C00000380
E01C00000380
E01C00000380
E01C00000380
E01C00000380
E01C00000380
E01C00000380
E00C00000380
E00E00000380
600700300300
700780F00700
7003FFE00700
3801FFC00E00
38007F000E00
1C0000001C00
1C0000001C00
0E0000003800
070000007000
07800000F000
03E00003E000
00F000078000
007E003F0000
003FFFFE0000
0007FFF00000
0000FF800000
ENDCHAR
STARTCHAR 00B0
ENCODING 176
SWIDTH 260 0
DWIDTH 13 0
BBX 11 12 1 33
BITMAP
0400
3F80
7FC0
71C0
E0E0
E0E0
E0E0
E0E0
71C0
7FC0
3F80
0400
ENDCHAR
STARTCHAR 00B7
ENCODING 183
SWIDTH 900 0
DWIDTH 45 0
BBX 3 5 21 18
BITMAP
C0
E0
E0
E0
40
ENDCHAR
STARTCHAR 2014
ENCODING 8212
SWIDTH 900 0
DWIDTH 45 0
BBX 43 3 1 20
BITMAP
7FFFFFFFFFC0
FFFFFFFFFFE0
FFFFFFFFFFE0
ENDCHAR
STARTCHAR 2018
ENCODING 8216
SWIDTH 900 0
DWIDTH 45 0
BBX 4 5 40 36
BITMAP
30
70
70
E0
E0
ENDCHAR
STARTCHAR 2019
ENCODING 8217
SWIDTH 900 0
DWIDTH 45 0
BBX 4 6 1 36
BITMAP
70
70
E0
E0
C0
80
ENDCHAR
STARTCHAR 201C
ENCODING 8220
SWIDTH 920 0
DWIDTH 46 0
BBX 10 5 34 36
BITMAP
30C0
71C0
71C0
E380
E380
ENDCHAR
STARTCHAR 201D
ENCODING 8221
SWIDTH 900 0
DWIDTH 45 0
BBX 10 5 1 36
BITMAP
71C0
71C0
E380
E380
C300
ENDCHAR
STARTCHAR 2022
ENCODING 8226
SWIDTH 900 0
DWIDTH 45 0
BBX 3 5 21 18
BITMAP
C0
E0
E0
E0
40
ENDCHAR
STARTCHAR 2026
ENCODING 8230
SWIDTH 900 0
DWIDTH 45 0
BBX 41 5 2 18
BITMAP
C00018000300
E0001C000380
E0001C000380
E0001C000380
400008000100
ENDCHAR
STARTCHAR 205D
ENCODING 8285
SWIDTH 900 0
DWIDTH 45 0
BBX 5 41 20 1
BITMAP
78
F8
30
00
00
00
00
00
00
00
00
00
00
00
00
00
00
00
00
78
F8
30
00
00
00
00
00
00
00
00
00
00
00
00
00
00
00
00
30
F8
78
ENDCHAR
STARTCHAR 20AC
ENCODING 8364
SWIDTH 840 0
DWIDTH 42 0
BBX 40 41 1 -1
BITMAP
00000FC000
00007FF000
0000FFFC00
0001E01E00
0003800F00
0007000780
000E000380
000E000180
001C000000
001C000000
0038000000
0038000000
0038000000
7FB0000000
7FFF000000
0FFFFE0000
007FFFFC00
00701FFFF8
0070003FFC
007000007C
0070000000
0070000000
0070000000
7FFFFFFFFE
FFFFFFFFFF
FFFFFFFFFF
0030000000
0030000000
0038000000
0038000000
0018000000
001C000000
001C000000
000E0001C0
000F0003C0
0007000380
0003800F00
0001E01E00
0000FFFC00
00007FF800
00001FC000
ENDCHAR
STARTCHAR 2122
ENCODING 8482
SWIDTH 900 0
DWIDTH 45 0
BBX 44 19 0 25
BITMAP
7FFF843C0F00
FFFFCEFE3FC0
7FFFCEFF7FC0
00000EC730E0
00000E0380E0
00C00E038060
00E00E038070
00E00E038070
00E00E038070
00E00E038070
00E00E038070
00E00E038070
00E00E038070
00E00E038070
00E00E038070
00E00E038070
00E00E038070
00E00E038070
00C006018060
ENDCHAR
STARTCHAR 22EF
ENCODING 8943
SWIDTH 900 0
DWIDTH 45 0
BBX 41 5 2 18
BITMAP
C00018000300
E0001C000380
E0001C000380
E0001C000380
400008000100
ENDCHAR
STARTCHAR 2F00
ENCODING 12032
SWIDTH 920 0
DWIDTH 46 0
BBX 34 3 6 18
BITMAP
FFFFFFFFC0
FFFFFFFFC0
7FFFFFFF80
ENDCHAR
STARTCHAR 2F01
ENCODING 12033
SWIDTH 900 0
DWIDTH 45 0
BBX 3 35 21 0
BITMAP
C0
E0
E0
E0
E0
E0
E0
E0
E0
E0
E0
E0
E0
E0
E0
E0
E0
E0
E0
E0
E0
E0
E0
E0
E0
E0
E0
E0
E0
E0
E0
E0
E0
E0
C0
ENDCHAR
STARTCHAR 2F02
ENCODING 12034
SWIDTH 900 0
DWIDTH 45 0
BBX 11 10 17 14
BITMAP
4000
E000
F000
7800
3E00
1F00
0F80
03C0
01E0
0060
ENDCHAR
STARTCHAR 2F03
ENCODING 12035
SWIDTH 900 0
DWIDTH 45 0
BBX 10 44 18 -4
BITMAP
0180
01C0
01C0
01C0
01C0
01C0
01C0
01C0
0180
0180
0180
0180
0180
0380
0380
0380
0380
0380
0300
0300
0300
0700
0700
0700
0600
0600
0E00
0E00
0E00
0C00
0C00
1C00
1C00
1800
3800
3800
3000
7000
7000
6000
E000
C000
C000
8000
ENDCHAR
STARTCHAR 2F04
ENCODING 12036
SWIDTH 900 0
DWIDTH 45 0
BBX 33 37 6 -1
BITMAP
FFFFFF8000
FFFFFFC000
7FFFFFC000
000003C000
0000038000
0000070000
00000F0000
00001E0000
00001C0000
0000380000
0000780000
0000F00000
0000E00000
0001C00000
0003800000
0007800000
000F000000
000E000000
001C000000
003C000000
0078000000
0070000000
00E0000000
01C0000000
03C0000000
0380000000
0700000000
0E00000000
1E00000000
1C00000000
3800000400
7000000600
F000000700
E000000700
FFFFFFFF80
FFFFFFFF80
7FFFFFFF80
ENDCHAR
STARTCHAR 2F06
ENCODING 12038
SWIDTH 900 0
DWIDTH 45 0
BBX 32 33 6 1
BITMAP
1FFFFFF8
1FFFFFF8
0FFFFFF0
00000000
00000000
00000000
00000000
00000000
00000000
00000000
00000000
00000000
00000000
00000000
00000000
00000000
00000000
00000000
00000000
00000000
00000000
00000000
00000000
00000000
00000000
00000000
00000000
00000000
00000000
00000000
7FFFFFFE
FFFFFFFF
FFFFFFFF
ENDCHAR
STARTCHAR 2F07
ENCODING 12039
SWIDTH 920 0
DWIDTH 46 0
BBX 36 10 5 32
BITMAP
0000600000
0000E00000
0000E00000
0000E00000
0000600000
0000400000
0000000000
FFFFFFFFF0
FFFFFFFFF0
7FFFFFFFE0
ENDCHAR
STARTCHAR 2F08
ENCODING 12040
SWIDTH 900 0
DWIDTH 45 0
BBX 28 39 9 -2
BITMAP
00030000
00030000
00070000
00070000
00070000
00070000
00060000
000E0000
000E0000
000E0000
001C0000
001C0000
001C0000
00180000
00380000
00380000
00300000
00700000
00700000
00600000
00E00000
00E00000
01C00000
01C00000
03800000
03801800
07803E00
07003FC0
07000FE0
0E0001F0
1C000000
1C000000
38000000
38000000
70000000
60000000
E0000000
C0000000
80000000
ENDCHAR
STARTCHAR 2F09
ENCODING 12041
SWIDTH 900 0
DWIDTH 45 0
BBX 32 42 6 -4
BITMAP
00C00000
00E00000
00E00000
00E00000
00E00000
00E01C00
00E01C00
00E01C00
00C01C00
00C01C00
00C01C00
00C01C00
01C01C00
01C01C00
01C01C00
01C01C00
01C01C00
01C01C00
01C01C00
01801C00
03801C00
03801C00
03801C00
03801C00
03001C00
07001C00
07001C00
07001C00
06001C00
0E001C00
0E001C04
0E001C06
0C001C06
1C001C07
18001FFF
38001FFF
38000FFF
30000000
70000000
60000000
E0000000
C0000000
ENDCHAR
STARTCHAR 2F0A
ENCODING 12042
SWIDTH 900 0
DWIDTH 45 0
BBX 32 40 6 -1
BITMAP
00010000
00038000
00038000
00018000
0001C000
0001C000
0001C000
0000C000
0000E000
0000E000
00006000
00007000
000C7000
001C7000
001C3800
00183800
00383800
00381C00
00301C00
00700E00
00700E00
00700E00
00E00700
00E00700
00C00380
01C00380
01C001C0
038001C0
038000E0
070000E0
07000070
0E000070
0E000038
1C000038
1C00001C
3800000E
3000000E
70000007
E0000003
40000003
ENDCHAR
STARTCHAR 2F0B
ENCODING 12043
SWIDTH 900 0
DWIDTH 45 0
BBX 35 43 5 -4
BITMAP
0000060000
00000E0000
0000060000
0000060000
0000060000
000C070000
000E070000
000E070000
000C070000
001C030000
001C030000
001C038000
001C038000
001C038000
0018018000
0038018000
003801C000
003801C000
003001C000
007000C000
007000E000
007000E000
006000E000
00E0006000
00E0007000
00E0007000
01C0003000
01C0003800
0180003800
0380001800
0380001C00
0700001C00
0700000C00
0600000E00
0E00000E00
0E00000700
1C00000700
1C00000380
3800000380
30000001C0
70000001C0
E0000000E0
C000000060
ENDCHAR
STARTCHAR 2F0C
ENCODING 12044
SWIDTH 900 0
DWIDTH 45 0
BBX 31 42 7 -5
BITMAP
47FFFFF8
EFFFFFFC
E7FFFFFE
E000000E
E000000E
E000000E
E000000E
E000000E
E000000E
E000000E
E000000E
E000000E
E000000E
E000000E
E000000E
E000000E
E000000E
E000000E
E000000E
E000000E
E000000E
E000000E
E000000E
E000000E
E000000E
E000000E
E000000E
E000000E
E000000E
E000000E
E000000E
E000000E
E000000E
E000000E
E000000E
E000000E
E000000E
E000000E
E000000E
E00000FE
E000007E
C000001C
ENDCHAR
STARTCHAR 2F0D
ENCODING 12045
SWIDTH 900 0
DWIDTH 45 0
BBX 33 11 6 29
BITMAP
C000000000
E3FFFFFF00
E7FFFFFF80
E1FFFFFF80
E000000380
E000000380
E000000380
E000000380
E000000380
E000000380
C000000180
ENDCHAR
STARTCHAR 2F0E
ENCODING 12046
SWIDTH 900 0
DWIDTH 45 0
BBX 7 31 9 2
BITMAP
70
78
3C
1C
00
00
00
00
00
00
00
00
00
00
00
00
00
00
00
00
00
00
00
00
00
00
06
1E
7C
F8
60
ENDCHAR
STARTCHAR 2F0F
ENCODING 12047
SWIDTH 900 0
DWIDTH 45 0
BBX 34 41 5 -3
BITMAP
0183FE0000
01C7FF0000
01C7FF8000
01C0038000
01C0038000
01C0038000
01C0038000
0180038000
0180038000
0180038000
0180038000
0380038000
0380038000
0380038000
0380038000
0380038000
0300038000
0300038000
0700038000
0700038000
0700038000
0700038000
0600038000
0600038000
0E00038000
0E00038000
0E00038000
0C00038000
1C00038000
1C00038100
1C00038100
1800038180
38000381C0
380003FFC0
300003FFC0
300001FFC0
7000000000
6000000000
6000000000
E000000000
4000000000
ENDCHAR
STARTCHAR 2F10
ENCODING 12048
SWIDTH 900 0
DWIDTH 45 0
BBX 33 34 6 -3
BITMAP
C000000180
E000000380
E000000380
E000000380
E000000380
E000000380
E000000380
E000000380
E000000380
E000000380
E000000380
E000000380
E000000380
E000000380
E000000380
E000000380
E000000380
E000000380
E000000380
E000000380
E000000380
E000000380
E000000380
E000000380
E000000380
E000000380
E000000380
E000000380
E000000380
E000000380
E000000380
FFFFFFFF80
FFFFFFFF80
7FFFFFFF00
ENDCHAR
STARTCHAR 2F11
ENCODING 12049
SWIDTH 900 0
DWIDTH 45 0
BBX 29 39 8 -5
BITMAP
7FFFFFF0
FFFFFFF0
3FFFFFF8
00000038
00000038
00000038
00000038
00000038
00100038
00380038
00380038
00700038
00700038
00700038
00700038
00700038
00E00038
00E00038
00E00038
00E00038
01C00038
01C00038
01C00038
03800038
03800038
03800038
07000038
07000038
0E000038
0E000038
0E000038
1C0001F8
1C0000F8
38000030
38000000
70000000
70000000
E0000000
C0000000
ENDCHAR
STARTCHAR 2F12
ENCODING 12050
SWIDTH 920 0
DWIDTH 46 0
BBX 28 44 9 -5
BITMAP
00080000
001C0000
001C0000
001C0000
001C0000
001C0000
00180000
00180000
00180000
00380000
00380000
00380000
3FFFFFC0
7FFFFFE0
7FFFFFF0
00700070
00700070
00700070
00700070
00600070
00E00070
00E00070
00E00070
00E00070
01C00070
01C00070
01C00070
01C00070
03800070
03800070
03800070
07000070
07000070
06000070
0E000070
0E000070
1C0007F0
1C0003F0
380001E0
38000000
70000000
70000000
E0000000
C0000000
ENDCHAR
STARTCHAR 2F13
ENCODING 12051
SWIDTH 900 0
DWIDTH 45 0
BBX 30 43 8 -3
BITMAP
01C00000
01C00000
03C00000
07800000
07000000
0F000000
1E000000
1C07FFF0
380FFFF8
380FFFFC
7000001C
E000001C
C000001C
8000001C
0000001C
0000001C
0000001C
0000001C
0000001C
0000001C
0000001C
0000001C
0000001C
0000001C
0000001C
0000001C
0000001C
0000001C
0000001C
0000001C
0000001C
0000001C
0000001C
0000001C
0000001C
0000001C
0000001C
0000001C
0000001C
0000001C
000001FC
000000FC
00000078
ENDCHAR
STARTCHAR 2F14
ENCODING 12052
SWIDTH 900 0
DWIDTH 45 0
BBX 27 38 9 -1
BITMAP
40000000
E0000000
E0000000
E0000000
E0000000
E0000000
E0000000
E0000000
E0000180
E0000780
E0001F80
E0007F00
E001FC00
E007E000
E01F8000
E01C0000
E0000000
E0000000
E0000000
E0000000
E0000000
E0000000
E0000000
E0000000
E0000000
E0000000
E0000000
E0000000
E0000000
E0000000
E0000000
E0000080
E00000C0
E00000C0
E00000C0
FFFFFFE0
FFFFFFE0
7FFFFFE0
ENDCHAR
STARTCHAR 2F15
ENCODING 12053
SWIDTH 900 0
DWIDTH 45 0
BBX 30 42 8 -3
BITMAP
7FFFFFF8
FFFFFFFC
FFFFFFF0
E0000000
E0000000
E0000000
E0000000
E0000000
E0000000
E0000000
E0000000
E0000000
E0000000
E0000000
E0000000
E0000000
E0000000
E0000000
E0000000
E0000000
E0000000
E0000000
E0000000
E0000000
E0000000
E0000000
E0000000
E0000000
E0000000
E0000000
E0000000
E0000000
E0000000
E0000000
E0000000
E0000000
E0000000
E0000000
E0000000
FFFFFFF0
FFFFFFFC
7FFFFFF8
ENDCHAR
STARTCHAR 2F17
ENCODING 12055
SWIDTH 900 0
DWIDTH 45 0
BBX 33 43 6 -3
BITMAP
0000C00000
0001C00000
0001C00000
0001C00000
0001C00000
0001C00000
0001C00000
0001C00000
0001C00000
0001C00000
0001C00000
0001C00000
0001C00000
0001C00000
0001C00000
0001C00000
7FFFFFFF00
FFFFFFFF80
FFFFFFFF80
0001C00000
0001C00000
0001C00000
0001C00000
0001C00000
0001C00000
0001C00000
0001C00000
0001C00000
0001C00000
0001C00000
0001C00000
0001C00000
0001C00000
0001C00000
0001C00000
0001C00000
0001C00000
0001C00000
0001C00000
0001C00000
0001C00000
0001C00000
0000C00000
ENDCHAR
STARTCHAR 2F18
ENCODING 12056
SWIDTH 900 0
DWIDTH 45 0
BBX 16 43 14 -3
BITMAP
C000
E000
E000
E000
E000
E000
E000
E000
E000
E000
E000
E000
E000
E000
E000
E040
E0F0
E07C
E01E
E00F
E007
E000
E000
E000
E000
E000
E000
E000
E000
E000
E000
E000
E000
E000
E000
E000
E000
E000
E000
E000
E000
E000
C000
ENDCHAR
STARTCHAR 2F19
ENCODING 12057
SWIDTH 900 0
DWIDTH 45 0
BBX 14 34 28 -1
BITMAP
FFF8
FFFC
7FFC
001C
001C
001C
C01C
E01C
E01C
E01C
E01C
E01C
E01C
E01C
E01C
E01C
E01C
E01C
E01C
E01C
E0FC
E07C
E03C
E000
E000
E000
E000
E000
E000
E000
E000
E000
E000
C000
ENDCHAR
STARTCHAR 2F1A
ENCODING 12058
SWIDTH 900 0
DWIDTH 45 0
BBX 33 43 6 -5
BITMAP
07FFFFFF00
0FFFFFFF80
0FFFFFFF80
0000000000
0000000000
0000000000
0600000000
0E00000000
0E00000000
0E00000000
0E00000000
0E00000000
0E00000000
0E00000000
0E00000000
0E00000000
0E00000000
0E00000000
0E00000000
0E00000000
0E00000000
0E00000000
0E00000000
1E00000000
1E00000000
1C00000000
1C00000000
1C00000000
1C00000000
1C00000000
1C00000000
3800000000
3800000000
3800000000
3800000000
3000000000
7000000000
7000000000
7000000000
6000000000
E000000000
E000000000
C000000000
ENDCHAR
STARTCHAR 2F1B
ENCODING 12059
SWIDTH 900 0
DWIDTH 45 0
BBX 33 33 6 2
BITMAP
0008000000
001C000000
001C000000
003C000000
0038000000
0038000000
0070000000
0070000000
00F0000000
00E0000000
00E0000000
01C0000000
01C0000000
03C0000000
0380000000
0780000000
0700000000
0700030000
0F00078000
0E00038000
1E0003C000
1C0001E000
1C0000F000
3C0000F000
3800007800
7800003C00
7000001C00
7000001E00
F003F00F00
F3FFF00700
FFFFC00380
FFFC000180
FF00000000
ENDCHAR
STARTCHAR 2F1C
ENCODING 12060
SWIDTH 900 0
DWIDTH 45 0
BBX 33 35 6 -1
BITMAP
0FFFFFF800
0FFFFFFC00
03FFFFFC00
0000001C00
0000003C00
0000003800
0000007800
0000007000
000000F000
000000E000
000001E000
000001C000
003803C000
003C078000
003E070000
000F0F0000
0007DE0000
0003FC0000
0001FC0000
0000780000
0000FC0000
0001FF0000
0003CF8000
000783C000
000F01E000
001E00F800
003C003C00
0078001E00
01F0000700
03C0000380
0780000080
1F00000000
7C00000000
F000000000
E000000000
ENDCHAR
STARTCHAR 2F1D
ENCODING 12061
SWIDTH 900 0
DWIDTH 45 0
BBX 29 32 8 2
BITMAP
7FFFFFF0
FFFFFFF0
FFFFFFF8
E0000038
E0000038
E0000038
E0000038
E0000038
E0000038
E0000038
E0000038
E0000038
E0000038
E0000038
E0000038
E0000038
E0000038
E0000038
E0000038
E0000038
E0000038
E0000038
E0000038
E0000038
E0000038
E0000038
E0000038
E0000038
E0000038
FFFFFFF8
FFFFFFF8
7FFFFFF0
ENDCHAR
STARTCHAR 2F1E
ENCODING 12062
SWIDTH 900 0
DWIDTH 45 0
BBX 33 44 6 -3
BITMAP
7FFFFFFF00
FFFFFFFF80
FFFFFFFF80
E000000380
E000000380
E000000380
E000000380
E000000380
E000000380
E000000380
E000000380
E000000380
E000000380
E000000380
E000000380
E000000380
E000000380
E000000380
E000000380
E000000380
E000000380
E000000380
E000000380
E000000380
E000000380
E000000380
E000000380
E000000380
E000000380
E000000380
E000000380
E000000380
E000000380
E000000380
E000000380
E000000380
E000000380
E000000380
E000000380
E000000380
E000000380
FFFFFFFF80
FFFFFFFF80
7FFFFFFF00
ENDCHAR
STARTCHAR 2F1F
ENCODING 12063
SWIDTH 880 0
DWIDTH 44 0
BBX 34 40 5 -1
BITMAP
0000600000
0000700000
0000700000
0000700000
0000700000
0000700000
0000700000
0000700000
0000700000
0000700000
0000700000
0000700000
0000700000
0000700000
0000700000
03FFFFF000
07FFFFF800
07FFFFF800
0000700000
0000700000
0000700000
0000700000
0000700000
0000700000
0000700000
0000700000
0000700000
0000700000
0000700000
0000700000
0000700000
0000700000
0000600000
0000000000
0000000000
0000000000
0000000000
7FFFFFFF80
FFFFFFFFC0
FFFFFFFFC0
ENDCHAR
STARTCHAR 2F20
ENCODING 12064
SWIDTH 900 0
DWIDTH 45 0
BBX 33 38 6 0
BITMAP
0001800000
0001C00000
0001C00000
0001C00000
0001C00000
0001C00000
0001C00000
0001C00000
0001C00000
0001C00000
0001C00000
0001C00000
0001C00000
0001C00000
0001C00000
FFFFFFFF80
FFFFFFFF80
7FFFFFFF00
0001C00000
0001C00000
0001C00000
0001C00000
0001C00000
0001C00000
0001C00000
0001C00000
0001C00000
0001C00000
0001C00000
0001C00000
0001C00000
0001800000
0000000000
0000000000
0000000000
01FFFFC000
03FFFFE000
03FFFFE000
ENDCHAR
STARTCHAR 2F21
ENCODING 12065
SWIDTH 900 0
DWIDTH 45 0
BBX 32 43 6 -4
BITMAP
00C00000
01C00000
03C00000
03800000
07800000
0F000000
0F000000
1E000000
1C07FF80
3C0FFFE0
780FFFE0
700000E0
E00001E0
C00001C0
000003C0
000003C0
00000380
00000780
00000700
00000F00
00400E00
00F01E00
00FC3C00
003F3C00
000FF800
0003F800
0000FE00
0001FF80
0003CFE0
000381F8
0007807E
000F000F
001E0001
003C0000
00780000
00F00000
01E00000
07C00000
0F000000
1E000000
7C000000
70000000
60000000
ENDCHAR
STARTCHAR 2F23
ENCODING 12067
SWIDTH 900 0
DWIDTH 45 0
BBX 27 43 9 -4
BITMAP
00C00000
01C00000
03C00000
03800000
07800000
07000000
0E000000
1E000000
1C07FF80
380FFFE0
380FFFE0
700000E0
E00000E0
C00000E0
000001C0
000001C0
00000180
00000380
03000380
03C00700
03E00F00
01F00E00
00F01C00
00381C00
00083800
00007800
00007000
0000E000
0001E000
0003C000
00038000
00070000
000E0000
001C0000
00380000
00F00000
01E00000
03C00000
07800000
1E000000
3C000000
78000000
20000000
ENDCHAR
STARTCHAR 2F24
ENCODING 12068
SWIDTH 900 0
DWIDTH 45 0
BBX 31 40 7 -3
BITMAP
00018000
00038000
00038000
00038000
00038000
00038000
00030000
00030000
00070000
00070000
00070000
00070000
00060000
000E0000
7FFFFFFE
FFFFFFFE
FFFFFFFE
001C0000
001C0000
001C0000
00180000
00380000
00380000
00300000
00700000
00700000
00E01E00
00E01FC0
00E00FF0
01C001FC
01C0003E
03800000
03800000
07000000
0E000000
0E000000
1C000000
18000000
38000000
30000000
ENDCHAR
STARTCHAR 2F25
ENCODING 12069
SWIDTH 900 0
DWIDTH 45 0
BBX 31 44 7 -4
BITMAP
00020000
00070000
00070000
000E0000
000E0000
000E0000
001C0000
001C0000
001C0000
00380000
00380000
7FFFFFFC
FFFFFFFE
FFFFFFFE
00700000
00E00000
00E00C00
00E00C00
01C01C00
01C01C00
01C03800
03803800
03803800
03807000
03C07000
03F0E000
00FEE000
001FC000
0007E000
0003FC00
00077F00
000F0FC0
000E03F8
001C00FC
0038001E
00780000
00F00000
01E00000
03C00000
0F000000
1E000000
3C000000
70000000
40000000
ENDCHAR
STARTCHAR 2F26
ENCODING 12070
SWIDTH 900 0
DWIDTH 45 0
BBX 33 41 6 -4
BITMAP
01FFFFC000
03FFFFE000
03FFFFE000
000001C000
0000038000
0000078000
0000070000
00000E0000
00001E0000
00001C0000
0000380000
0000380000
0000700000
0000F00000
0000E00000
0001C00000
0001C00000
0001C00000
7FFFFFFF00
FFFFFFFF80
FFFFFFFF80
0001C00000
0001C00000
0001C00000
0001C00000
0001C00000
0001C00000
0001C00000
0001C00000
0001C00000
0001C00000
0001C00000
0001C00000
0001C00000
0001C00000
0001C00000
0001C00000
0001C00000
000FC00000
0007C00000
0003C00000
ENDCHAR
STARTCHAR 2F27
ENCODING 12071
SWIDTH 900 0
DWIDTH 45 0
BBX 33 15 6 28
BITMAP
0000C00000
0001C00000
0001C00000
0001C00000
0000800000
0000000000
C000000000
E7FFFFFF00
E7FFFFFF80
E3FFFFFF80
E000000380
E000000380
E000000380
E000000380
C000000180
ENDCHAR
STARTCHAR 2F28
ENCODING 12072
SWIDTH 900 0
DWIDTH 45 0
BBX 31 41 7 -3
BITMAP
00000C00
00000E00
00000E00
00000E00
00000E00
00000E00
00000E00
00000E00
00000E00
00000E00
00000E00
7FFFFFFC
FFFFFFFE
FFFFFFFE
00000E00
00000E00
00000E00
00000E00
00000E00
00000E00
00000E00
00000E00
00000E00
00000E00
01800E00
01C00E00
01E00E00
00E00E00
00200E00
00000E00
00000E00
00000E00
00000E00
00000E00
00000E00
00000E00
00000E00
00000E00
0000FE00
00007E00
00003C00
ENDCHAR
STARTCHAR 2F29
ENCODING 12073
SWIDTH 900 0
DWIDTH 45 0
BBX 33 37 6 -1
BITMAP
0001800000
0001C00000
0001C00000
0001C00000
0001C00000
0001C00000
0001C00000
0001C00000
0001C00000
0001C00000
0001C00000
0001C00000
0001C00000
0001C00000
0001C00000
0001C03800
0401C03C00
0E01C01E00
1E01C00F00
3C01C00780
7801C00180
F001C00000
C001C00000
0001C00000
0001C00000
0001C00000
0001C00000
0001C00000
0001C00000
0001C00000
0001C00000
0001C00000
0001C00000
0001C00000
001FC00000
000FC00000
0007800000
ENDCHAR
STARTCHAR 2F2A
ENCODING 12074
SWIDTH 900 0
DWIDTH 45 0
BBX 32 43 6 -2
BITMAP
000C0000
001C0000
001C0000
001C0000
001C0000
001C0000
001C0000
001C0000
001C0000
001C0000
001C0000
001C0000
7FFFFFFC
FFFFFFFE
FFFFFFFE
00380000
00380000
00300000
00700000
00700000
00700000
00700000
00603800
00E03800
00E03800
00E03800
01C03800
01C03800
01C03800
03803800
03803800
03803804
07003806
07003806
0E003806
0E003FFF
0C001FFF
1C001FFF
1C000000
38000000
30000000
70000000
20000000
ENDCHAR
STARTCHAR 2F2B
ENCODING 12075
SWIDTH 900 0
DWIDTH 45 0
BBX 32 37 7 -1
BITMAP
0C1FFFFE
0E3FFFFE
0E0FFFFF
0E000007
0E000007
0E000007
0E000007
0E000007
0E000007
0E000007
0E000007
0E000007
0E0FFFFF
0E3FFFFF
0E1FFFFE
0E000000
0E000000
0C000000
0C000000
1C000000
1C000000
1C000000
1C000000
1C000000
18000000
38000000
38000000
38000000
38000000
30000000
70000000
70000000
60000000
60000000
E0000000
C0000000
C0000000
ENDCHAR
STARTCHAR 2F2C
ENCODING 12076
SWIDTH 900 0
DWIDTH 45 0
BBX 29 44 8 -3
BITMAP
000C0000
000E0000
000E0000
000E0000
000E0000
000E0000
000E0000
000E0000
000E0000
000E0000
C00E0018
E00E0038
E00E0038
E00E0038
E00E0038
E00E0038
E00E0038
E00E0038
E00E0038
E00E0038
E00E0038
E00E0038
E00E0038
E00E0038
E00E0038
E00E0038
FFFFFFF8
FFFFFFF8
3FFFFFE0
000E0000
000E0000
000E0000
000E0000
000E0000
000E0000
000E0000
000E0000
000E0000
000E0000
000E0000
000E0000
000E0000
000E0000
000C0000
ENDCHAR
STARTCHAR 2F2D
ENCODING 12077
SWIDTH 900 0
DWIDTH 45 0
BBX 31 38 7 1
BITMAP
00030000
00070000
00070000
00070000
00070000
00070000
00070000
00070000
00070000
00070000
00070000
00070000
C0070006
E007000E
E007000E
E007000E
E007000E
E007000E
E007000E
E007000E
E007000E
E007000E
E007000E
E007000E
E007000E
E007000E
E007000E
E007000E
E007000E
E003000E
E000000E
E000000E
E000000E
E000000E
E000000E
FFFFFFFE
FFFFFFFE
7FFFFFFC
ENDCHAR
STARTCHAR 2F2E
ENCODING 12078
SWIDTH 900 0
DWIDTH 45 0
BBX 31 36 7 -1
BITMAP
02000006
07000006
0700600E
0600E00E
0E00E00C
0E00C01C
0C01C01C
1C01C01C
1C018038
18038038
38038038
38070070
30070070
70070070
700E00E0
600E00E0
E00E00E0
E01C01C0
C01C01C0
E01C01C0
E00C00C0
E00E00E0
700E00E0
70060060
30070070
38070070
38038030
18038038
1C018038
1C01C018
0C01C01C
0E00E01C
0E00E00C
0600E00E
0700600E
07000006
ENDCHAR
STARTCHAR 2F2F
ENCODING 12079
SWIDTH 900 0
DWIDTH 45 0
BBX 33 33 6 1
BITMAP
0FFFFFFC00
0FFFFFFE00
07FFFFFC00
0000000000
0000000000
0000000000
0000000000
0000C00000
0001C00000
0001C00000
0001C00000
0001C00000
0001C00000
0001C00000
0001C00000
0001C00000
0001C00000
0001C00000
0001C00000
0001C00000
0001C00000
0001C00000
0001C00000
0001C00000
0001C00000
0000C00000
0000000000
0000000000
0000000000
0000000000
7FFFFFFF00
FFFFFFFF80
FFFFFFFF80
ENDCHAR
STARTCHAR 2F30
ENCODING 12080
SWIDTH 900 0
DWIDTH 45 0
BBX 31 39 7 -2
BITMAP
FFFFFF00
FFFFFF00
7FFFFF80
00000380
00000380
00000380
00000380
00000380
00000380
00000380
00000380
00000380
00000380
00000380
00000380
00000380
1FFFFF80
3FFFFF00
3FFFFE00
38000000
38000000
38000000
38000000
38000000
38000000
38000000
38000000
38000000
38000000
38000000
38000000
38000000
38000010
38000018
38000018
3800001C
3FFFFFFC
3FFFFFFE
1FFFFFFC
ENDCHAR
STARTCHAR 2F31
ENCODING 12081
SWIDTH 900 0
DWIDTH 45 0
BBX 31 45 7 -4
BITMAP
00018000
00038000
00038000
00038000
00038000
00038000
00038000
00038000
00038000
00038000
00038000
C7FFFFFC
E7FFFFFE
E3FFFFFE
E003800E
E003800E
E003800E
E003800E
E003800E
E003800E
E003800E
E003800E
E003800E
E003800E
E003800E
E003800E
E003800E
E003800E
E003800E
E003800E
E003807E
E003803E
C003801E
00038000
00038000
00038000
00038000
00038000
00038000
00038000
00038000
00038000
00038000
00038000
00018000
ENDCHAR
STARTCHAR 2F32
ENCODING 12082
SWIDTH 880 0
DWIDTH 44 0
BBX 34 42 5 -4
BITMAP
03FFFFF800
07FFFFFC00
07FFFFFC00
0000000000
0000000000
0000000000
0000000000
0000000000
0000C00000
0000E00000
0000E00000
0000E00000
0000E00000
0000E00000
0000E00000
0000E00000
FFFFFFFFC0
FFFFFFFFC0
7FFFFFFF80
0000E00000
0000E00000
0000E00000
0000E00000
0000E00000
0000E00000
0000E00000
0000E00000
0000E00000
0000E00000
0000E00000
0000E00000
0000E00000
0000E00000
0000E00000
0000E00000
0000E00000
0000E00000
0000E00000
0000E00000
0000E00000
0000E00000
0000C00000
ENDCHAR
STARTCHAR 2F33
ENCODING 12083
SWIDTH 900 0
DWIDTH 45 0
BBX 33 41 6 0
BITMAP
00C0000000
01C0000000
01C0000000
03C0000000
0380000000
0780000000
0700000000
0F00000000
0E00000000
0E00000000
1C00000000
1C00030000
3800070000
38000F0000
70001E0000
70001C0000
FFFC3C0000
FFFC780000
FFF0700000
7E00F00000
0001E00000
0001C00000
0003800000
0007800000
0007000000
000E000000
001E000000
001C000000
0038000000
0078000000
0070007000
00E0007800
01E0003800
03C0001C00
0380000E00
0780000700
0F003F8380
0F1FFF0180
1FFFFC0000
1FFF800000
0FC0000000
ENDCHAR
STARTCHAR 2F34
ENCODING 12084
SWIDTH 900 0
DWIDTH 45 0
BBX 33 44 6 -4
BITMAP
0000600000
0000700000
0000700000
0000600000
0000200000
0000000000
0000000000
07FFFFFF00
0FFFFFFF80
0FFFFFFF80
0000000000
0000000000
0000000000
0600000000
0E00000000
0E00000000
0E00000000
0E00000000
0E00000000
0E00000000
0E00000000
0E00000000
0E00000000
0E00000000
0E00000000
0C00000000
0C00000000
0C00000000
1C00000000
1C00000000
1C00000000
1800000000
1800000000
3800000000
3800000000
3800000000
3000000000
7000000000
7000000000
6000000000
6000000000
E000000000
C000000000
C000000000
ENDCHAR
STARTCHAR 2F35
ENCODING 12085
SWIDTH 900 0
DWIDTH 45 0
BBX 36 37 5 -4
BITMAP
FFC0000000
FFC0000000
7FC0000000
01C0000000
03C0000000
0380000000
0380000000
0700000000
0700000000
0E00000000
0E00000000
1C00000000
3800000000
3FE0000000
3FF0000000
1FF0000000
00E0000000
00E0000000
00E0000000
01E0000000
C1C0000000
E1C0000000
E3C0000000
7380000000
7380000000
3F80000000
3F00000000
1F00000000
1E00000000
1F00000000
1FE0000000
3DFFFFFFE0
38FFFFFFF0
701FFFFFF0
F000000000
E000000000
C000000000
ENDCHAR
STARTCHAR 2F36
ENCODING 12086
SWIDTH 880 0
DWIDTH 44 0
BBX 32 40 6 -2
BITMAP
00600000
00700000
00700300
00700700
00700700
00700700
00600700
00600700
00600700
00E00700
00E00700
00E00700
00E00700
00E00700
00E00700
FFFFFFFF
FFFFFFFF
7FFFFFFE
01C00700
01C00700
01C00700
01C00700
01800700
01800700
03800700
03800700
03800700
03000700
03000700
07000700
07000700
06000700
06000700
0E000700
0E000300
0C000000
1C000000
1C000000
18000000
10000000
ENDCHAR
STARTCHAR 2F37
ENCODING 12087
SWIDTH 900 0
DWIDTH 45 0
BBX 33 45 6 -4
BITMAP
000C000000
000E000000
000E000000
000E01C000
000E01E000
000E00E000
000E006000
000E000000
000E000000
0006000000
0007000000
0007000000
0007003F80
00071FFF80
000FFFFE00
07FFFF0000
FFFF800000
FFC3800000
E003800000
0003C00000
0001C00000
0001C00000
0001E00000
0000E00000
0000E00000
0000F00000
0000F00000
0000700000
0000780000
0000380000
00003C0000
00003C0000
00001E0000
00001E0000
00000F0000
00000F0000
0000078000
000003C000
000003C000
000001E000
000000F200
000000FE00
0000007E00
0000003E00
0000000C00
ENDCHAR
STARTCHAR 2F38
ENCODING 12088
SWIDTH 900 0
DWIDTH 45 0
BBX 27 40 9 -3
BITMAP
7FFFFF00
FFFFFF80
3FFFFF80
00000380
00000380
00000380
00000380
00000380
00000380
00000380
00000380
1FFFFF80
7FFFFF80
7FFFFF00
70000000
70000000
70000000
70000000
70000000
70000000
70000000
70000000
7FFFFF80
7FFFFFC0
3FFFFFE0
000000E0
000000E0
000000E0
000000E0
000000E0
000000E0
000000E0
000000E0
000000E0
000000E0
000000E0
000000E0
00000FE0
000007E0
000001C0
ENDCHAR
STARTCHAR 2F39
ENCODING 12089
SWIDTH 900 0
DWIDTH 45 0
BBX 29 35 8 0
BITMAP
7FFFFFF0
FFFFFFF0
3FFFFFF8
00000038
00000038
00000038
00000038
00000038
00000038
00000038
00000038
00000038
00000038
00000038
00000038
00000038
0FFFF838
0FFFF838
07FFF038
00000038
00000038
00000038
00000038
00000038
00000038
00000038
00000038
00000038
00000038
00000038
00000038
00000038
7FFFFFF8
FFFFFFF0
3FFFFFE0
ENDCHAR
STARTCHAR 2F3A
ENCODING 12090
SWIDTH 900 0
DWIDTH 45 0
BBX 25 37 10 2
BITMAP
00001000
00007800
0001F800
0003F000
000FC000
001F8000
007E0000
00FC0000
03F00000
07C00000
1F000000
3C000000
30000000
00000000
00000000
00000000
00001F80
0001FF80
001FFE00
00FFF000
07FF0000
0FE00000
00000000
00000000
00000000
00000000
00000000
00000000
00000100
00001F80
0000FF80
000FFE00
007FF000
03FF8000
1FF80000
7F800000
F8000000
ENDCHAR
STARTCHAR 2F3B
ENCODING 12091
SWIDTH 900 0
DWIDTH 45 0
BBX 11 38 7 1
BITMAP
0180
03C0
0780
0F00
0F00
1E00
3C00
3800
6000
0000
0000
0000
0040
01E0
03E0
0FC0
1F00
7E00
F800
C000
0000
0600
0700
0700
0700
0700
0700
0700
0700
0700
0700
0700
0700
0700
0700
0700
0700
0600
ENDCHAR
STARTCHAR 2F3C
ENCODING 12092
SWIDTH 900 0
DWIDTH 45 0
BBX 36 34 5 2
BITMAP
0000300000
0000380000
00001C0000
00000E0000
0000060000
0000000000
000C000000
000E000000
000E000000
000E000000
000E000000
000E000000
000E000000
000E000180
000E0001C0
0C0E0000E0
0E0E000070
1C0E000030
3C0E000000
780E000000
700E000000
E00E000000
C00E000000
000E000000
000E000000
000E000000
000E000000
000E002000
000E003000
000E003000
000E003800
000FFFF800
000FFFF800
0007FFF800
ENDCHAR
STARTCHAR 2F3D
ENCODING 12093
SWIDTH 900 0
DWIDTH 45 0
BBX 32 41 6 0
BITMAP
00060000
00070000
00070000
00070600
00070700
00070380
00070180
00070000
00070000
00030000
00038000
00038000
0003801F
00038FFF
0007FFFC
03FFFE00
7FFFC000
FFC1C000
6000C000
0000E003
0000E00F
0000601E
0000703C
000070F8
000071F0
00003FE0
00003F80
00003F00
0000FC00
0003FE00
000FEE00
003F8F00
00FE0700
03F00780
1FC00380
3E0001C0
100001E4
000000FC
0000007C
0000003C
0000001C
ENDCHAR
STARTCHAR 2F3F
ENCODING 12095
SWIDTH 900 0
DWIDTH 45 0
BBX 33 41 6 -3
BITMAP
00007FF800
003FFFF800
07FFFFF000
0FFFFE0000
0000000000
0000000000
0000000000
0000C00000
0001C00000
0001C00000
0001C00000
0001C00000
0001C00000
00FFFF0000
00FFFF0000
007FFE0000
0001C00000
0001C00000
0001C00000
0001C00000
0001C00000
0001C00000
7FFFFFFF00
FFFFFFFF80
FFFFFFFF80
0001C00000
0001C00000
0001C00000
0001C00000
0001C00000
0001C00000
0001C00000
0001C00000
0001C00000
0001C00000
0001C00000
0001C00000
0001C00000
001FC00000
000FC00000
0003C00000
ENDCHAR
STARTCHAR 2F40
ENCODING 12096
SWIDTH 920 0
DWIDTH 46 0
BBX 30 44 8 -3
BITMAP
00030000
00070000
00070000
00070000
00070000
00070000
00070000
7FFFFFF8
FFFFFFFC
FFFFFFFC
00070000
00070000
00070000
00070000
00070000
00030000
00000000
00000000
07FFF800
0FFFFE00
0FFFFF00
00000700
00000E00
00000E00
00001C00
00001C00
00003800
00C07800
01F0F000
00FEE000
003FC000
000FE000
0007FC00
000F7F00
001E0FC0
003C0080
00780000
00F00000
01E00000
07C00000
0F800000
3E000000
7C000000
70000000
ENDCHAR
STARTCHAR 2F41
ENCODING 12097
SWIDTH 900 0
DWIDTH 45 0
BBX 27 44 9 -3
BITMAP
00180000
001C0000
001C0000
001C0000
001C0000
001C0000
001C0000
001CFFE0
001CFFE0
001C7FC0
001C0000
001C0000
001C0000
001C0000
001C0000
00180000
00000000
00000000
1FFFF800
3FFFFC00
3FFFFE00
00000E00
00001C00
00001C00
00003800
00003800
00007000
03C0F000
03F0E000
01FDC000
007F8000
000FE000
000FF800
001E7E00
003C0F00
00780000
00F00000
01E00000
03C00000
0F800000
1E000000
7C000000
F0000000
E0000000
ENDCHAR
STARTCHAR 2F42
ENCODING 12098
SWIDTH 880 0
DWIDTH 44 0
BBX 30 42 7 -4
BITMAP
00018000
00038000
00038000
00038000
00018000
00010000
00000000
00000000
7FFFFFF8
FFFFFFFC
FFFFFFFC
00000000
00000000
00000000
00000800
00001800
00003800
00003800
00007000
00007000
0080F000
01E0E000
00F1E000
007DC000
003F8000
000F8000
0007C000
000FE000
001EF800
001C3C00
003C1F00
00780780
00F003C0
01E000F0
01C00038
03800010
07000000
0F000000
1E000000
38000000
70000000
60000000
ENDCHAR
STARTCHAR 2F43
ENCODING 12099
SWIDTH 900 0
DWIDTH 45 0
BBX 32 41 6 -2
BITMAP
00001800
00001C00
00001C00
00001C00
00001C00
00001C00
00001C00
00301C00
00301C00
00381C00
00381C00
00181C00
00001C00
00001C00
08001C00
1E001C00
1F001C00
07001C00
00001C00
00001C00
00001C00
00001C00
00001DFF
000FFFFF
3FFFFFFC
FFFFFC00
FF801C00
00001C00
00001C00
00001C00
00001C00
00001C00
00001C00
00001C00
00001C00
00001C00
00001C00
00001C00
00001C00
00001C00
00001800
ENDCHAR
STARTCHAR 2F44
ENCODING 12100
SWIDTH 900 0
DWIDTH 45 0
BBX 32 41 6 -2
BITMAP
00000FE0
0001FFE0
003FFF80
007FE000
00000000
00000000
07000000
07000000
07000000
07000000
07000000
07000000
06000000
06000000
06000000
06000000
0E000000
0E1FFFFF
0E1FFFFF
0E0FFFFE
0E000000
0C000000
0C000000
1C000600
1C000700
1C000700
18000700
38000700
38000700
38000700
30000700
70000700
60000700
E0000700
E0000700
C0000700
00000700
00000700
00000700
00000700
00000600
ENDCHAR
STARTCHAR 2F45
ENCODING 12101
SWIDTH 900 0
DWIDTH 45 0
BBX 33 44 6 -4
BITMAP
0001800000
0001C00000
0001C00000
0001800000
0000800000
0000000000
0000000000
0000000000
FFFFFFFF80
FFFFFFFF80
7FFFFFFF00
0000000000
0000000000
0000000000
0070000000
0070000000
0070000000
0070000000
0070000000
0060000000
0060FF8000
00E1FFC000
00E1FFE000
00E000E000
00E000E000
00C000E000
01C000E000
01C000E000
01C000E000
01C000E000
018000E000
038000E000
038000E000
030000E000
070000E000
070000E000
060000E000
0E000FE000
0E0007E000
0C0001C000
1C00000000
1800000000
3800000000
1000000000
ENDCHAR
STARTCHAR 2F46
ENCODING 12102
SWIDTH 900 0
DWIDTH 45 0
BBX 35 42 5 -5
BITMAP
07FFFFF800
07FFFFF800
03FFFFF000
0000000000
0000000000
0000800000
0001800000
0001800000
0003800000
0003800000
0003800000
0003000000
0003000000
0007000000
0007000000
0007000000
FFFFFFFF80
FFFFFFFF80
7FFFFFFF00
000C000000
001C000000
001C000000
0018000000
00381C0000
00381C0000
00701C0000
00701C0000
00701C0000
00E01C0000
00E01C0000
01C01C0000
01C01C0080
03801C0080
03801C00C0
07001C00C0
0F001FFFE0
0E001FFFE0
1C000FFFE0
1C00000000
3800000000
3000000000
2000000000
ENDCHAR
STARTCHAR 2F47
ENCODING 12103
SWIDTH 900 0
DWIDTH 45 0
BBX 26 36 10 0
BITMAP
7FFFFF80
FFFFFF80
FFFFFFC0
E00001C0
E00001C0
E00001C0
E00001C0
E00001C0
E00001C0
E00001C0
E00001C0
E00001C0
E00001C0
E00001C0
E00001C0
E00001C0
E0FF81C0
E1FFC1C0
E1FFC1C0
E00001C0
E00001C0
E00001C0
E00001C0
E00001C0
E00001C0
E00001C0
E00001C0
E00001C0
E00001C0
E00001C0
E00001C0
E00001C0
E00001C0
FFFFFFC0
FFFFFF80
7FFFFF80
ENDCHAR
STARTCHAR 2F48
ENCODING 12104
SWIDTH 900 0
DWIDTH 45 0
BBX 26 35 9 0
BITMAP
3FFFFF00
FFFFFFC0
FFFFFFC0
E00001C0
E00001C0
E00001C0
E00001C0
E00001C0
E00001C0
E00001C0
E00001C0
E00001C0
E00001C0
E00001C0
E00001C0
E00001C0
FFFF81C0
FFFFC1C0
FFFF81C0
E00001C0
E00001C0
E00001C0
E00001C0
E00001C0
E00001C0
E00001C0
E00001C0
E00001C0
E00001C0
E00001C0
E00001C0
E00001C0
FFFFFFC0
FFFFFFC0
7FFFFF80
ENDCHAR
STARTCHAR 2F49
ENCODING 12105
SWIDTH 920 0
DWIDTH 46 0
BBX 30 40 8 -4
BITMAP
0307FFF8
0387FFF8
0383FFFC
0380001C
0380001C
0380001C
0380001C
0380001C
0380001C
0380001C
0387F81C
038FFC1C
038FFC1C
0380001C
0380001C
0380001C
0380001C
0300001C
0300001C
0300001C
0703FC1C
0707FE1C
0707FE1C
0700001C
0700001C
0600001C
0E00001C
0E00001C
0E00001C
0C00001C
1C00001C
1C0001FC
1C0000FC
38000038
38000000
38000000
70000000
70000000
E0000000
E0000000
ENDCHAR
STARTCHAR 2F4A
ENCODING 12106
SWIDTH 900 0
DWIDTH 45 0
BBX 31 41 7 -3
BITMAP
00030000
00038000
00038000
00038000
00038000
00038000
00038000
00038000
00038000
00038000
00038000
FFFFFFFE
FFFFFFFE
7FFFFFFC
00038000
00038000
00038000
00038000
00038000
00038000
00038000
00038000
00038000
00038100
0C0381C0
1C0381F0
3C0380FC
3803803E
70038002
E0038000
C0038000
80038000
00038000
00038000
00038000
00038000
00038000
00038000
00038000
00038000
00030000
ENDCHAR
STARTCHAR 2F4B
ENCODING 12107
SWIDTH 920 0
DWIDTH 46 0
BBX 28 41 9 -3
BITMAP
02000000
07000000
07000000
0E000000
0E000000
1C000000
3C000000
38000000
7000FFC0
7001FFE0
E001FFE0
C00000E0
800000C0
000001C0
000001C0
00000180
00000380
00000100
00000000
00060000
00060000
000E0000
000E0000
001C0000
001C0000
00380000
00380000
00300000
00700000
00E00000
00E00000
01C00000
01C00600
03800F80
07000FE0
060003F0
0E000000
1C000000
38000000
70000000
60000000
ENDCHAR
STARTCHAR 2F4C
ENCODING 12108
SWIDTH 900 0
DWIDTH 45 0
BBX 35 39 5 -1
BITMAP
0000300000
0000380000
0000380000
0000380000
0000380000
0000380000
0000380000
0000380000
0000380000
0000380000
0000380000
0180380000
0380380000
0380380000
0380380000
0380380000
038038FC00
038039FE00
038039FE00
0380380000
0380380000
0380380000
0380380000
0380380000
0380380000
0380380000
0380380000
0380380000
0380380000
0380380000
0380380000
0380380000
0380380000
0180300000
0000000000
0000000000
7FFFFFFFC0
FFFFFFFFE0
FFFFFFFFE0
ENDCHAR
STARTCHAR 2F4D
ENCODING 12109
SWIDTH 900 0
DWIDTH 45 0
BBX 33 42 6 -4
BITMAP
7FFFFFFF00
FFFFFFFF80
FFFFFFFF80
0000000000
0000000000
0000000000
0010000000
0038000000
0078000000
00F0000000
00E0000000
01E0000000
03C0000000
0380FFE000
0701FFF000
0F01FFF000
0C00007000
080000F000
000000E000
000001E000
000001C000
003003C000
0078078000
003C070000
001C0F0000
00001E0000
00001C0000
00003C0000
0000780000
0000F00000
0001E00000
0003C00000
0007800000
000F000000
003E000000
007C000000
00F0000000
03E0000000
0FC0000000
1F00000000
3C00000000
3000000000
ENDCHAR
STARTCHAR 2F4E
ENCODING 12110
SWIDTH 920 0
DWIDTH 46 0
BBX 29 45 8 -4
BITMAP
007FFC00
007FFC00
003FFE00
00000E00
00000E00
03800E00
03800E00
03800E00
03800E00
07000E00
07000E00
07000E00
06000E00
0E000FF8
0E000FF8
0C0003F0
1C000000
18000000
10000000
00000000
03FFFE00
07FFFF80
07FFFF80
00000780
00000700
00000F00
00000E00
00001E00
01803C00
01F03800
01FE7000
003FF000
000FF800
0003FE00
0007BFC0
000F03F0
003E0078
007C0000
00F00000
03E00000
07800000
1F000000
7C000000
F0000000
40000000
ENDCHAR
STARTCHAR 2F4F
ENCODING 12111
SWIDTH 900 0
DWIDTH 45 0
BBX 35 42 5 -5
BITMAP
00FFFFE000
03FFFFF800
03FFFFF800
0380003800
0380003800
0380003800
0380003800
0380603800
0380703800
0380703800
0380703800
0380703800
0380703800
0380703800
7FFFFFFFC0
FFFFFFFFE0
FFFFFFFFE0
0380E03800
0380E03800
0380E03800
0380C03800
0381C03800
0381C03800
0381C03800
0381803800
0383803800
0383803800
0383003800
03FFFFFF80
03FFFFFFC0
01FFFFFFC0
000E003800
001C003800
001C003800
0038003800
0070003800
00F0003800
00E001F800
01C000F800
0380007800
0700000000
0600000000
ENDCHAR
STARTCHAR 2F50
ENCODING 12112
SWIDTH 900 0
DWIDTH 45 0
BBX 32 36 6 0
BITMAP
00006000
C0007000
E0007000
E0007000
E0007000
E0007000
E0007000
E0007000
E0007000
E0007000
E0007000
E000701C
E000707C
E3F070F8
E7F871F0
E7F87180
E0007000
E0007000
E0007000
E0007000
E0007000
E0007000
E0007000
E0007000
E0007000
E0007000
E0007000
E0007000
E0007000
E0007004
E0007006
E0007006
FFE07007
FFC07FFF
FF007FFF
7C001FFE
ENDCHAR
STARTCHAR 2F51
ENCODING 12113
SWIDTH 880 0
DWIDTH 44 0
BBX 34 41 5 -1
BITMAP
0000001000
00001FF800
0007FFF800
01FFFF8000
3FFFC00000
3F80000000
0000000000
0000000000
0000000000
0003000000
0003800000
0003800000
0003800000
0003800000
0003800000
0FFFFFF000
0FFFFFF000
07FFFFE000
0003800000
0003800000
0003800000
0003800000
0003800000
0003800700
000383FF00
0003FFFF00
00FFFFE000
7FFFF00000
FFF3800000
F803800000
0003800000
0003800000
0003800000
0003800000
0003800100
0003800180
0003800180
0003800180
0003FFFFC0
0003FFFFC0
0001FFFFC0
ENDCHAR
STARTCHAR 2F52
ENCODING 12114
SWIDTH 900 0
DWIDTH 45 0
BBX 29 45 8 -4
BITMAP
00003F80
003FFF80
0FFFFE00
1FFF0000
00000000
00000000
00000000
00000000
00000000
E000C000
E001C000
E001C000
E001C000
E001C000
E001C000
E001C000
E001E000
E000E000
E1FFFFE0
E3FFFFF0
E3FFFFF0
E000E000
E0006000
E0007000
E0007000
E0007000
E0007000
E0003800
E0003800
E0003800
E0001C00
E0001C00
E0001C00
E0000E00
E0000E00
E0000E00
E0000700
E0000700
FE000380
FC000398
F80001F8
600001F8
000000F8
000000F0
00000060
ENDCHAR
STARTCHAR 2F53
ENCODING 12115
SWIDTH 900 0
DWIDTH 45 0
BBX 35 45 5 -3
BITMAP
0180000000
0380000000
0780000000
0700000000
0F00000000
1E1FFFFF00
1E1FFFFF00
3C0FFFFE00
3800000000
7800000000
7000000000
E000000000
C000000000
00FFFFE000
00FFFFE000
007FFFC000
0000000000
0000000000
0000000000
0000000000
0FFFFFF000
1FFFFFF000
07FFFFF800
0000003800
0000003800
0000003800
0000003800
0000003800
0000003800
0000003800
0000003800
0000003800
0000003800
0000003800
0000001800
0000001C00
0000001C00
0000001C00
0000000E00
0000000E20
0000000F60
00000007E0
00000003E0
00000003C0
0000000080
ENDCHAR
STARTCHAR 2F54
ENCODING 12116
SWIDTH 880 0
DWIDTH 44 0
BBX 36 39 4 -2
BITMAP
0000600000
0000700000
0000700000
0000700000
0000700000
0000700000
0000700000
0000700000
0000700000
0000700000
0000700000
0000700600
0000700E00
1FE0701C00
3FF8703800
3FF8700000
0038700000
0038700000
0070700000
0070700000
00E0700000
00E070E000
01C070F800
01C0707C00
0380703F00
0700701F80
0F007007C0
0E007001E0
1C00700070
3800700000
7000700000
E000700000
C000700000
0000700000
0000700000
0000700000
0007F00000
0003F00000
0000E00000
ENDCHAR
STARTCHAR 2F55
ENCODING 12117
SWIDTH 920 0
DWIDTH 46 0
BBX 28 41 9 -2
BITMAP
00020000
00070000
00070000
00060000
00060000
000E0000
000E0000
000E0000
000E0000
000E0000
000C0000
001C00C0
001C01C0
C01C03C0
E01C0780
F01C0700
38180400
00380000
00380000
00380000
00300000
00700000
00700000
00700000
00E00000
00E00000
00E00000
00C00000
01C00000
01C01C00
03803F80
03801FE0
030003F0
07000000
06000000
0E000000
0E000000
1C000000
18000000
38000000
30000000
ENDCHAR
STARTCHAR 2F56
ENCODING 12118
SWIDTH 920 0
DWIDTH 46 0
BBX 36 39 5 -2
BITMAP
0000007C00
00001FFC00
0003FFFC00
003FFF8000
003FC00000
0300000000
0380000000
0380000000
0380000000
0380000000
0380006000
038000E000
038000F000
0300607000
0300E07000
0300E07800
0300E03800
0700E03800
0700E01C00
0700E01C00
0700E01C00
0700E00E00
0600E00E00
0600E00E00
0E00E00700
0E00E00700
0E00E00700
0C00E00380
1C00E00380
1C00E00180
1C00E001C0
3800E001C0
3800E000C0
3800E000E0
7000600060
7000000060
6000000070
E000000030
C000000000
ENDCHAR
STARTCHAR 2F57
ENCODING 12119
SWIDTH 900 0
DWIDTH 45 0
BBX 31 40 7 -2
BITMAP
00000700
06000780
0E0003E0
0E0001F0
1E000070
3C000038
3800000C
78000000
70000000
E0000000
00000000
00000000
00000800
00001C00
00001800
00003800
00003800
00007000
00E07000
00F8E000
007EE000
001FC000
000FE000
0003F000
0007FC00
000F3F00
000E1FC0
001C07E0
003C01F8
0078003E
00F0000E
01E00000
03C00000
07800000
0F000000
1E000000
3C000000
78000000
E0000000
40000000
ENDCHAR
STARTCHAR 2F58
ENCODING 12120
SWIDTH 900 0
DWIDTH 45 0
BBX 32 46 7 -3
BITMAP
00000380
00000780
00000700
00800F00
01E00E00
01F81E00
007E3C00
003FB800
000FF800
0003F000
0001FC00
0003FF00
00079F80
000F07E0
001E01F0
003C007C
00F8000C
01F00000
03C00000
03000040
000000E0
000001E0
000001C0
000003C0
03800780
03E00700
01F80F00
007E1E00
001FBC00
0007F800
0003F800
0000FE00
0001FF80
0003C7E0
000781F8
000F007C
001E001F
003C0003
00780000
01F00000
03C00000
0F800000
1F000000
7C000000
F0000000
C0000000
ENDCHAR
STARTCHAR 2F59
ENCODING 12121
SWIDTH 900 0
DWIDTH 45 0
BBX 27 43 9 -5
BITMAP
00000060
000000E0
000000E0
030000E0
070000E0
070000E0
070000E0
070000E0
070000E0
070000E0
070000E0
070000E0
07FFF0E0
03FFF8E0
03FFF8E0
000000E0
000000E0
000000E0
000000E0
000000E0
000000E0
000000E0
7FFFF8E0
FFFFFCE0
FFFFFCE0
000000E0
000000E0
00C000E0
01C000E0
01C000E0
01C000E0
01C000E0
018000E0
018000E0
038000E0
038000E0
030000E0
070000E0
070000E0
060000E0
0E0000E0
0C0000E0
0C000060
ENDCHAR
STARTCHAR 2F5A
ENCODING 12122
SWIDTH 900 0
DWIDTH 45 0
BBX 31 44 7 -4
BITMAP
00001800
00001C00
00001C00
0C001C00
0E001C00
0E001C00
0E001C00
0E001C00
0E001C00
0E001C00
0E001C00
0E001C00
0E001800
0E000000
0E000000
0E1FFFFC
0E3FFFFE
0E3FFFFE
0E000000
0E000000
0E000000
0E000000
0C000000
0C000000
0C000000
1C0FFF80
1C3FFFC0
1C1FFFE0
1C0000E0
1C0000E0
180000E0
380000E0
380000E0
380000E0
380000E0
300000E0
700000E0
700000E0
700000E0
600000E0
E00000E0
E00000C0
C0000000
C0000000
ENDCHAR
STARTCHAR 2F5B
ENCODING 12123
SWIDTH 920 0
DWIDTH 46 0
BBX 32 41 7 -4
BITMAP
FFFFFFFF
FFFFFFFF
7FFFFFFE
00000000
00000000
00000C00
00000E00
08000E00
1C000E00
1C000E00
1C000E00
1C000E00
1C000E00
1C000E00
1C000E00
1C000E00
1C000E00
1FFFFFFC
0FFFFFFE
07FFFFF8
00000E00
00000E00
00000E00
00000E00
00000E00
00000E00
03800E00
03800E00
07000E00
0F000E00
1E000E00
1C000E00
3C000E00
78000E00
70000E00
E0000E00
C0000E00
00000E00
0000FE00
00007E00
00001C00
ENDCHAR
STARTCHAR 2F5C
ENCODING 12124
SWIDTH 900 0
DWIDTH 45 0
BBX 35 44 5 -3
BITMAP
0000300000
0000700000
0000700000
0000700000
0000700000
0000700000
0000700000
0000700000
0180700000
0380700000
0380700000
070FFFF000
071FFFF800
0E1FFFF800
0E00700000
1C00700000
1800700000
3000700000
2000700000
0000700000
0000700000
0000700000
0000700000
0000700000
0000700000
7FFFFFFFC0
FFFFFFFFE0
FFFFFFFFE0
0000700000
0000700000
0000700000
0000700000
0000700000
0000700000
0000700000
0000700000
0000700000
0000700000
0000700000
0000700000
0000700000
0000700000
0000700000
0000300000
ENDCHAR
STARTCHAR 2F5D
ENCODING 12125
SWIDTH 900 0
DWIDTH 45 0
BBX 33 40 6 -2
BITMAP
0000C00000
0001C00000
0001C00000
0001C00000
0001C04000
0001C0C000
000380E000
000380E000
000380E000
000380C000
0003804000
0007000000
0007000000
0007000000
0007000000
7FFFFFFF00
FFFFFFFF80
FFFFFFFF80
000E000000
001C000000
001C000000
001C000000
003C000000
0038000000
0038000000
0078000000
0070060000
007007C000
00E007F800
00E001FE00
00E0001F00
01C0000000
01C0000000
0380000000
0380000000
0700000000
0700000000
0E00000000
0C00000000
0C00000000
ENDCHAR
STARTCHAR 2F5E
ENCODING 12126
SWIDTH 880 0
DWIDTH 44 0
BBX 34 43 5 -3
BITMAP
0000C00000
0000E00000
0000E00000
0000C00000
0000400000
0000000000
0000000000
7FFFFFFF80
FFFFFFFFC0
FFFFFFFFC0
0000000000
0000000000
000E000000
001E000000
001C000000
003C000000
0078000000
0070000000
00F0010000
01E0038000
01C0078000
03C00F0000
07800E0000
078F1C0000
0FFF3C0000
07FC780000
0000F00000
0000E00000
0001E00000
0003C00000
0007800000
0007000000
000E000000
001E003000
003C007000
0078003800
0070001C00
00E0000E00
01E0000E00
03C07F8700
03DFFF0380
07FFF80000
07FE000000
ENDCHAR
STARTCHAR 2F5F
ENCODING 12127
SWIDTH 880 0
DWIDTH 44 0
BBX 32 36 6 0
BITMAP
7FFFFFFE
7FFFFFFE
3FFFFFFC
00000000
00000000
00000000
00000000
00018000
0001C000
0001C000
0001C000
0001C000
0001C000
0001C000
0001C000
07FFFFF0
07FFFFF0
03FFFFE0
0001C000
0001C000
0001C000
0001C000
0001C000
0001C000
0001C300
0001C3C0
0001C3E0
0001C0E0
0001C000
00018000
00000000
00000000
00000000
7FFFFFFE
FFFFFFFF
FFFFFFFF
ENDCHAR
STARTCHAR 2F60
ENCODING 12128
SWIDTH 900 0
DWIDTH 45 0
BBX 31 40 7 -1
BITMAP
000000F8
00007FF8
000FFFF8
00FFFF00
01FF8000
00000000
00000000
0C000000
0E000000
0E000000
0E000000
0E0000E0
0E0300E0
0E0700E0
0E0700E0
0E0700E0
0E070070
0E070070
0E060070
0E060070
0E060078
0E0E0038
0C0E0038
0C0E0038
1C0E0038
1C0E0018
1C0E001C
1C0C001C
180C001C
381C000C
381C060C
381C070E
381C070E
701DE386
701FE386
701F8186
E01C0006
E0000002
C0000000
80000000
ENDCHAR
STARTCHAR 2F61
ENCODING 12129
SWIDTH 900 0
DWIDTH 45 0
BBX 33 39 6 -2
BITMAP
7FFFFFFE00
FFFFFFFF00
FFFFFFFF00
0000000000
0000000000
0000000000
0300000000
0380000000
0380000000
0380000000
0380000000
0380000000
0387FE0000
039FFF0000
038FFF8000
0380038000
0380038000
0380038000
0380038000
0380038000
0380038000
0387038000
0387838000
0383C38000
0380C38000
0380038000
0380038000
0380038000
0380038000
0380038000
0380038000
0380038000
0380038200
0380038300
0380038300
03F8038300
03F003FF80
03E003FF80
000001FF80
ENDCHAR
STARTCHAR 2F62
ENCODING 12130
SWIDTH 900 0
DWIDTH 45 0
BBX 35 42 5 -2
BITMAP
00C0006000
00E000E000
00E000E000
00E000E000
00E000E000
00E000E000
00E000E000
00E000E000
00E000E000
00E000E000
FFFFFFFFE0
FFFFFFFFE0
7FFFFFFFC0
00E000E000
00E000E000
00E000E000
00E000E000
00E000E000
00E000E000
00E000E000
00E000E000
00E000E000
00E000E000
00E3F8E000
00E7FCE000
00E7FCE000
00E000E000
00E000E000
00E000E000
00E000E000
00E000E000
00E000E000
00E000E000
00E000E000
00E000E000
00E000E000
00E000E000
00E000E000
00E000E000
00FFFFE000
00FFFFE000
007FFFC000
ENDCHAR
STARTCHAR 2F63
ENCODING 12131
SWIDTH 880 0
DWIDTH 44 0
BBX 32 41 6 -1
BITMAP
0000C000
0000E000
0000E000
0000E000
0000E000
0000E000
0600E000
0E00E000
0E00E000
1E00E000
1C00E000
381FFFF0
383FFFF8
703FFFF8
7000E000
E000E000
C000E000
0000E000
0000E000
0000E000
0000E000
0000E000
0000E000
01FFFFC0
03FFFFE0
03FFFFE0
0000E000
0000E000
0000E000
0000E000
0000E000
0000E000
0000E000
0000E000
0000E000
0000C000
00000000
00000000
3FFFFFFE
7FFFFFFF
7FFFFFFF
ENDCHAR
STARTCHAR 2F64
ENCODING 12132
SWIDTH 880 0
DWIDTH 44 0
BBX 32 41 6 -4
BITMAP
061FFFFE
071FFFFE
0707FFFF
07000007
07000007
07006007
07007007
07007007
07007007
06007007
06007007
0607FF87
060FFFC7
060FFFC7
06007007
06007007
06007007
06007007
06007007
06007007
0E007007
0E07FF87
0C0FFFC7
0C0FFFC7
0C007007
0C007007
1C007007
1C007007
18007007
18007007
18007007
38007007
38007007
30007007
7000603F
7000001F
6000000E
60000000
E0000000
C0000000
40000000
ENDCHAR
STARTCHAR 2F65
ENCODING 12133
SWIDTH 880 0
DWIDTH 44 0
BBX 28 36 8 0
BITMAP
7FFFFFE0
FFFFFFF0
FFFFFFF0
E0000070
E0000070
E0000070
E0000070
E0000070
E0000070
E0060070
E00E0070
E00E0070
E00E0070
E00E0070
E00E0070
E00E0070
E00E0070
E0FFF870
E1FFFC70
E1FFFC70
E00E0070
E00E0070
E00E0070
E00E0070
E00E0070
E00E0070
E0060070
E0000070
E0000070
E0000070
E0000070
E0000070
E0000070
FFFFFFF0
FFFFFFF0
7FFFFFE0
ENDCHAR
STARTCHAR 2F66
ENCODING 12134
SWIDTH 900 0
DWIDTH 45 0
BBX 35 41 5 -3
BITMAP
3FFFFFFF80
3FFFFFFF80
1FFFFFFFC0
00000001C0
00000001C0
00000001C0
00000001C0
00006001C0
00007001C0
0000700180
0000700000
0000700000
0000700000
0000700000
0000700000
0000700000
0000700000
000073FE00
020073FE00
070071FC00
0700700000
0700700000
0F00700000
0E00700000
0E00700000
0E00700000
1E00700000
1C00700000
1C00700000
1CC0700000
38E0700000
38F0600000
3878000000
703C000000
701E000000
700F800000
6007FFFFC0
6001FFFFE0
E0003FFFE0
C000000000
8000000000
ENDCHAR
STARTCHAR 2F67
ENCODING 12135
SWIDTH 920 0
DWIDTH 46 0
BBX 38 45 4 -4
BITMAP
0000018000
000001C000
000001C000
0000018000
0000008000
0000000000
0000000000
007FFFFFFC
007FFFFFFC
003FFFFFF8
0000000000
0000000000
0038000000
0038000000
0038000000
3838000000
1C38000000
0E38000000
0438000000
0038000000
0038000000
0038000000
0030000000
0030000000
0070000000
0070000000
0370000000
0F70000000
3E60000000
F860000000
F0E0000000
40E0000000
00E0000000
00C0000000
01C0000000
01C0000000
01C0000000
0180000000
0380000000
0380000000
0300000000
0700000000
0700000000
0600000000
0600000000
ENDCHAR
STARTCHAR 2F69
ENCODING 12137
SWIDTH 900 0
DWIDTH 45 0
BBX 25 42 10 -1
BITMAP
00200000
00700000
00E00000
01C00000
01800000
00000000
00000000
00000000
00000000
3FFFFE00
FFFFFF00
FFFFFF80
E0000380
E0000380
E0000380
E0000380
E0000380
E0000380
E0000380
E0000380
E0000380
E0000380
E0000380
E0000380
E0FF0380
E1FF8380
E1FF8380
E0000380
E0000380
E0000380
E0000380
E0000380
E0000380
E0000380
E0000380
E0000380
E0000380
E0000380
E0000380
FFFFFF80
FFFFFF00
7FFFFF00
ENDCHAR
STARTCHAR 2F6A
ENCODING 12138
SWIDTH 900 0
DWIDTH 45 0
BBX 34 45 5 -5
BITMAP
0000600000
0000700000
0000700000
0000700000
0000700000
0000700000
0000700000
07FFFFF800
0FFFFFFE00
0FFFFFFE00
0000700E00
0000700E00
0000700E00
0C00700E00
0E00700E00
0E00700E00
0E00700E00
0E00600600
0E00000000
0C00000000
0C00000000
0C1FFFC000
0C3FFFE000
0C3FFFF000
1C0000F000
1C0000E000
1C0001E000
1C0001C000
180003C000
1801038000
3803C78000
3803FF0000
3800FE0000
30003F8000
70003FE000
70007BF800
7000F0FE00
6001E01F80
E003C003C0
E007800000
001F000000
003E000000
00F8000000
01F0000000
01C0000000
ENDCHAR
STARTCHAR 2F6B
ENCODING 12139
SWIDTH 900 0
DWIDTH 45 0
BBX 37 29 4 5
BITMAP
03FFFFFC00
07FFFFFE00
07FFFFFE00
0700000E00
0700000E00
0700000E00
0700000E00
07060C0E00
07070E0E00
07070E0E00
07070E0E00
07070E0E00
07070E0E00
07070E0E00
07070E0E00
07070E0E00
07070E0E00
07070E0E00
07070E0E00
07070E0E00
07070E0E00
07060C0E00
0700000E00
0700000E00
0600000600
0000000000
7FFFFFFFF0
FFFFFFFFF8
FFFFFFFFF8
ENDCHAR
STARTCHAR 2F6C
ENCODING 12140
SWIDTH 900 0
DWIDTH 45 0
BBX 24 36 11 0
BITMAP
7FFFFE
FFFFFE
FFFFFF
E00007
E00007
E00007
E00007
E00007
E00007
E00007
E00007
E1FE07
E3FF07
E3FF07
E00007
E00007
E00007
E00007
E00007
E00007
E00007
E00007
E1FF87
E1FF87
E0FF07
E00007
E00007
E00007
E00007
E00007
E00007
E00007
E00007
FFFFFF
FFFFFF
7FFFFE
ENDCHAR
STARTCHAR 2F6D
ENCODING 12141
SWIDTH 900 0
DWIDTH 45 0
BBX 29 42 8 -4
BITMAP
03FFFC00
07FFFF00
07FFFF00
00000E00
00000E00
00001C00
00001C00
00001800
00003800
00383000
003E0000
001F0000
00078000
00018000
00000000
00000000
7FFFFFE0
FFFFFFF8
FFFFFFF8
00000038
00000038
00000038
00018038
0001C038
0001C038
0301C000
0701C000
0F01C000
0E01C000
1E01C000
3C01C000
3801C000
7001C000
E001C000
C001C000
8001C000
0001C000
0001C000
0001C000
001FC000
000FC000
00078000
ENDCHAR
STARTCHAR 2F6E
ENCODING 12142
SWIDTH 900 0
DWIDTH 45 0
BBX 33 43 6 -3
BITMAP
00C0000000
00E0000000
01C0000000
03C0000000
0380000000
0780000000
0707FFF800
0F07FFF800
0E03FFF000
0C00000000
1800000000
0000000000
0000600000
0000E00000
0000E00000
0000E00000
0000E00000
0001C00000
0001C00000
0001C00000
7FFFFFFF00
FFFFFFFF80
FFFFFFFF80
0007000000
0007000000
0007000000
000E000000
000E000000
001C000000
001C070000
003C0FC000
003807F000
007800F800
0070000000
00E0000000
00E0000000
01C0000000
03C0000000
0780000000
0700000000
0E00000000
0C00000000
0C00000000
ENDCHAR
STARTCHAR 2F6F
ENCODING 12143
SWIDTH 900 0
DWIDTH 45 0
BBX 33 38 6 -2
BITMAP
3FFFFFFF80
3FFFFFFF80
1FFFFFFF00
0000000000
0000000000
000C000000
000C000000
001C000000
001C000000
0038000000
0038000000
0070000000
0070000000
00E0000000
01E0000000
01C0000000
0380000000
0780000000
0F00000000
1E0FFFF000
3C1FFFF800
783FFFFC00
F038001C00
E038001C00
0038001C00
0038001C00
0038001C00
0038001C00
0038001C00
0038001C00
0038001C00
0038001C00
0038001C00
0038001C00
0038001C00
003FFFFC00
003FFFF800
001FFFF800
ENDCHAR
STARTCHAR 2F70
ENCODING 12144
SWIDTH 920 0
DWIDTH 46 0
BBX 34 39 6 -4
BITMAP
07FFFFE000
07FFFFE000
03FFFFC000
0000000000
0000000000
0000000000
0000000000
0000000000
0000000000
0000000000
0000000000
0000000000
0000000000
FFFFFFFF80
FFFFFFFF80
7FFFFFFF00
0000000000
0000000000
0000000000
0000C00000
0000E00000
0000E00000
0000E00000
0000E00000
0000E00000
0000E01800
0C00E03E00
0E00E03F80
1C00E00FC0
3C00E001C0
3800E00000
7000E00000
6000E00000
4000E00000
0000E00000
0000E00000
000FE00000
0007E00000
0001C00000
ENDCHAR
STARTCHAR 2F72
ENCODING 12146
SWIDTH 900 0
DWIDTH 45 0
BBX 32 38 6 0
BITMAP
000007E0
0001FFE0
007FFFC0
07FFF000
0FE00000
00000000
00000000
00000000
00018000
00038000
00038000
00038000
00038000
00038000
00038000
00038000
FFFFFFFF
FFFFFFFF
7FFFFFFE
00038000
00038000
00038000
00038000
00038080
000381E0
070381F0
0F8380F8
3F03803C
7C03801C
F0038000
00038000
00038000
00038000
00038000
00038000
00038000
00038000
00018000
ENDCHAR
STARTCHAR 2F73
ENCODING 12147
SWIDTH 900 0
DWIDTH 45 0
BBX 33 42 6 -2
BITMAP
0001800000
0003800000
0003800000
0003800000
0001800000
0001000000
0000000000
0000000000
C3FFFFFE00
E7FFFFFF00
E3FFFFFF80
E000000380
E000000380
E000000380
E000000380
C000000300
0000000000
0000000000
0010000000
0038000000
0038000000
0030000000
0070040000
00700E0000
00600F0000
00E0078000
00E0078000
00C003C000
01C001E000
01C001E000
038000F000
0380007800
0700003800
0700003C00
0E00001C00
0E00000E00
1C00000600
3800000300
3800000000
7000000000
E000000000
C000000000
ENDCHAR
STARTCHAR 2F74
ENCODING 12148
SWIDTH 900 0
DWIDTH 45 0
BBX 33 37 6 2
BITMAP
0001800000
0001C00000
0001C00000
0001800000
0000800000
0000000000
0000000000
0000000000
0000000000
1FFFFFF800
1FFFFFF800
0FFFFFF000
0000000000
0000000000
0000000000
0000000000
0000000000
0000000000
0000030000
0000070000
0000070000
01800F0000
01C00E0000
01E00C0000
00F00C0000
0078000000
0038000000
000C000000
0000000000
0000000000
0000000000
0000000000
0000000000
0000000000
7FFFFFFF00
FFFFFFFF80
FFFFFFFF80
ENDCHAR
STARTCHAR 2F75
ENCODING 12149
SWIDTH 900 0
DWIDTH 45 0
BBX 37 42 4 -2
BITMAP
0700000000
070000E000
0F0001E000
1E0001C000
1E0003C000
3C00078000
3800070000
70FF8F3FF8
70FF8E3FF8
E07F1C1FF0
8000180000
0000100000
0000000000
0000000000
0060000000
00E0000000
00E0000C00
00E0000E00
00E0000E00
00E0000E00
00E0000E00
00E0000E00
00E0000E00
00E0000E00
00E0000E00
00E0000E00
00E0000E00
00E0000E00
00E0000E00
00E0000E00
00E0000E00
00E0000E00
00E0000E00
00E0000E00
00E0000E00
00E0000E00
00E0000E00
00E0000E00
0060000E00
000000FE00
0000003E00
0000000C00
ENDCHAR
STARTCHAR 2F76
ENCODING 12150
SWIDTH 900 0
DWIDTH 45 0
BBX 31 42 7 -2
BITMAP
00018000
00038000
00038000
00038000
00038000
00038000
00038000
00038060
000380F0
0C0381E0
0E0381C0
0F038180
07038000
00038000
00038000
00038000
00038000
00038000
FFFFFFFE
FFFFFFFE
7FFFFFFC
00038000
00038000
00038000
00038000
00038000
00038000
03038080
070381E0
0F0381F0
1E03807C
1C03803E
38038000
30038000
00038000
00038000
00038000
00038000
00038000
00038000
00038000
00018000
ENDCHAR
STARTCHAR 2F77
ENCODING 12151
SWIDTH 900 0
DWIDTH 45 0
BBX 29 43 8 -2
BITMAP
00C00000
01C00000
03C00000
03800000
07804000
0F00E000
0E01E000
1E03C000
3C038000
38078000
787F0000
7FFE0000
7FFC0000
3F380000
00780000
00F00200
00E00700
01C00700
03800380
078001C0
0F0001C0
0E07FCE0
1FFFF870
1FFFC030
1FF00000
00000000
00020000
00070000
00070000
00070000
00070000
0C070700
1C0707C0
3C0703E0
780701F0
70070078
E0070000
C0070000
00070000
00070000
007F0000
003F0000
000E0000
ENDCHAR
STARTCHAR 2F78
ENCODING 12152
SWIDTH 880 0
DWIDTH 44 0
BBX 34 42 5 0
BITMAP
01C0000000
01C0000000
0380000000
0780000000
0700000000
0F0FFFFC00
0E0FFFFC00
1C07FFF800
1C00000000
3800000000
3000000000
0000000000
0000000000
0000C00000
0000E00000
0000E00000
0000E00000
0000E00000
0000E00000
0000E00000
7FFFFFFF80
FFFFFFFFC0
FFFFFFFFC0
0000E00000
0000E00000
0000E00000
0000E00000
0000E00000
0000E00000
0000E00000
0C00E00C00
0E00E01C00
0E00E01C00
0E00E01C00
0E00C01C00
0E00001C00
0E00001C00
0E00001C00
0E00001C00
0FFFFFFC00
0FFFFFFC00
07FFFFF800
ENDCHAR
STARTCHAR 2F79
ENCODING 12153
SWIDTH 900 0
DWIDTH 45 0
BBX 31 41 7 -4
BITMAP
C7FFFFFC
EFFFFFFC
E7FFFFFE
E000000E
E000000E
E000000E
E000000E
E000000E
E000000E
E000030E
E00C030E
E01C070E
E01C070E
E018070E
E038C60E
E039EE0E
E730FE0E
E7F07C0E
E3F03E0E
E0FC1F0E
E0FE1F8E
E1C73BCE
E1C039EE
E380704E
E780700E
E700E00E
EE00E00E
EC01C00E
E003800E
E001000E
E000000E
E000000E
E000000E
E000000E
E000000E
E000000E
E000000E
E000000E
E00000FE
E000007E
C000001C
ENDCHAR
STARTCHAR 2F7A
ENCODING 12154
SWIDTH 900 0
DWIDTH 45 0
BBX 35 44 5 -3
BITMAP
0000018000
0070038000
0078070000
0038060000
0018040000
0000000000
0000000000
1FFFFFFF00
1FFFFFFF00
0FFFFFFE00
0000000000
0000000000
0000600000
0000E00000
0000E00000
0000E00000
0000E00000
00FFFFC000
01FFFFE000
01FFFFE000
0000E00000
0000E00000
0000E00000
0000E00000
0000E00000
0000E00000
0000E00000
0000E00000
FFFFFFFFE0
FFFFFFFFE0
7FFFFFFFC0
0000E00000
0000E00000
0000E00000
0000E00000
0000E00000
0000E00000
0000E00000
0000E00000
0000E00000
0000E00000
0000E00000
0000E00000
0000600000
ENDCHAR
STARTCHAR 2F7B
ENCODING 12155
SWIDTH 920 0
DWIDTH 46 0
BBX 32 37 7 -1
BITMAP
00003FFE
00003FFF
00001FFF
FFFC0003
FFFC0003
7FFE0003
000E0003
000E0003
000E0003
000E0003
000E0003
000E0003
000E0003
380E1E03
3C0E1F03
1E0E0603
000E0003
000E0003
000E0003
000E0003
000E0003
000E0003
060E01C3
1E0E0783
7C0E1F03
F80E1E03
E00E1803
000E0003
000E0003
000E0003
000E0003
000E0003
000E0007
000E003F
007E001F
003E0007
000C0000
ENDCHAR
STARTCHAR 2F7C
ENCODING 12156
SWIDTH 900 0
DWIDTH 45 0
BBX 35 44 5 -3
BITMAP
0003000000
0003800000
0003800000
0003800000
0003800000
0003800000
0003800000
01FFFF0000
03FFFF8E00
03FFFF9E00
0003803C00
0003807800
000380F000
000381E000
000383C000
0003078000
00000F0000
7FFFFFFFC0
FFFFFFFFE0
FFFFFFFFE0
0003E00000
000FC00000
001F000000
007E000000
01F8000000
03E0000000
0F80000000
7E0800C000
F81C03C000
E01C07C000
001C0F8000
001C3E0000
001C780000
001CE00000
001C000000
001C000000
001C000000
001C001000
001C001800
001C001800
001C001C00
001FFFFC00
001FFFFE00
000FFFFC00
ENDCHAR
STARTCHAR 2F7D
ENCODING 12157
SWIDTH 920 0
DWIDTH 46 0
BBX 32 39 7 -3
BITMAP
7FFFFFFE
FFFFFFFF
FFFFFFFF
00000000
00000000
00030000
00070000
00070000
000E0000
000C0000
00080000
00000000
23FFFFF0
77FFFFFC
73FFFFFC
7000001C
7000001C
7000001C
7000001C
7018301C
7038381C
7038381C
7038381C
7038381C
7038381C
7038381C
7038381C
7038381C
7038381C
7038381C
7038381C
7038381C
7018301C
7000001C
7000001C
7000001C
700000FC
7000007C
6000003C
ENDCHAR
STARTCHAR 2F7E
ENCODING 12158
SWIDTH 880 0
DWIDTH 44 0
BBX 34 45 5 -3
BITMAP
0000C00000
0000E00000
0000E00000
0000E00000
0000E00000
0000E00000
1FFFFFFE00
1FFFFFFE00
0FFFFFFC00
0000E00000
0000E00000
0000E00000
0000E00000
0000E00000
00FFFFC000
00FFFFC000
007FFF8000
0000E00000
0000E00000
0000E00000
0000E00000
0000E00000
FFFFFFFFC0
FFFFFFFFC0
7FFFFFFF80
0000E00000
0000E00000
0000E00000
0000E00000
0000E00000
0000E00000
0000E00000
0380E0E000
0780E0F800
0700E07E00
0F00E01F00
1E00E00780
1C00E00000
3000E00000
0000E00000
0000E00000
0000E00000
0000E00000
0000E00000
0000C00000
ENDCHAR
STARTCHAR 2F7F
ENCODING 12159
SWIDTH 920 0
DWIDTH 46 0
BBX 34 41 6 -3
BITMAP
3FFFFFFF00
7FFFFFFF80
7FFFFFFF80
0000000000
0000000000
00C000C000
01C001C000
01C001C000
01C001C000
01C001C000
01C7E1C000
01CFF1C000
01CFF1C000
01C001C000
01C001C000
01C001C000
01C001C000
01C001C000
01C001C000
01C001C000
01CFF1C000
01CFF1C000
01C7E1C000
01C001C000
01C001C000
01C001C000
01C001C000
00C001C000
000001C000
000001C000
000001FFC0
7FFFFFFFC0
FFFFFFFF80
FFFFFFC000
000001C000
000001C000
000001C000
000001C000
000001C000
000001C000
000000C000
ENDCHAR
STARTCHAR 2F80
ENCODING 12160
SWIDTH 900 0
DWIDTH 45 0
BBX 33 46 6 -4
BITMAP
0001800000
0001C00000
0001C00000
0001C00000
0001C00000
01FFFF8000
03FFFFC000
03FFFFE000
0001C0E000
0001C0E000
0001C0E000
0001C0E000
0001C0E000
FFFFFFFF80
FFFFFFFF80
7FFFFFFF00
0001C0E000
0001C0E000
0001C0E000
0001C0E000
01FFFFE000
03FFFFE000
03FFFFC000
0001C00000
0001C00000
0001C00000
0001C00000
0001C00000
03FFFFF000
03FFFFF000
01FFFFE000
0001C00000
0001C00000
0001C00000
0001C00000
7FFFFFFF00
FFFFFFFF80
FFFFFFFF80
0001C00000
0001C00000
0001C00000
0001C00000
0001C00000
0001C00000
0001C00000
0001800000
ENDCHAR
STARTCHAR 2F81
ENCODING 12161
SWIDTH 900 0
DWIDTH 45 0
BBX 29 44 8 -2
BITMAP
00010000
00038000
00030000
00030000
00070000
00070000
00070000
00060000
47FFFFE0
EFFFFFF0
E7FFFFF8
E01C0038
E01C0038
E0180038
E0380038
E0300038
E070F838
E060FC38
E0E03E38
E1C00038
E1C00038
E3860038
E3070038
E00E0038
E00E0038
E00C0038
E01C0038
E01C0038
E0380038
E070E038
E070F038
E0E0FC38
E1C03E38
E3800738
E3800038
E2000038
E0000038
E0000038
E0000038
E0000038
E0000038
E00003F8
E00001F8
C0000070
ENDCHAR
STARTCHAR 2F82
ENCODING 12162
SWIDTH 900 0
DWIDTH 45 0
BBX 28 39 8 -2
BITMAP
7FFFFFF0
FFFFFFF0
FFFFFFE0
E0070000
E0070000
E0070000
E0070000
E0070000
E0070000
E0070000
E0070000
E0070000
FFFFFF00
FFFFFFC0
FFFFFFC0
E00001C0
E00001C0
E00001C0
E00001C0
E00001C0
E00001C0
E00001C0
E00001C0
E00001C0
FFFFFFC0
FFFFFFC0
FFFFFF00
E0070000
E0070000
E0070000
E0070000
E0070000
E0070000
E0070000
E0070000
E0070000
FFFFFFE0
FFFFFFF0
7FFFFFF0
ENDCHAR
STARTCHAR 2F83
ENCODING 12163
SWIDTH 900 0
DWIDTH 45 0
BBX 26 44 10 -2
BITMAP
00100000
00380000
00780000
00700000
00E00000
00000000
00000000
00000000
00000000
7FFFFF80
FFFFFF80
FFFFFFC0
E00001C0
E00001C0
E00001C0
E00001C0
E00001C0
E00001C0
E00001C0
E00001C0
E0FFC1C0
E0FFC1C0
E07F81C0
E00001C0
E00001C0
E00001C0
E00001C0
E00001C0
E00001C0
E00001C0
E0FFC1C0
E0FFC1C0
E07F81C0
E00001C0
E00001C0
E00001C0
E00001C0
E00001C0
E00001C0
E00001C0
E00001C0
FFFFFFC0
FFFFFF80
7FFFFF80
ENDCHAR
STARTCHAR 2F84
ENCODING 12164
SWIDTH 920 0
DWIDTH 46 0
BBX 36 38 5 -2
BITMAP
3FFFFFFF80
3FFFFFFF80
1FFFFFFF00
0000000000
0000000000
0010000000
0038000000
0070000000
0070010000
00E0038000
01E001C000
01C001E000
03C000F000
0383F87000
07FFF83800
07FFF01C00
03FF000C00
0000000000
0000000000
0000600000
0000E00000
0000E00000
0000E00000
0000E00000
03FFFFF800
03FFFFF800
01FFFFF000
0000E00000
0000E00000
0000E00000
0000E00000
0000E00000
0000E00000
0000600000
0000000000
7FFFFFFFE0
FFFFFFFFF0
FFFFFFFFF0
ENDCHAR
STARTCHAR 2F85
ENCODING 12165
SWIDTH 900 0
DWIDTH 45 0
BBX 30 33 8 2
BITMAP
00E00000
01E00000
07C00000
0F007FF8
CC007FF8
E0003FFC
E000001C
E000001C
E000001C
E000001C
E000001C
E000001C
E000001C
E000001C
E000001C
E000001C
EFF87F9C
EFF87F9C
E7F03F1C
E000001C
E000001C
E000001C
E000001C
E000001C
E000001C
E000001C
E000001C
E000001C
E000001C
E000001C
FFFFFFFC
FFFFFFFC
7FFFFFF8
ENDCHAR
STARTCHAR 2F86
ENCODING 12166
SWIDTH 900 0
DWIDTH 45 0
BBX 33 42 6 -3
BITMAP
000001C000
0000FFE000
003FFFC000
03FFFC0000
07FC000000
0000000000
0000000000
0000000000
0001800000
0001C00000
0001C00000
0001C00000
0001C00000
0001C00000
FFFFFFFF80
FFFFFFFF80
7FFFFFFF00
0001C00000
0001C00000
0001C00000
0001C00000
0001C00000
0001800000
0000000000
0000000000
007FFF0000
01FFFF8000
01FFFFC000
01C001C000
01C001C000
01C001C000
01C001C000
01C001C000
01C001C000
01C001C000
01C001C000
01C001C000
01C001C000
01C001C000
01FFFFC000
01FFFFC000
00FFFF8000
ENDCHAR
STARTCHAR 2F87
ENCODING 12167
SWIDTH 920 0
DWIDTH 46 0
BBX 38 37 4 0
BITMAP
0000001800
0000003800
0000003800
0C00003800
0C00003800
1C00003800
3C00003800
3800003800
7000003800
70003FFFF0
61FC3FFFF0
C7FE1FFFE0
07FE003800
000E003800
001E003800
001C183800
001C383800
003C383800
7838383800
7C38383800
1C70383800
0070383800
00E03FFFF8
00E01FFFFC
01C00FFFF8
01C0003800
0380003800
0380003800
0700003800
0E00003800
1C00003800
1800003800
1000003800
0000003800
0000003800
0000003800
0000001800
ENDCHAR
STARTCHAR 2F88
ENCODING 12168
SWIDTH 880 0
DWIDTH 44 0
BBX 34 43 5 -2
BITMAP
0000E00000
0001E00000
0003C00000
0007800000
0000000000
0000000000
0000000000
0000000000
0003FFC000
00C7FFE000
00E1FFE000
00E000E000
00E000E000
00E000E000
00E000E000
00E1C0E000
00E1C0E000
00E0C0E000
00E040E000
00E000E000
00E000E000
7FFFFFFF80
FFFFFFFFC0
FFFFFFFFC0
01C000E000
01C000E000
01C000E000
01C100E000
01C1C0E000
01C1E0E000
01C040E000
018000E000
018000E000
038000E000
038000E000
038000E000
030007E000
030007E000
070001E000
0700000000
0600000000
0E00000000
0E00000000
ENDCHAR
STARTCHAR 2F89
ENCODING 12169
SWIDTH 900 0
DWIDTH 45 0
BBX 27 41 9 -4
BITMAP
C3FFFC00
E3FFFE00
E1FFFE00
E0000E00
E0000E00
E0000E00
E0000E00
E0000E00
E0FE0E00
E1FF0E00
E1FF0E00
E0000E00
E0000E00
E0000E00
E0000E00
E0000E00
E0000E00
E3FFFE00
E3FFFE00
E0FFF800
E0000000
E0000000
E0000000
E0000000
E0000000
E0000000
E00000C0
E00601C0
E00F03C0
E0078380
E003C000
E003E000
E001F000
E0007800
E0003C00
FE001E00
FC000F00
F0000780
000003C0
000001E0
00000060
ENDCHAR
STARTCHAR 2F8A
ENCODING 12170
SWIDTH 900 0
DWIDTH 45 0
BBX 31 44 7 -2
BITMAP
01800000
03800000
03800000
07000000
0E000000
1E000000
1C07FC00
3807FE00
7003FC00
E0003800
C0007800
8000F000
0000E000
00000000
00000000
00000000
61FFFF80
71FFFF80
70FFFFC0
700001C0
700601C0
700701C0
700701C0
700701C0
700701C0
700601C0
700001C0
70FFFFC0
71FFFFC0
71FFFF80
70000000
70000000
70000000
70000000
70000000
70000000
70000000
70000008
7000000C
7000000C
7000000C
7FFFFFFE
7FFFFFFE
3FFFFFFE
ENDCHAR
STARTCHAR 2F8C
ENCODING 12172
SWIDTH 900 0
DWIDTH 45 0
BBX 35 45 5 -2
BITMAP
0000C00000
0000E00000
0000E00000
0000E00000
0000E1FE00
0000E3FF00
0000E3FF00
0000E00000
0000E00000
0000E00000
0000E00000
0000C00000
0000000000
0000000000
0FFFFFFF00
0FFFFFFF80
07FFFFFF80
0000000380
0C00000380
0E00000380
0E00000380
0E00000380
0E00200000
0E00700000
0C00700000
0C00700000
1C00700000
1C00700000
1C00707C00
1C0077FC00
1800FFE000
180FFE0000
387FF00000
38FE700000
3060700000
3000700000
7000700000
7000700000
6000700000
E0007000C0
E0007000C0
40007000E0
00007FFFE0
00007FFFE0
00003FFFE0
ENDCHAR
STARTCHAR 2F8D
ENCODING 12173
SWIDTH 900 0
DWIDTH 45 0
BBX 34 40 6 -1
BITMAP
0001800000
0001C00000
0001C00000
0001C00000
0001C00000
0001C00000
0001C00000
0001C00000
0001C00000
0001C00000
07FFFFE000
1FFFFFF800
1FFFFFF800
1C01C03800
1C01C03800
1C01C03800
1C01C03800
1C01C03800
1C01C03800
1C01C03800
1C01C03800
1C01C03800
1FFFFFF800
1FFFFFF800
07FFFFE000
0001C00000
0001C00000
0001C00000
0001C00000
0001C00000
0001C00800
0001C01C00
0001801E00
0000000E00
0000000700
00003F8380
00FFFF8180
7FFFF000C0
FFFC000000
FC00000000
ENDCHAR
STARTCHAR 2F8E
ENCODING 12174
SWIDTH 920 0
DWIDTH 46 0
BBX 36 41 5 0
BITMAP
0003000000
0007800000
000F000000
001E000000
001C000000
0038000000
0000000000
0000000000
0000000000
03FFFFFC00
0FFFFFFE00
0FFFFFFF00
0E00000700
0E00000700
0E00000700
0E00000700
0E00000700
0E06060700
0E0E0E0700
0E0E0E0700
0E0E0E0700
0E0E0E0700
0E0E0E0700
0E0E0E0700
0E0E0E0700
0E0E0E0700
0E0E0E0700
0E0E0E0700
0E0E0E0700
0E0E0E0700
0E0E0E0700
0E06060700
0E00000700
0E00000700
0E00000700
0C00000600
0000000000
0000000000
7FFFFFFFE0
FFFFFFFFF0
FFFFFFFFF0
ENDCHAR
STARTCHAR 2F8F
ENCODING 12175
SWIDTH 920 0
DWIDTH 46 0
BBX 38 38 4 -1
BITMAP
0180000000
03C0000000
07803FFF80
07803FFF80
0F001FFF00
1E00000000
3C00000000
3800000000
7000000000
4000000000
0000000000
0000000000
0000000000
00E1FFFFFC
03E1FFFFFC
07C0FFFFF8
1F80000000
3F00000000
7C00000000
F000000000
C000003800
0600003800
0700003800
0700003800
0700003800
0700003800
0700003800
0700003800
0700003800
0700003800
0700003800
0700003800
0700003800
0700003800
0700003800
070003F800
070001F800
060000F800
ENDCHAR
STARTCHAR 2F90
ENCODING 12176
SWIDTH 900 0
DWIDTH 45 0
BBX 35 39 5 -2
BITMAP
0000C00000
0001C00000
0001C00000
0001C00000
0000800000
0000000000
0000000000
7FFFFFFF80
FFFFFFFFC0
FFFFFFFFC0
0000000000
0000000000
0000000000
0030000000
0030000000
0070000000
00F0000000
01E0000C00
01C0001C00
03C0003C00
0780007800
070000F000
0E0001C000
1E00018000
1C00000000
3830000000
3070000000
6070020000
4070078000
007007C000
007001F000
007000FC00
0070003E00
0070000F80
00700003C0
00700000E0
007F800000
007F000000
003C000000
ENDCHAR
STARTCHAR 2F93
ENCODING 12179
SWIDTH 900 0
DWIDTH 45 0
BBX 30 43 8 -2
BITMAP
01C00000
01C00000
03800000
07000000
0F000000
0E07FF80
1C07FFC0
3803FF80
30000700
00000F00
00001E00
00001C00
00000000
00000000
003FFFF8
187FFFFC
1C1FFFFC
1C00001C
1C00001C
1C00001C
1C01801C
1C01C01C
1801C01C
1801C01C
187FFF1C
187FFF1C
183FFE1C
1801C01C
1801C01C
1801C01C
387FFF1C
38FFFF1C
30FFFF1C
3001C01C
3001C01C
7001C01C
7001C01C
6001C01C
6001C01C
E001801C
E00000FC
C000007C
C000003C
ENDCHAR
STARTCHAR 2F94
ENCODING 12180
SWIDTH 900 0
DWIDTH 45 0
BBX 36 43 4 -1
BITMAP
0000600000
0000700000
0000700000
0000700000
0000200000
0000000000
0000000000
7FFFFFFFE0
FFFFFFFFF0
FFFFFFFFF0
0000000000
0000000000
0000000000
0000000000
0000000000
00FFFFE000
01FFFFF000
01FFFFF000
0000000000
0000000000
0000000000
0000000000
0000000000
00FFFFF000
00FFFFF000
007FFFE000
0000000000
0000000000
0000000000
0000000000
007FFFE000
007FFFE000
00FFFFF000
00E0007000
00E0007000
00E0007000
00E0007000
00E0007000
00E0007000
00E0007000
00FFFFF000
007FFFE000
007FFFE000
ENDCHAR
STARTCHAR 2F95
ENCODING 12181
SWIDTH 900 0
DWIDTH 45 0
BBX 28 40 9 -2
BITMAP
00001000
00001C00
00001F00
06000F80
0E0003C0
1E0000E0
1C000000
38000000
30060000
600E0000
400E0000
001C0000
001C0000
00380000
00780000
00700000
00E07800
01C03E00
03C00F80
078007E0
0F0001F0
1E000030
3C000000
78000000
F0000000
C0000000
003FF800
007FFC00
007FFC00
00701C00
00701C00
00701C00
00701C00
00701C00
00701C00
00701C00
00701C00
007FFC00
007FFC00
003FF800
ENDCHAR
STARTCHAR 2F96
ENCODING 12182
SWIDTH 900 0
DWIDTH 45 0
BBX 30 37 7 0
BITMAP
FFFFFFF0
FFFFFFF0
7FFFFFE0
00000000
00000000
00000000
00000000
00000000
03FFFC00
03FFFE00
07FFFE00
07000E00
07000E00
07000E00
07000E00
07000E00
07000E00
07000E00
07000E00
07FFFE00
03FFFE00
01FFF800
00000000
00000000
00000C00
00001C00
00003C00
00C03800
00E03000
00E00000
00700000
00000000
00000000
00000000
7FFFFFF8
FFFFFFFC
FFFFFFFC
ENDCHAR
STARTCHAR 2F97
ENCODING 12183
SWIDTH 900 0
DWIDTH 45 0
BBX 34 41 5 -3
BITMAP
1FFFFFFF00
3FFFFFFF80
3FFFFFFF80
0000000000
0000000000
0001800000
0001C00000
0001C00000
0000E00000
0000E00180
07F0E007C0
7FF8E00F80
1FF0601F00
0000703C00
0000707800
000070E000
000071C000
0000300000
0000300000
0070300000
07F0380000
3FF0380000
7F80380000
0000386000
000038F800
0000387C00
0000383E00
0000380F00
0010380780
00F83801C0
03F0380040
1FE0380000
7F00380000
F800380000
0000380000
0000380000
0000380000
0000380000
0003F80000
0001F80000
0000F00000
ENDCHAR
STARTCHAR 2F98
ENCODING 12184
SWIDTH 900 0
DWIDTH 45 0
BBX 23 41 11 -2
BITMAP
0001C0
000FC0
007FC0
01FF00
0FF800
1F8000
180180
000380
000380
060380
070180
070100
060000
02003E
0007FE
007FFC
0FFFC0
7FF000
FC0000
000180
0001C0
0001C0
0000C0
00F0E0
0FF0E0
3FC0E0
7C0060
000060
000070
003070
00F870
03F070
0FE070
3F8060
780060
000060
0000E0
0000E0
000FE0
0007C0
0003C0
ENDCHAR
STARTCHAR 2F9A
ENCODING 12186
SWIDTH 900 0
DWIDTH 45 0
BBX 34 42 6 -3
BITMAP
0000C00000
0001C00000
0001C00000
0001C00000
0001C00000
0001C00000
03FFFFF000
03FFFFF000
01FFFFE000
0001C00000
0001C00000
0001C00000
0001C00000
0000C00000
0000000000
0000000000
3FFFFFFE00
7FFFFFFF00
7FFFFFFF00
0000000000
0000000000
0018000000
001C000000
001C0C0000
001C0E0000
001C0E0000
00180E0000
1C180E0700
3C180E0FC0
38380E03C0
70380E0000
E0380E0000
C0300E0000
00300E0000
00700E0000
00700E0000
00600E0000
00607E0000
00E03E0000
00C01C0000
00C0000000
0180000000
ENDCHAR
STARTCHAR 2F9B
ENCODING 12187
SWIDTH 900 0
DWIDTH 45 0
BBX 34 45 5 -4
BITMAP
0000C00000
0001C00000
0001C00000
0001C00000
0001C00000
0001C00000
0001C00000
00FFFF8000
01FFFFC000
01FFFFC000
0001C00000
0001C00000
0001C00000
0001C00000
0001C00000
0000C00000
0000000000
7FFFFFFF80
FFFFFFFFC0
FFFFFFFFC0
0000000000
0000000000
0000600000
0000700000
0000700000
0000700000
0000700000
0180700000
038073FE00
038073FE00
038071FC00
0300700000
0300700000
0700700000
0700700000
0600700000
0610700000
0E38600000
0E1C000000
0C1F000000
1C07FFFF80
1803FFFFC0
38007FFFC0
3800000000
1000000000
ENDCHAR
STARTCHAR 2F9C
ENCODING 12188
SWIDTH 900 0
DWIDTH 45 0
BBX 30 40 8 -2
BITMAP
01FFFF00
07FFFF80
07FFFFC0
070001C0
070001C0
070001C0
070001C0
070001C0
070001C0
070001C0
070001C0
070001C0
070001C0
070001C0
07FFFFC0
07FFFF80
01FFFF00
00000000
00000000
00000000
00030000
00038000
00038000
00038000
00038000
00038FF0
0C038FF0
1C0387E0
1C038000
1C038000
38038000
38038000
38038000
70038000
71830000
61C00000
E0F00000
C07FFFF8
C01FFFFC
8007FFFC
ENDCHAR
STARTCHAR 2F9D
ENCODING 12189
SWIDTH 900 0
DWIDTH 45 0
BBX 33 45 6 -2
BITMAP
0000E00000
0001E00000
0003C00000
0003000000
0000000000
0000000000
0000000000
007FFF8000
00FFFFC000
003FFFC000
000001C000
000001C000
00C001C000
00E3F1C000
00E7F9C000
00E7F9C000
00E001C000
00E001C000
00E001C000
00E3F1C380
00E7F9C380
00E7F9C700
00E001CE00
00E001DE00
00C001FC00
000001F800
3FFFFFF000
7FFFFFE000
7FFFFFC000
000007C000
00001FC000
00003FC000
00007DC000
0001F1C000
0003E1C000
000F81C000
003F01C000
007C01C000
01F001C000
0FC001C000
3F0001C000
FC0001C000
E0000FC000
000007C000
0000018000
ENDCHAR
STARTCHAR 2F9E
ENCODING 12190
SWIDTH 900 0
DWIDTH 45 0
BBX 36 46 4 -4
BITMAP
0000600000
0000E00000
0000E00000
0000E00000
0000E00000
0000E00000
0000E00000
3FFFFFFF80
7FFFFFFFC0
7FFFFFFFC0
0000E00000
0000E00000
0000E00000
0000E00000
007FFFE000
01FFFFF800
01FFFFF800
01C0E03800
01C0E03800
01C0E03800
01C0E03800
01DFFFB800
01DFFFB800
01CFFF3800
01C0E03800
01C0E03800
01C0E03800
01FFFFF800
01FFFFF800
00FFFFF000
0000E00000
0000E00000
0000E00000
0000E00000
0000E00000
FFFFFFFFF0
FFFFFFFFF0
7FFFFFFFE0
0000E00000
0000E00000
0000E00000
0000E00000
0000E00000
0000E00000
0000E00000
0000600000
ENDCHAR
STARTCHAR 2F9F
ENCODING 12191
SWIDTH 900 0
DWIDTH 45 0
BBX 37 46 4 -4
BITMAP
0000300000
0000700000
0000700000
0000700000
0000200000
0000000000
0000000000
0000000000
07FFFFFF00
07FFFFFF00
03FFFFFE00
0000000000
0000000000
000000C000
001001C000
003803C000
003C030000
000C000000
0000000000
0000000000
0000000000
FFFFFFFFF8
FFFFFFFFF8
7FFFFFFFF0
0000000000
0000300000
0000700000
0000700000
0000700000
0000700000
0000700000
0000700000
01FFFFFE00
01FFFFFE00
00FFFFFC00
0000700000
0000700000
0000700000
0000700000
0000700000
0000700000
0000700000
0000700000
0000700000
0000700000
0000300000
ENDCHAR
STARTCHAR 2FA0
ENCODING 12192
SWIDTH 900 0
DWIDTH 45 0
BBX 35 41 5 -3
BITMAP
07FFFFFE00
0FFFFFFF00
0FFFFFFF00
0000000000
0000000000
0000000000
0C00000000
0E00000000
0E00000000
0E00000000
0E03FFF000
0E03FFF000
0E01FFE000
0E00000000
0E00000000
0E00000000
0E00000000
0E00000000
0C3FFFFF80
0C7FFFFFC0
0C7FFFFFC0
1C00000000
1C00000000
1C00000000
1C00000000
1806000180
3807000380
3807000700
3807000700
3007000000
7007000000
700700E000
600700F800
E007007E00
C007001F00
00070007C0
00070001E0
0007000020
0007F80000
0007F00000
0007C00000
ENDCHAR
STARTCHAR 2FA2
ENCODING 12194
SWIDTH 900 0
DWIDTH 45 0
BBX 32 45 7 -3
BITMAP
03FFFC00
0FFFFF00
0FFFFF00
0E000700
0E000700
0E000700
0E000700
0E000700
0E000700
0E000700
0FFFFF00
0FFFFF00
03FFFC00
00000000
00000000
00000000
00000000
07FFFFC0
C7FFFFE0
E3FFFFE0
E00600E0
E00700E0
E00700E0
E00700E0
E00700E0
E00700E0
E00600E0
E00000E0
E3FFFFE0
EFFFFFE0
EFFFFFC0
E0000000
E0000000
E0000000
E0000000
E0000000
E0000000
E0000000
E0000008
E000000C
E000000C
E000000E
FFFFFFFE
FFFFFFFF
7FFFFFFE
ENDCHAR
STARTCHAR 2FA3
ENCODING 12195
SWIDTH 900 0
DWIDTH 45 0
BBX 35 40 5 -2
BITMAP
7FFFFFFFC0
FFFFFFFFE0
FFFFFFFFE0
0000000000
0000000000
0000000000
00060C0000
00071C0000
00071C0000
00071C0000
00071C0000
00071C0000
00071C0000
07FFFFFC00
0FFFFFFE00
0FFFFFFE00
0E071C0E00
0E061C0E00
0E061C0E00
0E0E1C0E00
0E0E1C0E00
0E0E1C0E00
0E0E1C0E00
0E1C1FCE00
0E1C0FEE00
0E38078E00
0E70000E00
0E70000E00
0E40000E00
0E00000E00
0E0FFF8E00
0E0FFF8E00
0E07FF0E00
0E00000E00
0E00000E00
0E00000E00
0E00000E00
0FFFFFFE00
0FFFFFFE00
07FFFFFC00
ENDCHAR
STARTCHAR 2FA5
ENCODING 12197
SWIDTH 900 0
DWIDTH 45 0
BBX 37 40 4 -1
BITMAP
007FFFF000
01FFFFF800
01FFFFFC00
01C0001C00
01C0601C00
01C0701C00
01C0701C00
01C0701C00
01C3FC1C00
01C7FE1C00
01C7FE1C00
01C0701C00
01C0701C00
01C0701C00
01C0701C00
01C0701C00
01C0701C00
01FFFFFC00
01FFFFF800
007FFFF000
0000700000
0000700000
0000700000
0000700000
0000700000
01FFFFF800
03FFFFFC00
03FFFFFC00
0000700000
0000700000
0000700000
0000700000
0000700000
0000700000
0000600000
0000000000
0000000000
7FFFFFFFF0
FFFFFFFFF8
FFFFFFFFF8
ENDCHAR
STARTCHAR 2FA6
ENCODING 12198
SWIDTH 900 0
DWIDTH 45 0
BBX 35 42 5 -1
BITMAP
0000E00000
0001E00000
0001C00000
0003800000
0007800000
000F000000
001E000000
003C000000
0078000000
00F003C000
01E001FC00
0780007F80
0F00000FC0
3E000001C0
3800000000
000FFE0000
001FFF0000
001FFF0000
0000000000
0000000000
0000000000
0000600000
0000E00000
0000E00000
0000E00000
01FFFFF800
03FFFFFC00
03FFFFFC00
0000E00000
0000E00000
0000E00000
0000E01C00
00C0E07C00
00E0E1FC00
00F0E1F000
0078E00000
0010E00000
0000600000
0000000000
7FFFFFFFC0
FFFFFFFFE0
FFFFFFFFE0
ENDCHAR
STARTCHAR 2FA9
ENCODING 12201
SWIDTH 920 0
DWIDTH 46 0
BBX 34 46 6 -3
BITMAP
0003800000
0003800000
0007000000
000E000000
000C000000
0000000000
0000000000
067FFFF000
0E7FFFF000
0E3FFFF800
0E00003800
0E00003800
0E00003800
0E00003800
0E7FFFF800
0E7FFFF000
0E3FFFE000
0E00000000
0E00000000
0E0FFFF800
0E1FFFFC00
0E1FFFFE00
0E00000E00
0E00000E00
0E00000E00
0E00000E00
0E00000E00
0E1FFFFE00
0E1FFFFC00
060FFFF800
0000000000
0000C00000
0000E00000
0000E00000
0000E00000
FFFFFFFFC0
FFFFFFFFC0
7FFFFFFF80
0000E00000
0000E00000
0000E00000
0000E00000
0000E00000
0000E00000
0000E00000
0000C00000
ENDCHAR
STARTCHAR 2FAA
ENCODING 12202
SWIDTH 900 0
DWIDTH 45 0
BBX 37 45 4 -3
BITMAP
0000300000
0000700000
0000700000
0000700000
0000700000
0000700000
0000700000
01FFFFF800
01FFFFF800
00FFFFFC00
0000701C00
0000701C00
0000701C00
0000701C00
7FFFFFFFF0
FFFFFFFFF8
FFFFFFFFF8
0000701C00
0000701C00
0000701C00
0000701C00
01FFFFFC00
01FFFFF800
00FFFFF000
0000700000
0000700000
0000700000
0080701000
01E0703800
01F0707800
007070F000
0000700000
0000700000
0000700000
0000702000
0000703C00
07C0701F00
1F80700F80
1E00700380
0000700000
0000700000
0000700000
0007F00000
0001F00000
0000700000
ENDCHAR
STARTCHAR 2FAB
ENCODING 12203
SWIDTH 880 0
DWIDTH 44 0
BBX 34 40 5 -2
BITMAP
0000030000
0000038000
0000038000
00E0038000
01F0030000
07E0010000
0FC0000000
3F00000000
7800000000
E007FFFF80
000FFFFFC0
000FFFFFC0
0600000000
0700000000
0700000000
0700030000
0700038000
0700038000
0700038000
0701FFFE00
0701FFFE00
0700FFFC00
0700038000
0700038000
0700038000
0700038000
0701FFFE00
0701FFFE00
0700FFFC00
0700038000
0700038000
0700038000
0700038000
0700030000
0700000000
0707FFFF80
070FFFFFC0
070FFFFFC0
0700000000
0600000000
ENDCHAR
STARTCHAR 2FAC
ENCODING 12204
SWIDTH 920 0
DWIDTH 46 0
BBX 30 38 8 -1
BITMAP
7FFFFFF8
7FFFFFF8
3FFFFFF0
00000000
00000000
00030000
00038000
00038000
00038000
00038000
41FFFFF0
E3FFFFFC
E1FFFFFC
E003801C
E003801C
E003801C
E003801C
E003801C
E303B81C
E383BC1C
E3C39C1C
E0C3841C
E003801C
E003801C
E003801C
E003801C
E303801C
E3838C1C
E3C39E1C
E0438F1C
E003831C
E003801C
E003801C
E003801C
E00380FC
E003807C
C003803C
00030000
ENDCHAR
STARTCHAR 2FAE
ENCODING 12206
SWIDTH 880 0
DWIDTH 44 0
BBX 36 42 4 -2
BITMAP
0006060000
0007070000
0007070000
0007070000
0007070000
0007070000
0007070000
0007070000
0007070000
3F87071FC0
7FC7073FE0
7FC7073FE0
0007070000
0007070000
0007070000
0007070000
0007070000
0007070000
0007070000
0007070000
0787071E00
0FC7073F00
0FC7073F00
0007070000
0007070000
0007070000
0007070000
0007070000
0007070000
0007070000
0007070000
FFC7073FF0
FFC7073FF0
7F87071FE0
0007070000
0007070000
0007070000
0007070000
0007070000
0007070000
0007070000
0006060000
ENDCHAR
STARTCHAR 2FAF
ENCODING 12207
SWIDTH 900 0
DWIDTH 45 0
BBX 33 38 6 -2
BITMAP
FFFFFFFF80
FFFFFFFF80
7FFFFFFF00
0000000000
0000000000
0001C00000
0003C00000
0007800000
0007000000
0004000000
0000000000
0FFFFFF800
3FFFFFFE00
3FFFFFFE00
3800000E00
3800000E00
3830060E00
3870070E00
3870070E00
3870070E00
3873F70E00
3873F70E00
3871E70E00
3870070E00
3870070E00
3870070E00
3871E70E00
3873F70E00
3873F70E00
3870070E00
3870070E00
3870070E00
3830060E00
3800000E00
3800000E00
3FFFFFFE00
3FFFFFFE00
1FFFFFFC00
ENDCHAR
STARTCHAR 2FB0
ENCODING 12208
SWIDTH 900 0
DWIDTH 45 0
BBX 33 43 6 -3
BITMAP
0010040000
00380E0000
00380E0000
00380E0000
00380E0000
3FFFFFFF00
3FFFFFFF00
1FFFFFFE00
00380E0000
00380E0000
00380E0000
003FFE0000
003FFE0000
000FF80000
0000000000
0001800000
0001C00000
0001C00000
0001C00000
01FFFFC000
03FFFFC000
03FFFFE000
0381C0E000
0381C0E000
0381C0E000
0381C0E000
03FFFFE000
03FFFFC000
01FFFFC000
0001C00000
0001C00000
0001C00000
0001C00000
FFFFFFFF80
FFFFFFFF80
7FFFFFFF00
0001C00000
0001C00000
0001C00000
0001C00000
0001C00000
0001C00000
0001800000
ENDCHAR
STARTCHAR 2FB2
ENCODING 12210
SWIDTH 900 0
DWIDTH 45 0
BBX 37 42 4 -2
BITMAP
0006060000
0007070000
0007070000
0007070000
0007070000
0007070000
0007070000
0007070000
3FC7073FE0
3FC7073FE0
1F87071FC0
0007070000
0007070000
0007070000
0007070000
0007070000
0007070000
0007070000
0787071E00
0FC7073F00
0FC7073F00
0007070000
0007070000
0007070000
0007070000
0007070000
0007070000
0007070000
7F87071FE0
FFC7073FF0
FFC7073FF0
0007070000
0007070000
0007070000
0007070000
0007070000
0006060000
0000000000
0000000000
1FFFFFFFF0
3FFFFFFFF8
3FFFFFFFF8
ENDCHAR
STARTCHAR 2FB3
ENCODING 12211
SWIDTH 900 0
DWIDTH 45 0
BBX 33 44 6 -3
BITMAP
0001800000
0001C00000
0001C00000
0001800000
0000800000
0000000000
0000000000
07FFFFE000
07FFFFE000
03FFFFC000
0000000000
0000000000
0000070000
0000070000
00E00E0000
00F81C0000
0038180000
0000000000
0000000000
0000000000
FFFFFFFF80
FFFFFFFF80
7FFFFFFF00
0000000000
0000000000
0000000000
003FFC0000
007FFF0000
00FFFF0000
00E0070000
00E0070000
00E0070000
00E0070000
00E0070000
00E3C70000
00E7E70000
00E7E70000
00E0070000
00E0070000
00E0070000
00E0070000
00FFFF0000
007FFF0000
007FFE0000
ENDCHAR
STARTCHAR 2FB5
ENCODING 12213
SWIDTH 900 0
DWIDTH 45 0
BBX 38 44 4 -5
BITMAP
0FFFFFFF00
0FFFFFFF00
07FFFFFF80
0000000380
0000000380
0000000380
0C00070380
0E003F8380
0E01FF0380
0E07FC0380
0E1FC00380
0E1C000380
0E00000380
0E00600380
0E00700380
0E00700380
0E00700380
0E0FFF0380
0E1FFF8380
0E1FFF8380
0E1C738380
0C1C738380
0C1C738380
0C1C738380
0C1C738380
1C1FFF8380
1C1FFF8380
1C0FFF0380
1C00700380
1C00700380
1800700380
380070C380
380060E380
380000E1C0
380000E1C0
3000FC71C0
703FF871C0
707FC031E0
70000030E4
E0000010EC
E00000007C
E00000007C
C000000038
C000000038
ENDCHAR
STARTCHAR 2FB6
ENCODING 12214
SWIDTH 880 0
DWIDTH 44 0
BBX 39 43 2 -4
BITMAP
3FFFFF0000
3FFFFF8080
1FFFFF83C0
00000383C0
0000038700
0000038000
0000038000
0001838000
01E3838F00
0FE38187C0
3FE38183F0
7F038180F0
000381C000
000381C000
000380E008
030380F008
0383807C0C
0383803FFC
0383800FFC
03838003F8
0383800000
7FFFFF0000
7FFFFF8000
3FFFFF8000
07038381C0
07038383C0
0703838300
0E03838000
0E03838000
0E03838000
0C03838F80
1C038187F0
1C038181F0
180381C030
380381C000
300380C000
700380E004
6003807004
E003803806
C003803F06
0003800FFE
00038003FE
0001800018
ENDCHAR
STARTCHAR 2FB7
ENCODING 12215
SWIDTH 880 0
DWIDTH 44 0
BBX 34 45 5 -4
BITMAP
0000C00000
0001C00000
0003C00000
0007800000
001F000000
003E000000
007C000000
01F0038000
03E043F000
0FC0E1FC00
3F00E07F00
7C00C00F80
F0004001C0
0000000000
0000000000
0000000000
00C7FF8000
00E7FFC000
00E3FFC000
00E001C000
00E001C000
00E001C000
00E3FDC000
00E3FDC000
00E1F9C000
00E001C000
00E001C000
00E3FFC000
00E7FFC000
00E7FF8000
00E0000000
00E0000800
00E0001800
00E0003800
00E0003800
00E0083000
00E01E0000
00E01F8000
00E00FE000
00E003F000
00E000FC00
00E0001E00
00FF000700
00FC000000
00F8000000
ENDCHAR
STARTCHAR 2FB8
ENCODING 12216
SWIDTH 900 0
DWIDTH 45 0
BBX 35 45 5 -3
BITMAP
0000008000
006001C000
007003C000
0078038000
0018070000
0000000000
0000000000
7FFFFFFFC0
FFFFFFFFE0
FFFFFFFFE0
0000000000
0000800000
0001C00000
0003C00000
0003800000
0007000000
0000000000
0000000000
007FFFE000
00FFFFE000
00FFFFF000
00E0007000
00E0007000
00E0007000
00E0007000
00E0007000
00E7FE7000
00E7FE7000
00E3FC7000
00E0007000
00E0007000
00E0007000
00E0007000
00E0007000
00E7FE7000
00E7FE7000
00E3FC7000
00E0007000
00E0007000
00E0007000
00E0007000
00E0007000
00FFFFF000
00FFFFE000
007FFFE000
ENDCHAR
STARTCHAR 2FB9
ENCODING 12217
SWIDTH 900 0
DWIDTH 45 0
BBX 35 43 5 -2
BITMAP
00003F0000
0003FF0000
001FFF0000
00FFF00000
00FE000000
0000000000
0000C00000
0000E00000
0000E00000
0000E00000
7FFFFFFFC0
FFFFFFFFE0
FFFFFFFFE0
0000E00000
0000E00000
0000E00000
0080E08000
01C0E1F800
07C0E0FF00
0F80E07F80
1F00E007C0
3C00E00000
7000C00000
0000000000
0000000000
0000000000
003FFF0000
007FFF8000
007FFF8000
0070038000
0070038000
0070038000
0070038000
0071E38000
0073F38000
0073F38000
0070038000
0070038000
0070038000
0070038000
007FFF8000
007FFF8000
003FFF0000
ENDCHAR
STARTCHAR 2FBB
ENCODING 12219
SWIDTH 900 0
DWIDTH 45 0
BBX 32 44 7 -4
BITMAP
00FFFF00
03FFFF80
03FFFFC0
038001C0
038001C0
038001C0
03BF81C0
03BFC1C0
039FC1C0
0381C1C0
0381C1C0
0381C1C0
03008180
00000000
C0000000
E7FFFFFE
E7FFFFFE
E3FFFFFF
E0000007
E0000007
E0000007
E18FFF07
C1CFFF82
01C7FF80
01C00380
01C00380
01C00380
01C7E380
01CFF380
01CFF380
01C00380
01C00380
01C00380
01C00380
01CFF380
01CFF380
01C7E380
01C00380
01C00380
01C00380
01C00380
01C01F80
01C00F80
01800780
ENDCHAR
STARTCHAR 2FBC
ENCODING 12220
SWIDTH 900 0
DWIDTH 45 0
BBX 31 45 7 -3
BITMAP
00018000
00038000
00038000
00038000
00010000
00000000
00000000
FFFFFFFE
FFFFFFFE
7FFFFFFC
00000000
00000000
003FF000
007FFC00
00FFFC00
00E01C00
00E01C00
00E01C00
00E01C00
00FFFC00
00FFFC00
007FF800
00000000
00000000
00000000
43FFFFF8
E7FFFFFC
E7FFFFFE
E000000E
E000000E
E000000E
E01FF00E
E03FF00E
E03FF80E
E038380E
E038380E
E038380E
E038380E
E03FF80E
E03FF00E
E01FF00E
E000000E
E000007E
E000003E
C000000C
ENDCHAR
STARTCHAR 2FBD
ENCODING 12221
SWIDTH 900 0
DWIDTH 45 0
BBX 39 36 3 0
BITMAP
07FFF80040
07FFF801E0
07FFF003E0
07000007C0
0700001F00
0700003E00
0700007C00
077FE0F000
077FE0C000
073FC00000
0700000000
0700000000
0700000000
0700000000
073FF00000
073FF0001E
071FE001FE
0700000FFC
0700003FF0
0700003E00
0600000000
0000000000
FFFFFC0000
FFFFFC0000
7FFFF80000
0000000000
0300000000
0300000000
0700300000
070038003C
07003C01FC
0E001C0FFC
0EFF043FF0
0FFC00FF80
0FF000F800
0F80000000
ENDCHAR
STARTCHAR 2FBE
ENCODING 12222
SWIDTH 900 0
DWIDTH 45 0
BBX 35 43 5 -4
BITMAP
C0000000C0
E3FE0FF8E0
E7FF1FFCE0
E7FF1FFCE0
E0000000E0
E0000000E0
E0700180E0
E0700380E0
E1FE0FF0E0
E3FF1FF8E0
E3FF1FF8E0
E0700380E0
E0700380E0
E0700380E0
E0700380E0
E0600180E0
E3FE3FFCE0
E7FF3FFCE0
E7FF1FF8E0
E0000000E0
E0000000E0
E0000000E0
E0000000E0
E0000000E0
E0000000E0
E0000000E0
E0000000E0
E0000000E0
E0000000E0
E0000000E0
E0000000E0
E0000000E0
E0000000E0
E0000000E0
E0000000E0
E0000000E0
E0000000E0
E0000000E0
E0000000E0
E0000000E0
E000001FE0
E000000FE0
C0000003C0
ENDCHAR
STARTCHAR 2FBF
ENCODING 12223
SWIDTH 900 0
DWIDTH 45 0
BBX 29 44 8 -2
BITMAP
000E0400
000F0E00
00071C00
00001C00
C0003818
E0607038
E0707038
E03CE038
E61FC738
EF8FC7B8
E78783B8
E00FE038
E01CF038
E0387838
E0703C38
E1E00E38
E3C20638
E3078038
E0078038
E0018038
E0000038
FFFFFFF8
FFFFFFF8
7FFFFFF0
00000000
00000000
00000000
0E000000
0E000700
0E001F00
0E007E00
0E01F800
0E07E000
0E0F0000
0E1C0000
0E000000
0E000000
0E000020
0E000020
0E000030
0E000038
0FFFFFF8
0FFFFFF8
07FFFFF8
ENDCHAR
STARTCHAR 2FC0
ENCODING 12224
SWIDTH 900 0
DWIDTH 45 0
BBX 35 44 5 -5
BITMAP
7FFFFFFFC0
FFFFFFFFE0
FFFFFFFFE0
0000000000
0000000000
0000000000
001FFF0000
007FFFC000
007FFFC000
007001C000
007001C000
007001C000
007001C000
007FFFC000
007FFFC000
003FFF8000
0000000000
0000000000
0000000000
33FFFFFF80
73FFFFFF80
70FFFFFFC0
70000001C0
70000001C0
70000301C0
70040701C0
700E0F01C0
700F0E01C0
70070C01C0
70000001C0
70000001C0
70FFFFF1C0
70FFFFF1C0
707FFFE1C0
70006001C0
7000E001C0
7000E001C0
7000E001C0
7000E001C0
7000E001C0
7000E001C0
7000E00FC0
70006007C0
3000000380
ENDCHAR
STARTCHAR 2FC1
ENCODING 12225
SWIDTH 880 0
DWIDTH 44 0
BBX 30 44 7 -1
BITMAP
00380000
00380000
00700000
00E00000
00C00000
00000000
00000000
00000000
00000000
7FFFFC00
FFFFFC00
FFFFFE00
E0000E00
E0000E00
E0380E00
E0380E00
E0380E00
E3FF8E00
E3FF8E00
E1FF0E00
E0300E00
E0700E00
E0700E00
E0700E00
FFFFFE00
FFFFFC00
3FFFF800
00E00000
00E00000
01C00000
01C00800
01C61C00
038618C0
038618C0
07063860
07063060
0E063F00
1E063C00
1C060010
38060018
70060018
F007001C
E007FFFC
C003FFF8
ENDCHAR
STARTCHAR 2FC5
ENCODING 12229
SWIDTH 900 0
DWIDTH 45 0
BBX 37 44 4 -3
BITMAP
0000300000
0000380000
0000380000
0000380000
0000100000
0000000000
1FFFFFFFF0
1FFFFFFFF0
0FFFFFFFE0
0000000000
0000E0E000
0E00E0E000
0E00E0E000
0E00E0E000
0E00E0E000
0E3FFFFFC0
0E3FFFFFE0
0E1FFFFFE0
0E00E0E0E0
0E00E0E0E0
0E00E0E0E0
0E00E060E0
0E00C000E0
0E3FFFFFE0
0C3FFFFFE0
0C1FFFFF80
0C00000000
0C00006000
1C0000E000
1C3800E000
1C3800E0E0
183800E3E0
1839FCE7C0
3839FCE000
383878E000
383800E000
303800E000
703800E000
703800E060
603800E060
E03800FFF0
C03FE0FFF8
003FC07FF0
001E000000
ENDCHAR
STARTCHAR 2FC6
ENCODING 12230
SWIDTH 920 0
DWIDTH 46 0
BBX 35 47 5 -5
BITMAP
0000C00000
0000E00000
0000E00000
0000E00000
07FFFFFC00
0FFFFFFE00
0FFFFFFE00
0000E00000
0000E03000
0380E07000
0380E07000
0700E0E000
0738E0E000
0E3CE1C200
0E1CE38700
1C00E70780
3800EE01C0
701CE40000
603CE00000
0078E07000
00F0E07E00
01E0C07FC0
03C0001FE0
0F800003E0
3E0C000000
7C1C000000
F03C000000
4039FF0000
0073FFC000
00E3FFC000
00E001C000
01C003C000
0180038000
0000070000
00070F0000
0007EE0000
0003FC0000
0000FF8000
00007FF000
0000F1FC00
0001E01C00
0007C00000
000F800000
001E000000
007C000000
00F0000000
00E0000000
ENDCHAR
STARTCHAR 2FC7
ENCODING 12231
SWIDTH 880 0
DWIDTH 44 0
BBX 38 45 3 -3
BITMAP
00000C0000
00000E0000
00000E0000
00000C0000
0000040000
0000000000
0000000000
0FFFFFFFF8
0FFFFFFFF8
07FFFFFFF0
0000000000
0000000000
0E00000000
0E00000000
0E00000000
0E00000000
0E03000300
0E03800380
0E03800380
0E03800380
0E03800380
0E03800380
0E3FF03FF0
0E7FFCFFF8
0E7FFCFFF8
0C03800380
0C03800380
1C03800380
1C03800380
1C03BC0380
1C03BE03B0
18338E63BC
387380E39C
387380E38C
38E381C380
70C3800380
7003800380
7003800380
E003800380
E003800380
C003800380
C003800380
0003800380
0003800380
0003000300
ENDCHAR
STARTCHAR 2FC9
ENCODING 12233
SWIDTH 920 0
DWIDTH 46 0
BBX 34 44 6 -4
BITMAP
0003FFF800
03FFFFF800
07FFFFE000
0000000000
0000000000
0000C00000
0000E00000
0000E00000
0000E00000
7FFFFFFFC0
7FFFFFFFC0
3FFFFFFF80
0000E00000
0000E00000
0000E0C000
00C0E0F000
01C0E0F800
03C0C03C00
0780000E00
0F00300000
0E00700000
1800E00000
0003C00000
0007800000
000F000000
003E07C000
00F803FE00
01F000FF80
07C0001FC0
3F00600000
7C00E00000
E000E07000
03C0E0F000
01E0E0E000
00E0E00000
0000E00000
0000E00000
00F0E1E000
07F0E0F800
0FE0E07C00
0F00E01C00
000FE00000
0003E00000
0001E00000
ENDCHAR
STARTCHAR 2FCA
ENCODING 12234
SWIDTH 920 0
DWIDTH 46 0
BBX 34 41 6 -4
BITMAP
07FFFFF800
0FFFFFFC00
0FFFFFFC00
0E00001C00
0E00001C00
0E00C01C00
0E01C39C00
0E71C39C00
0E71C71C00
0E39CE1C00
0E09CC1C00
0E01C01C00
0E01C01C00
0FFFFFFC00
0FFFFFFC00
03FFFFF800
0001C00000
0001C00000
0001C00000
0001C00000
03FFFFF800
07FFFFFC00
07FFFFFC00
0001C00000
0001C00000
0001C00000
0001C00000
0000C00000
0000000000
7FFFFFFF80
FFFFFFFFC0
FFFFFFFFC0
0000000000
0000000000
0000000000
1C381C0600
3C381C0700
381C0E0780
701E0F0380
60060301C0
4000000000
ENDCHAR
STARTCHAR 2FCB
ENCODING 12235
SWIDTH 880 0
DWIDTH 44 0
BBX 34 46 5 -5
BITMAP
00180C0000
00380E0000
00380E0000
00380E0000
00380E0000
E0380E0180
F8380E0780
7C380E0700
1C380E0E00
00380E0000
00380E0000
00180C0000
0000000000
0000000000
FFFFFFFFC0
FFFFFFFFC0
7FFFFFFF80
0000000000
0000C00000
0001C00000
0601C01C00
0701C03C00
0781C03800
03C1C03000
0001C00000
0001C00000
00FFFFFC00
19FFFFFE00
1CFFFFFF00
1C01C00700
1C01C00700
1C01C00700
1C01C00700
1C01C00700
1C31C10700
1C71C3C700
1CF1C3E700
1CC1C0E700
1D81C00700
1C01C00700
1C01C00700
1C01C00700
1C01C00700
1C01C03F00
1C01C03F00
1800C00E00
ENDCHAR
STARTCHAR 2FCD
ENCODING 12237
SWIDTH 900 0
DWIDTH 45 0
BBX 35 44 5 -4
BITMAP
001FFF8000
003FFFC000
007FFFE000
007000E000
007000E000
007000E000
1873F8E180
1C73F8E1C0
1C71F0E1C0
1C7000E1C0
1C70F8E1C0
1C71FCE1C0
1C71FCE1C0
1C7000E1C0
1C7000E1C0
1C7000E1C0
1C7FFFE1C0
1C3FFFC1C0
1C1FFF81C0
1C000001C0
1C000001C0
1FFC01FFC0
1FFE03FF80
07FF03FF00
0007038000
0007038000
0007038000
0007038000
FFE7038000
FFE7038F80
7FC7039FE0
0007039FE0
00070380E0
00070380E0
0C070380E0
1C070380E0
1C070380E0
38070380E0
38070380E0
30070380E0
70070380E0
6007038060
4007038000
0007038000
ENDCHAR
STARTCHAR 2FCE
ENCODING 12238
SWIDTH 900 0
DWIDTH 45 0
BBX 40 42 2 -3
BITMAP
0030000000
0070000000
0070000000
0070000C00
FFFFF80E00
FFFFF80E00
7FFFF00E00
0070000E00
0070000E00
0030000E00
000007FFFC
1FFF87FFFC
3FFFC7FFF8
3FFFC00E00
0000000E00
0000000E00
0000000E00
03FE000E00
0FFF800E00
0FFF800C00
0E03800000
0E0383FFE0
0E0387FFF0
0E0387FFF0
0E03800070
0FFF800070
0FFF8000E0
03FE0000E0
000000E1C0
000000FBC0
0003807F80
0003803F80
0E07800F80
0F07001FE0
0704003DF8
000000787C
000000F00F
000FE3E003
07FFC78000
7FFC0F0000
7F803C0000
0000300000
ENDCHAR
STARTCHAR 2FCF
ENCODING 12239
SWIDTH 880 0
DWIDTH 44 0
BBX 32 46 6 -3
BITMAP
00700000
01F00000
03E07FE0
C7807FF0
E0003FF0
E0000070
E0000070
E0000070
E0000070
E7F07F70
E7F07F70
E3E03E70
E0000070
E0000070
E0000070
E0000070
FFFFFFF0
FFFFFFF0
7FFFFFE0
00000000
00000000
00000000
600600C0
E00E00E0
E00E00E0
E00E00E0
E30E30E0
E3CE38E0
E1CE1CE0
E00E00E0
E00E00E0
E00E00E0
E38E30E0
E38E38E0
E1CE38E0
E1CE18E0
E00E0070
E00E0070
E00E0070
E00E0070
FF0FF038
FE0FE039
7807801F
0000001F
0000000E
0000000E
ENDCHAR
STARTCHAR 2FD0
ENCODING 12240
SWIDTH 880 0
DWIDTH 44 0
BBX 34 46 5 -3
BITMAP
0003800000
0007800000
000F000000
0004000000
007FFF0000
00FFFFC000
00FFFFC000
00C001C000
00C7F1C000
00C7F1C000
00C3E1C000
00C1F1C000
00C3F9C000
00C3F9C000
00C001C000
00FFFFC000
00FFFFC000
007FFF8000
0000000000
01FFFFE000
07FFFFF000
07FFFFF800
0700003800
0700C03800
0701C03800
070FFC3800
071FFE3800
071FFE3800
0701C03800
0700C03800
0700003800
07FFFFF800
07FFFFF000
01FFFFE000
0000000000
7FFFFFFF80
FFFFFFFFC0
FFFFFFFFC0
0000000000
0000000000
0060018000
00E0038000
01E0038000
03C0038000
0300038000
0000018000
ENDCHAR
STARTCHAR 2FD3
ENCODING 12243
SWIDTH 900 0
DWIDTH 45 0
BBX 38 45 3 -2
BITMAP
00C00E0000
00E00E0000
00E00E0000
00C00E3FF0
00400E7FF8
00000E7FF8
7FFF0E0000
7FFF8E0000
3FFF0E0000
00000E0000
00040FFFE0
081C0FFFF0
1E1C03FFF0
0F3C000070
0738000070
0020000070
0000000070
7FFF800070
FFFFC3FFF0
FFFFC7FFF0
00000FFFE0
00000E0000
00000E0000
10FE0E0000
39FF0E7FC0
39FF8E7FC0
38038E3F80
38038E0000
38038E0000
39C38E1FE0
3BE38E3FF0
3BE38E3FF0
38038E0000
38038E0000
38738E0000
38FB8E3FE0
38FB8E7FF0
38038E7FF0
38038E0000
38038E0000
38038E0008
383F8E0008
380F8FFFFC
18070FFFFC
000007FFFC
ENDCHAR
STARTCHAR 2FD5
ENCODING 12245
SWIDTH 900 0
DWIDTH 45 0
BBX 35 47 5 -4
BITMAP
0000180000
0000380000
0000700000
0000E00000
0003C00000
0007800000
000F000000
003E01F000
007C01FF80
01F0003FE0
07C00007E0
1F83FE0000
7E03FE0000
F001FC0000
4000000000
07C0001F80
1FF0003FC0
1FF1FC7FE0
1C73FE70E0
1C73FE70E0
1C738E70E0
1C738E70E0
1FF38E7FE0
1FF3FE3FC0
0FE3FE3FC0
0001FC0000
0000000000
011FFFFF00
03BFFFFF80
039FFFFFC0
03800001C0
03800001C0
03806301C0
0380E701C0
0380E701C0
0380E701C0
038FFFF1C0
039FFFF1C0
0387FFE1C0
0380E701C0
0380E701C0
0380E701C0
0380E701C0
0380631FC0
0380001FC0
03800007C0
0300000180
ENDCHAR
STARTCHAR 3000
ENCODING 12288
SWIDTH 1000 0
DWIDTH 50 0
BBX 0 0 0 0
BITMAP
ENDCHAR
STARTCHAR 3001
ENCODING 12289
SWIDTH 940 0
DWIDTH 47 0
BBX 4 6 2 -5
BITMAP
C0
E0
E0
70
70
10
ENDCHAR
STARTCHAR 3002
ENCODING 12290
SWIDTH 900 0
DWIDTH 45 0
BBX 7 8 2 -7
BITMAP
38
7C
C6
C6
C6
C6
7C
38
ENDCHAR
STARTCHAR 3005
ENCODING 12293
SWIDTH 900 0
DWIDTH 45 0
BBX 31 42 7 -3
BITMAP
00180000
00380000
00380000
00780000
00F00000
00F00000
01E00000
01C00000
03C00000
0781FFFC
0703FFFE
0F03FFFE
0E00000E
1C00000E
3C00000C
3800001C
7000001C
60000018
E0000038
C0000038
00000070
00000070
000000E0
000000E0
000001C0
000003C0
00000380
00000700
00000E00
00001E00
00003C00
00407800
00F07000
00F80000
003E0000
001F8000
0007C000
0003F000
0000F800
00003E00
00000F00
00000380
ENDCHAR
STARTCHAR 3007
ENCODING 12295
SWIDTH 900 0
DWIDTH 45 0
BBX 41 42 2 -2
BITMAP
0000FF800000
0007FFF00000
001FFFFC0000
007E003F0000
00F8000F8000
01E00003C000
03800001E000
07000000F000
0E0000007800
1C0000003800
1C0000001C00
380000001C00
380000000E00
700000000E00
700000000700
600000000700
E00000000700
E00000000300
E00000000380
E00000000380
E00000000380
E00000000380
E00000000380
E00000000380
E00000000300
E00000000700
600000000700
700000000700
700000000E00
380000000E00
380000001C00
1C0000001C00
1C0000003800
0E0000007800
07000000F000
03800001E000
01E00003C000
00F0000F8000
007E003F0000
001FFFFC0000
0007FFF00000
0000FF800000
ENDCHAR
STARTCHAR 3008
ENCODING 12296
SWIDTH 900 0
DWIDTH 45 0
BBX 11 45 33 -3
BITMAP
00E0
00E0
01C0
01C0
0180
0380
0380
0700
0700
0600
0E00
0E00
1C00
1C00
1800
3800
3800
7000
7000
6000
E000
E000
C000
E000
E000
6000
7000
7000
3800
3800
1800
1C00
1C00
0E00
0E00
0600
0700
0700
0380
0380
0180
01C0
01C0
00E0
00C0
ENDCHAR
STARTCHAR 3009
ENCODING 12297
SWIDTH 900 0
DWIDTH 45 0
BBX 11 45 1 -3
BITMAP
E000
E000
7000
7000
3000
3800
3800
1C00
1C00
0C00
0E00
0E00
0700
0700
0300
0380
0380
01C0
01C0
00C0
00E0
00E0
0060
00E0
00E0
00C0
01C0
01C0
0380
0380
0300
0700
0700
0E00
0E00
0C00
1C00
1C00
3800
3800
3000
7000
7000
E000
6000
ENDCHAR
STARTCHAR 300A
ENCODING 12298
SWIDTH 900 0
DWIDTH 45 0
BBX 21 45 23 -3
BITMAP
006030
00E030
00E070
01C070
01C0E0
0180E0
0380E0
0381C0
0701C0
070380
060380
0E0380
0E0700
1C0700
1C0600
180E00
380E00
381C00
701C00
701800
603800
E03800
E07000
E03800
603800
701800
701C00
381C00
380E00
180E00
1C0600
1C0700
0E0700
0E0380
060380
070180
0701C0
0381C0
0380E0
0180E0
01C060
01C070
00E070
00E038
006030
ENDCHAR
STARTCHAR 300B
ENCODING 12299
SWIDTH 900 0
DWIDTH 45 0
BBX 21 45 1 -3
BITMAP
603000
603800
703800
701C00
301C00
380C00
180E00
1C0E00
1C0700
0C0700
0E0300
0E0380
070380
0701C0
0301C0
0380C0
0380E0
01C0E0
01C070
00C070
00E030
00E038
007038
00E038
00E030
00C070
01C070
01C0E0
0380E0
0380C0
0301C0
0701C0
070380
0E0380
0E0300
0C0700
1C0700
1C0E00
380E00
380C00
301C00
701C00
703800
E03800
603000
ENDCHAR
STARTCHAR 300C
ENCODING 12300
SWIDTH 900 0
DWIDTH 45 0
BBX 10 39 34 4
BITMAP
7F80
FFC0
FFC0
E000
E000
E000
E000
E000
E000
E000
E000
E000
E000
E000
E000
E000
E000
E000
E000
E000
E000
E000
E000
E000
E000
E000
E000
E000
E000
E000
E000
E000
E000
E000
E000
E000
E000
E000
C000
ENDCHAR
STARTCHAR 300D
ENCODING 12301
SWIDTH 900 0
DWIDTH 45 0
BBX 10 38 2 -3
BITMAP
01C0
01C0
01C0
01C0
01C0
01C0
01C0
01C0
01C0
01C0
01C0
01C0
01C0
01C0
01C0
01C0
01C0
01C0
01C0
01C0
01C0
01C0
01C0
01C0
01C0
01C0
01C0
01C0
01C0
01C0
01C0
01C0
01C0
01C0
01C0
7FC0
FFC0
FF80
ENDCHAR
STARTCHAR 300E
ENCODING 12302
SWIDTH 900 0
DWIDTH 45 0
BBX 14 39 30 2
BITMAP
FFF8
FFFC
FFFC
E01C
E01C
E3FC
E7FC
E7F0
E700
E700
E700
E700
E700
E700
E700
E700
E700
E700
E700
E700
E700
E700
E700
E700
E700
E700
E700
E700
E700
E700
E700
E700
E700
E700
E700
E700
FF00
FF00
7E00
ENDCHAR
STARTCHAR 300F
ENCODING 12303
SWIDTH 900 0
DWIDTH 45 0
BBX 14 39 2 -2
BITMAP
03F8
07FC
07FC
071C
071C
071C
071C
071C
071C
071C
071C
071C
071C
071C
071C
071C
071C
071C
071C
071C
071C
071C
071C
071C
071C
071C
071C
071C
071C
071C
071C
7F1C
FF1C
FE1C
E01C
E01C
FFFC
FFFC
FFF8
ENDCHAR
STARTCHAR 3010
ENCODING 12304
SWIDTH 900 0
DWIDTH 45 0
BBX 7 46 37 -4
BITMAP
FC
FC
F8
F8
F8
F0
F0
F0
F0
E0
E0
E0
E0
E0
E0
E0
E0
E0
E0
E0
E0
E0
E0
E0
E0
E0
E0
E0
E0
E0
E0
E0
E0
E0
E0
E0
E0
F0
F0
F0
F8
F8
F8
FC
FC
FE
ENDCHAR
STARTCHAR 3011
ENCODING 12305
SWIDTH 880 0
DWIDTH 44 0
BBX 7 46 1 -4
BITMAP
FE
7E
7E
3E
3E
3E
1E
1E
1E
1E
1E
1E
0E
0E
0E
0E
0E
0E
0E
0E
0E
0E
0E
0E
0E
0E
0E
0E
0E
0E
0E
0E
0E
0E
0E
1E
1E
1E
1E
3E
3E
3E
7E
7E
FE
FE
ENDCHAR
STARTCHAR 3016
ENCODING 12310
SWIDTH 900 0
DWIDTH 45 0
BBX 13 46 31 -4
BITMAP
FFF8
FFF8
FFF0
E0F0
E0E0
E0E0
E1C0
E1C0
E1C0
E1C0
E180
E380
E380
E380
E380
E300
E300
E300
E700
E700
E700
E700
E700
E700
E700
E700
E700
E700
E300
E300
E300
E380
E380
E380
E380
E180
E1C0
E1C0
E1C0
E1C0
E0E0
E0E0
E0F0
FFF0
FFF8
FFF8
ENDCHAR
STARTCHAR 3017
ENCODING 12311
SWIDTH 900 0
DWIDTH 45 0
BBX 13 46 1 -4
BITMAP
FFF8
FFF8
7FF8
7838
3838
3838
1C38
1C38
1C38
1C38
0C38
0E38
0E38
0E38
0E38
0638
0638
0638
0738
0738
0738
0738
0738
0738
0738
0738
0738
0738
0638
0638
0638
0E38
0E38
0E38
0E38
0C38
1C38
1C38
1C38
1C38
3838
3838
7838
7FF8
FFF8
FFF8
ENDCHAR
STARTCHAR 306E
ENCODING 12398
SWIDTH 900 0
DWIDTH 45 0
BBX 37 38 4 0
BITMAP
0000FC0000
000FFFC000
003FFFF000
00FC00FC00
01F0003E00
03C0000F00
0780000780
0F000003C0
0E000001C0
1C000000E0
1C00000060
3800380070
3800380070
7000180030
70001C0038
70001C0038
70000C0038
60000C0038
60000C0038
E0000E0038
E0000E0038
E0000E0038
60000E0038
60000C0038
60000C0030
60000C0070
70000C0070
70001C0060
30001C00E0
38001800E0
38003801C0
1C00700380
0E00F00780
0F81E00F00
07FFC01E00
01FF803C00
007E00F800
000000E000
ENDCHAR
STARTCHAR 30FB
ENCODING 12539
SWIDTH 900 0
DWIDTH 45 0
BBX 3 5 21 18
BITMAP
C0
E0
E0
E0
40
ENDCHAR
STARTCHAR 4E00
ENCODING 19968
SWIDTH 920 0
DWIDTH 46 0
BBX 34 3 6 18
BITMAP
FFFFFFFFC0
FFFFFFFFC0
7FFFFFFF80
ENDCHAR
STARTCHAR 4E01
ENCODING 19969
SWIDTH 900 0
DWIDTH 45 0
BBX 33 38 6 -3
BITMAP
FFFFFFFF80
FFFFFFFF80
7FFFFFFF00
0000000000
0000000000
0000000000
0000000000
0000000000
0001C00000
0001C00000
0001C00000
0001C00000
0001C00000
0001C00000
0001C00000
0001C00000
0001C00000
0001C00000
0001C00000
0001C00000
0001C00000
0001C00000
0001C00000
0001C00000
0001C00000
0001C00000
0001C00000
0001C00000
0001C00000
0001C00000
0001C00000
0001C00000
0001C00000
0001C00000
0001C00000
001FC00000
0007C00000
0001C00000
ENDCHAR
STARTCHAR 4E03
ENCODING 19971
SWIDTH 900 0
DWIDTH 45 0
BBX 35 39 5 1
BITMAP
0003000000
0003800000
0003800000
0003800000
0003800000
0003800000
0003800000
0003800000
0003800000
0003800000
0003800000
0003800000
0003800000
0003800780
000383FF80
0003FFFF80
00FFFFE000
7FFFF00000
FFFB800000
7C03800000
0003800000
0003800000
0003800000
0003800000
0003800000
0003800000
0003800000
0003800000
0003800000
0003800000
0003800000
0003800000
0003800100
0003800180
0003800180
00038001C0
0003FFFFC0
0003FFFFE0
0001FFFFE0
ENDCHAR
STARTCHAR 4E07
ENCODING 19975
SWIDTH 920 0
DWIDTH 46 0
BBX 32 39 7 -3
BITMAP
FFFFFFFF
FFFFFFFF
7FFFFFFE
00000000
00000000
00000000
00000000
00400000
00E00000
00E00000
00E00000
00C00000
00C00000
01C00000
01C1FFC0
01C3FFC0
0180FFE0
018000E0
038000E0
038000E0
030000E0
030000E0
070000E0
070000E0
060000E0
0E0000E0
0E0000E0
0C0000E0
1C0000E0
1C0000E0
180000E0
380007E0
300003E0
700000C0
70000000
60000000
E0000000
C0000000
80000000
ENDCHAR
STARTCHAR 4E08
ENCODING 19976
SWIDTH 900 0
DWIDTH 45 0
BBX 31 42 7 -2
BITMAP
00000600
00000E00
00000E00
00000E00
00000E00
00000E00
00000C00
00001C00
00001C00
00001C00
7FFFFFFC
FFFFFFFE
FFFFFFFE
00003800
00003800
00007800
00007000
00007000
00007000
0200E000
0780E000
07E1E000
01F9C000
00FFC000
003F8000
000FE000
0007F000
000FFC00
000E3F00
001E0FC0
003C03E0
003800F0
00700010
00F00000
01E00000
03C00000
07800000
0F000000
1E000000
3C000000
78000000
20000000
ENDCHAR
STARTCHAR 4E09
ENCODING 19977
SWIDTH 900 0
DWIDTH 45 0
BBX 35 35 5 0
BITMAP
1FFFFFFE00
1FFFFFFE00
0FFFFFFC00
0000000000
0000000000
0000000000
0000000000
0000000000
0000000000
0000000000
0000000000
0000000000
0000000000
0000000000
0000000000
0000000000
007FFF8000
00FFFFC000
00FFFFC000
0000000000
0000000000
0000000000
0000000000
0000000000
0000000000
0000000000
0000000000
0000000000
0000000000
0000000000
0000000000
0000000000
7FFFFFFFC0
FFFFFFFFE0
FFFFFFFFE0
ENDCHAR
STARTCHAR 4E0A
ENCODING 19978
SWIDTH 920 0
DWIDTH 46 0
BBX 34 39 6 0
BITMAP
0003000000
0003800000
0003800000
0003800000
0003800000
0003800000
0003800000
0003800000
0003800000
0003800000
0003800000
0003800000
0003800000
0003800000
0003800000
00038FFC00
00038FFC00
000387F800
0003800000
0003800000
0003800000
0003800000
0003800000
0003800000
0003800000
0003800000
0003800000
0003800000
0003800000
0003800000
0003800000
0003800000
0003800000
0003000000
0000000000
0000000000
7FFFFFFF80
FFFFFFFFC0
FFFFFFFFC0
ENDCHAR
STARTCHAR 4E0B
ENCODING 19979
SWIDTH 900 0
DWIDTH 45 0
BBX 33 39 6 -4
BITMAP
FFFFFFFF80
FFFFFFFF80
7FFFFFFF00
0000000000
0000000000
0000000000
0000000000
0006000000
0007000000
0007000000
0007000000
0007000000
0007000000
0007000000
0007030000
0007038000
000703C000
000701E000
000700F000
0007003800
0007001C00
0007000E00
0007000000
0007000000
0007000000
0007000000
0007000000
0007000000
0007000000
0007000000
0007000000
0007000000
0007000000
0007000000
0007000000
0007000000
0007000000
0007000000
0006000000
ENDCHAR
STARTCHAR 4E0C
ENCODING 19980
SWIDTH 900 0
DWIDTH 45 0
BBX 33 40 6 -4
BITMAP
7FFFFFFF00
FFFFFFFF80
FFFFFFFF80
0000000000
0000000000
0000000000
0000000000
0000000000
00C0000000
01C0000000
01C0018000
01C0038000
01C0038000
01C0038000
01C0038000
01C0038000
01C0038000
01C0038000
01C0038000
0180038000
0180038000
0180038000
0380038000
0380038000
0380038000
0380038000
0300038000
0300038000
0700038000
0700038000
0700038000
0600038000
0E00038000
0E00038000
0C00038000
1C00038000
1C00018000
1800000000
3800000000
3800000000
ENDCHAR
STARTCHAR 4E0D
ENCODING 19981
SWIDTH 920 0
DWIDTH 46 0
BBX 32 37 7 -2
BITMAP
FFFFFFFF
FFFFFFFF
7FFFFFFE
00000000
00000000
00000000
00000000
00000000
00018000
0001C000
0001C000
0001C000
0001C1C0
0001C1F0
0101C0F8
0381C03C
0F81C01F
1F01C007
3C01C000
7801C000
E001C000
8001C000
0001C000
0001C000
0001C000
0001C000
0001C000
0001C000
0001C000
0001C000
0001C000
0001C000
0001C000
0001C000
0001C000
0001C000
00018000
ENDCHAR
STARTCHAR 4E0E
ENCODING 19982
SWIDTH 900 0
DWIDTH 45 0
BBX 33 45 6 -3
BITMAP
0300000000
0380000000
0380000000
0380000000
0380000000
0380000000
0387FFFF80
0387FFFF80
0383FFFF00
0380000000
0380000000
0380000000
0380000000
0380000000
0380000000
0380000000
0380000000
03FFFFF000
03FFFFF800
01FFFFFC00
0000001C00
0000001C00
0000001C00
0000001C00
0000001C00
0000001C00
0000001C00
0000001C00
0000001C00
7FFFFC1C00
FFFFFE1C00
FFFFFE1C00
0000001C00
0000001C00
0000001C00
0000001C00
0000001C00
0000001C00
0000001C00
0000001C00
0000001C00
0000001C00
000000FC00
0000007C00
0000001800
ENDCHAR
STARTCHAR 4E10
ENCODING 19984
SWIDTH 900 0
DWIDTH 45 0
BBX 33 41 6 -4
BITMAP
FFFFFFFF80
FFFFFFFF80
7FFFFFFF00
0000000000
0000000000
0000600000
0000E00000
0000E00000
0600E00000
0700E00000
0700E00000
0700E3FE00
0700E3FE00
0700E1FC00
0700E00000
0700E00000
0700E00000
0700E00000
0700E00000
0700600000
0700000000
0700000000
07FFFFF800
07FFFFFE00
03FFFFFE00
0000000E00
0000000E00
0000000E00
0000000E00
0000000E00
0000000E00
0000000E00
0000000E00
0000000E00
0000000E00
0000000E00
0000000E00
0000000E00
0000007E00
0000003E00
0000001E00
ENDCHAR
STARTCHAR 4E11
ENCODING 19985
SWIDTH 920 0
DWIDTH 46 0
BBX 34 39 6 -2
BITMAP
07FFFFC000
0FFFFFE000
0FFFFFF000
0000007000
0000007000
0000007000
0000007000
0000007000
0000007000
000C007000
000C007000
000C007000
001C007000
001C007000
001C007000
001C007000
001C007000
0FFFFC7000
0FFFFC7000
07FFF87000
0038007000
0038007000
0038007000
0038007000
0030007000
0030007000
0030007000
0070007000
0070007000
0070007000
0000007000
0000006000
0000000000
0000000000
0000000000
0000000000
7FFFFFFF80
FFFFFFFFC0
FFFFFFFFC0
ENDCHAR
STARTCHAR 4E13
ENCODING 19987
SWIDTH 900 0
DWIDTH 45 0
BBX 35 45 5 -3
BITMAP
0000400000
0000E00000
0000C00000
0001C00000
0001C00000
0001C00000
0001800000
0FFFFFFE00
0FFFFFFE00
07FFFFFC00
0003000000
0007000000
0007000000
0007000000
0006000000
000E000000
7FFFFFFFC0
FFFFFFFFE0
FFFFFFFFE0
001C000000
001C000000
0018000000
0038000000
0038000000
0038000000
0038000000
003FFFE000
003FFFE000
001FFFE000
000000E000
000001E000
000001C000
000001C000
000003C000
0000038000
0000078000
0000070000
00000E0000
00000E0000
00000C0000
000E000000
000FC00000
0007F00000
0001FC0000
00003E0000
ENDCHAR
STARTCHAR 4E14
ENCODING 19988
SWIDTH 900 0
DWIDTH 45 0
BBX 34 40 5 -1
BITMAP
00FFFFC000
01FFFFC000
01FFFFE000
01C000E000
01C000E000
01C000E000
01C000E000
01C000E000
01C000E000
01C000E000
01C000E000
01C000E000
01CFF8E000
01CFF8E000
01C7F0E000
01C000E000
01C000E000
01C000E000
01C000E000
01C000E000
01C000E000
01C000E000
01C7F0E000
01CFF8E000
01CFF8E000
01C000E000
01C000E000
01C000E000
01C000E000
01C000E000
01C000E000
01C000E000
01C000E000
01C000E000
018000C000
0000000000
0000000000
7FFFFFFF80
FFFFFFFFC0
FFFFFFFFC0
ENDCHAR
STARTCHAR 4E15
ENCODING 19989
SWIDTH 880 0
DWIDTH 44 0
BBX 36 40 4 -2
BITMAP
1FFFFFFF80
3FFFFFFFC0
3FFFFFFFC0
0000000000
0000000000
0000000000
0000000000
0000000000
0000000000
0000600000
0000E00000
0000E00000
0000E00000
0000E07000
0000E07800
01C0E03C00
03C0E01E00
0F80E00E00
1F00E00700
3E00E00380
7800E00180
6000E00080
0000E00000
0000E00000
0000E00000
0000E00000
0000E00000
0000E00000
0000E00000
0000E00000
0000E00000
0000E00000
0000E00000
0000600000
0000000000
0000000000
0000000000
7FFFFFFFE0
FFFFFFFFF0
FFFFFFFFF0
ENDCHAR
STARTCHAR 4E16
ENCODING 19990
SWIDTH 900 0
DWIDTH 45 0
BBX 34 40 5 0
BITMAP
0001806000
0001C07000
0001C07000
0601C07000
0701C07000
0701C07000
0701C07000
0701C07000
0701C07000
0701C07000
0701C07000
7FFFFFFF80
FFFFFFFFC0
FFFFFFFFC0
0701C07000
0701C07000
0701C07000
0701C07000
0701C07000
0701C07000
0701C07000
0701C07000
0701C07000
0701C07000
0701C07000
0701C07000
0701FFF000
0701FFF000
0700FFE000
0700000000
0700000000
0700000000
0700000000
0700000000
0700000000
0700000000
0700000000
07FFFFFC00
07FFFFFE00
03FFFFFE00
ENDCHAR
STARTCHAR 4E18
ENCODING 19992
SWIDTH 920 0
DWIDTH 46 0
BBX 36 40 5 0
BITMAP
00001FE000
0001FFE000
001FFF8000
001FC00000
0000000000
0000000000
0180000000
0380000000
0380000000
0380000000
0380000000
0380000000
0380000000
0380000000
0380000000
0387FFFF00
0387FFFF00
0383FFFE00
0380000000
0380000000
0380018000
0380038000
0380038000
0380038000
0380038000
0380038000
0380038000
0380038000
0380038000
0380038000
0380038000
0380038000
0380038000
0180018000
0000000000
0000000000
0000000000
7FFFFFFFE0
FFFFFFFFF0
FFFFFFFFF0
ENDCHAR
STARTCHAR 4E19
ENCODING 19993
SWIDTH 900 0
DWIDTH 45 0
BBX 33 44 6 -5
BITMAP
7FFFFFFF00
FFFFFFFF80
FFFFFFFF80
0000000000
0000000000
0000800000
0000C00000
0001C00000
0001C00000
0001C00000
0001C00000
0001800000
0003800000
23FFFFF800
77FFFFFC00
73FFFFFE00
7007000E00
7007000E00
7007000E00
700E000E00
700E000E00
700E000E00
701C000E00
701C7C0E00
701C7F8E00
70381FCE00
7038000E00
7070000E00
7070000E00
70E0000E00
70E0000E00
71C0000E00
7180000E00
7180000E00
7000000E00
7000000E00
7000000E00
7000000E00
7000000E00
7000000E00
7000000E00
700000FE00
7000007E00
6000001C00
ENDCHAR
STARTCHAR 4E1A
ENCODING 19994
SWIDTH 900 0
DWIDTH 45 0
BBX 33 38 6 0
BITMAP
00180C0000
00381C0000
00381C0000
00381C0000
00381C0000
00381C0000
00381C0000
00381C0000
00381C0000
00381C0000
00381C0000
00381C0000
00381C0000
00381C0600
00381C0F00
20381C0E00
78381C1C00
7C381C3800
1E381C2000
00381C0000
00381C0000
00381C0000
00381C0000
00381C0000
00381C0000
00381C0000
00381C0000
00381C0000
00381C0000
00381C0000
00180C0000
0000000000
0000000000
0000000000
0000000000
7FFFFFFF00
FFFFFFFF80
FFFFFFFF80
ENDCHAR
STARTCHAR 4E1B
ENCODING 19995
SWIDTH 900 0
DWIDTH 45 0
BBX 35 42 5 0
BITMAP
0030004000
007000E000
007000E000
007000E000
007000E000
007000E000
007000E000
007000C000
007000C000
00F000C000
00F000C000
00E001C000
00E001C000
00E001C000
00E001C000
00E001C000
01E0018000
01C0018000
01C4038000
01CF838000
01CFE38000
03C3E30000
0380070000
0380070000
0380073800
0700063800
07000E1C00
07000E1E00
0E000C0E00
0E001C0700
0C001C0300
1C00180180
1C00380000
1800300000
3800700000
3000600000
0000000000
0000000000
0000000000
7FFFFFFFC0
FFFFFFFFE0
FFFFFFFFE0
ENDCHAR
STARTCHAR 4E1C
ENCODING 19996
SWIDTH 900 0
DWIDTH 45 0
BBX 33 42 6 -2
BITMAP
0003000000
0007000000
0007000000
0007000000
000E000000
000E000000
000E000000
1FFFFFFE00
3FFFFFFF00
3FFFFFFF00
0038000000
0038000000
0038000000
0070000000
0070300000
0070700000
00E0700000
00E0700000
00E0700000
01C0700000
01C0700000
01C0700000
03FFFFF800
03FFFFFC00
03FFFFFC00
0000700000
0000700000
0000700000
0000700000
0000700000
0000703800
0380703C00
0F80701E00
1F00700F00
7E00700780
F800700180
0000700000
0000700000
0000700000
0003F00000
0001F00000
0000F00000
ENDCHAR
STARTCHAR 4E1D
ENCODING 19997
SWIDTH 920 0
DWIDTH 46 0
BBX 36 39 5 0
BITMAP
0060004000
00E000E000
00E000E000
01C001C000
01C001C000
0380038000
0380038000
0700070000
0700070000
0E000E0000
0E000E0000
1C061C0300
1C061C0700
3FCE3FCF00
3FCC3FCE00
3F1C1F1C00
0038001C00
0038003800
0070007800
0070007000
00E000E000
00E000E000
01C001C000
01C003C000
0380038000
0700070000
0703071F80
0FFF0FFF80
0FFE0FFC00
0FF007C000
0780000000
0000000000
0000000000
0000000000
0000000000
0000000000
7FFFFFFFE0
FFFFFFFFF0
FFFFFFFFF0
ENDCHAR
STARTCHAR 4E1E
ENCODING 19998
SWIDTH 920 0
DWIDTH 46 0
BBX 36 42 5 -2
BITMAP
03FFFFF000
03FFFFF800
01FFFFF800
0000007000
000001E000
000003C000
0000078000
00000F0000
00001E0000
00003C0000
0000780000
0000700000
0000700300
0000700F00
3FE0701F00
3FF0703C00
1FF0703000
0070700000
0070700000
00E0700000
00E0700000
01C0700000
01C0703000
0380707C00
0380703F00
0700701FC0
0E007003E0
1E00700000
1C00700000
3800700000
1000700000
000FF00000
0007F00000
0001E00000
0000400000
0000000000
0000000000
0000000000
0000000000
7FFFFFFFE0
FFFFFFFFF0
FFFFFFFFF0
ENDCHAR
STARTCHAR 4E22
ENCODING 20002
SWIDTH 900 0
DWIDTH 45 0
BBX 35 41 5 -1
BITMAP
000001F800
0001FFF800
00FFFFF800
0FFFFF8000
1FFFC00000
0000000000
0000000000
0000600000
0000700000
0000700000
0000700000
0000700000
01FF700000
01FFFFE000
01FFFFE000
00007FE000
0000700000
0000700000
0000700000
0000700000
0000600000
0000000000
7FFFFFFFE0
FFFFFFFFE0
FFFFFFFFE0
8000000000
0000000000
0004000000
000E000000
001C000000
001C000000
0038006000
003800E000
0070007000
00F0007800
00E0003800
01E0001C00
01FFFC0E00
01FFFE0600
01FFF80000
01FF800000
ENDCHAR
STARTCHAR 4E24
ENCODING 20004
SWIDTH 920 0
DWIDTH 46 0
BBX 34 40 6 -4
BITMAP
FFFFFFFFC0
FFFFFFFFC0
7FFFFFFF80
0000000000
0000000000
0018060000
001C070000
001C070000
001C060000
001C060000
0018060000
33FFFFFE00
73FFFFFE00
71FFFFFF00
70380E0700
70380E0700
70380C0700
70300C0700
70301C0700
70771C0700
70779C0700
7063D80700
70601B0700
70E03BC700
70E033E700
70C030E700
70C0300700
71C0600700
7180600700
7180E00700
7300C00700
7300C00700
7000000700
7000000700
7000000700
7000000700
7000000700
7000007F00
7000003F00
3000000E00
ENDCHAR
STARTCHAR 4E25
ENCODING 20005
SWIDTH 900 0
DWIDTH 45 0
BBX 36 43 4 -4
BITMAP
1FFFFFFFF0
1FFFFFFFF0
0FFFFFFFE0
0000000000
0001830000
0001C38000
0001C38000
0001C38180
0301C38380
0381C38780
0181C38E00
01C1C38800
0001C38000
0001C38000
0001830000
0000000000
063FFFFFC0
077FFFFFE0
077FFFFFE0
0700000000
0700000000
0700000000
0600000000
0600000000
0600000000
0E00000000
0E00000000
0E00000000
0E00000000
0C00000000
0C00000000
1C00000000
1C00000000
1800000000
1800000000
3800000000
3800000000
3000000000
7000000000
6000000000
6000000000
E000000000
4000000000
ENDCHAR
STARTCHAR 4E27
ENCODING 20007
SWIDTH 900 0
DWIDTH 45 0
BBX 37 45 4 -4
BITMAP
0000300000
0000700000
0000700000
0000700000
0000700000
0000700000
07FFFFFE00
0FFFFFFF00
0FFFFFFF00
0000700000
0000700000
0000700000
0000700000
0000700400
01C0701E00
01E0703E00
00F0707C00
0070707000
0000700000
0000300000
0000000000
0000000000
7FFFFFFFF0
FFFFFFFFF8
FFFFFFFFF8
0000000000
0000000000
0000000000
0000000000
00C0001800
01C0003800
01C0007800
01C000F000
01C0004000
01C0000000
01C0000000
01C0010000
01C001E000
01C001F800
01C0007E00
01C0001F80
01C00003C0
01FE000000
01FC000000
00F0000000
ENDCHAR
STARTCHAR 4E28
ENCODING 20008
SWIDTH 900 0
DWIDTH 45 0
BBX 3 35 21 0
BITMAP
C0
E0
E0
E0
E0
E0
E0
E0
E0
E0
E0
E0
E0
E0
E0
E0
E0
E0
E0
E0
E0
E0
E0
E0
E0
E0
E0
E0
E0
E0
E0
E0
E0
E0
C0
ENDCHAR
STARTCHAR 4E2A
ENCODING 20010
SWIDTH 900 0
DWIDTH 45 0
BBX 32 42 7 -3
BITMAP
00008000
0001C000
00038000
00078000
00070000
000F0000
001E0000
003C0000
00380000
00780F80
00F00FF8
01E003FE
03C000FF
0780000F
1E000000
3C000000
78000000
E0000000
C0018000
0001C000
0001C000
0001C000
0001C000
0001C000
0001C000
0001C000
0001C000
0001C000
0001C000
0001C000
0001C000
0001C000
0001C000
0001C000
0001C000
0001C000
0001C000
0001C000
0001C000
0001C000
0001C000
00018000
ENDCHAR
STARTCHAR 4E2B
ENCODING 20011
SWIDTH 880 0
DWIDTH 44 0
BBX 30 43 7 -3
BITMAP
0000001C
0000001C
00000038
00000078
E00000F0
F00001E0
7C0001C0
3E0003C0
1F000780
07800700
03C00E00
00E01C00
00001800
00000000
00000000
00000000
00000000
00030000
00038000
00038000
00038000
00038000
00038000
00038000
00038000
00038000
00038000
00038000
00038000
00038000
00038000
00038000
00038000
00038000
00038000
00038000
00038000
00038000
00038000
00038000
00038000
00038000
00030000
ENDCHAR
STARTCHAR 4E2C
ENCODING 20012
SWIDTH 900 0
DWIDTH 45 0
BBX 15 46 15 -4
BITMAP
000C
000E
000E
000E
000E
000E
000E
000E
000E
000E
000E
000E
300E
7C0E
7F0E
1F0E
030E
000E
000E
000E
000E
000E
000E
000E
000E
000E
000E
000E
000E
070E
3F0E
FE0E
F80E
E00E
000E
000E
000E
000E
000E
000E
000E
000E
000E
000E
000E
000C
ENDCHAR
STARTCHAR 4E2D
ENCODING 20013
SWIDTH 900 0
DWIDTH 45 0
BBX 29 44 8 -3
BITMAP
00030000
00070000
00070000
00070000
00070000
00070000
00070000
00070000
00070000
00070000
00070000
3FFFFFF0
FFFFFFF8
FFFFFFF8
E0070018
E0070018
E0070018
E0070018
E0070018
E0070018
E0070018
E0070018
E0070018
E0070018
FFFFFFF8
FFFFFFF8
7FFFFFF0
00070000
00070000
00070000
00070000
00070000
00070000
00070000
00070000
00070000
00070000
00070000
00070000
00070000
00070000
00070000
00070000
00030000
ENDCHAR
STARTCHAR 4E30
ENCODING 20016
SWIDTH 900 0
DWIDTH 45 0
BBX 33 43 6 -3
BITMAP
0000C00000
0001C00000
0001C00000
0001C00000
0001C00000
0001C00000
0001C00000
0FFFFFFC00
1FFFFFFE00
1FFFFFFE00
0001C00000
0001C00000
0001C00000
0001C00000
0001C00000
0001C00000
0001C00000
0001C00000
00FFFF0000
01FFFF8000
01FFFF8000
0001C00000
0001C00000
0001C00000
0001C00000
0001C00000
0001C00000
0001C00000
0001C00000
7FFFFFFF00
FFFFFFFF80
FFFFFFFF80
0001C00000
0001C00000
0001C00000
0001C00000
0001C00000
0001C00000
0001C00000
0001C00000
0001C00000
0001C00000
0000C00000
ENDCHAR
STARTCHAR 4E32
ENCODING 20018
SWIDTH 920 0
DWIDTH 46 0
BBX 32 46 7 -5
BITMAP
00018000
00038000
00038000
00038000
00038000
00038000
07FFFFC0
0FFFFFC0
0FFFFFE0
0E0380E0
0E0380E0
0E0380E0
0E0380E0
0E0380E0
0E0380E0
0FFFFFE0
0FFFFFC0
07FFFFC0
00038000
00038000
00038000
00038000
00038000
7FFFFFFE
FFFFFFFF
FFFFFFFF
E0038007
E0038007
E0038007
E0038007
E0038007
E0038007
E0038007
FFFFFFFF
FFFFFFFF
3FFFFFFC
00038000
00038000
00038000
00038000
00038000
00038000
00038000
00038000
00038000
00018000
ENDCHAR
STARTCHAR 4E34
ENCODING 20020
SWIDTH 900 0
DWIDTH 45 0
BBX 35 42 5 -2
BITMAP
0060000000
00E00C0000
00E00E0000
00E00C0000
00E01C0000
00E01C0000
00E0380000
00E0380000
00E038FFE0
00E070FFE0
00E0707FC0
00E0600000
C0E0E00000
E0E0C00000
E0E1C00000
E0E1800000
E0E1807000
E0E000FC00
E0E0003F00
E0E0000780
E0E0000000
E0E0000000
E0E0000000
E0E07FFFC0
E0E0FFFFE0
E0E0FFFFE0
E0E0E000E0
E0E0E000E0
E0E0E060E0
E0E0E0E0E0
C0E0E0E0E0
00E0E0E0E0
00E0E0E0E0
00E0E0E0E0
00E0E0E0E0
00E0E060E0
00E0E000E0
00E0E000E0
00E0E000E0
00E0FFFFE0
00E07FFFE0
00603FFF80
ENDCHAR
STARTCHAR 4E36
ENCODING 20022
SWIDTH 900 0
DWIDTH 45 0
BBX 11 10 17 14
BITMAP
4000
E000
F000
7800
3E00
1F00
0F80
03C0
01E0
0060
ENDCHAR
STARTCHAR 4E38
ENCODING 20024
SWIDTH 880 0
DWIDTH 44 0
BBX 34 46 5 -4
BITMAP
0018000000
001C000000
001C000000
001C000000
001C000000
001C000000
001C000000
001C000000
001C000000
0018000000
1FFFFF0000
3FFFFF8000
1FFFFF8000
0038018000
0038018000
0038018000
0038018000
0070018000
0070018000
0070018000
0070018000
0070018000
0070018000
00E0018000
3CE0018000
3FE0018000
1FE0018000
07E0018000
01F8018000
01FC018000
038E018000
0380018000
0380018200
0700018300
0700018300
0700018380
0E0001FF80
0E0001FFC0
1C0000FF80
1C00000000
3800000000
3800000000
7000000000
F000000000
E000000000
4000000000
ENDCHAR
STARTCHAR 4E39
ENCODING 20025
SWIDTH 880 0
DWIDTH 44 0
BBX 36 42 4 -4
BITMAP
0020000000
0071FFE000
0071FFF000
0070FFF000
0070007000
0070007000
0070007000
0070007000
0070407000
0070E07000
0070E07000
0070F07000
0070707000
0070307000
0070107000
0060007000
0060007000
00E0007000
00E0007000
7FFFFFFFE0
FFFFFFFFF0
FFFFFFFFF0
00C0007000
00C0007000
01C0007000
01C0007000
01C0007000
01C0007000
0180007000
0380007000
0380007000
0380007000
0300007000
070003F000
070001F000
060000F000
0600000000
0E00000000
0C00000000
0C00000000
1C00000000
1800000000
ENDCHAR
STARTCHAR 4E3A
ENCODING 20026
SWIDTH 900 0
DWIDTH 45 0
BBX 30 44 8 -4
BITMAP
000E0000
000E0000
000E0000
000E0000
000E0000
180C0000
1C0C0000
1F0C0000
0F0C0000
031C0000
001C0000
001C0000
001C0000
00180000
3FFFFFF0
FFFFFFF8
7FFFFFFC
0038001C
0038001C
0030001C
0030001C
0070001C
0070001C
0070001C
0060C01C
0060E01C
00E0F01C
00E0781C
00C0181C
00C0001C
01C0001C
01C0001C
0180001C
0380001C
0380001C
0300001C
0700001C
060001FC
060000FC
0E000038
0C000000
1C000000
18000000
18000000
ENDCHAR
STARTCHAR 4E3B
ENCODING 20027
SWIDTH 900 0
DWIDTH 45 0
BBX 31 43 7 -1
BITMAP
00030000
00078000
00078000
00078000
00030000
00030000
00030000
00000000
00000000
7FFFFFF8
7FFFFFF8
3FFFFFF0
00000000
00000000
00000000
00000000
00030000
00038000
00038000
00038000
00038000
00038000
00038000
00038000
03FFFC00
07FFFE00
07FFFE00
00038000
00038000
00038000
00038000
00038000
00038000
00038000
00038000
00038000
00038000
00030000
00000000
00000000
7FFFFFFC
FFFFFFFE
FFFFFFFE
ENDCHAR
STARTCHAR 4E3D
ENCODING 20029
SWIDTH 900 0
DWIDTH 45 0
BBX 35 41 5 -5
BITMAP
FFFFFFFFE0
FFFFFFFFE0
7FFFFFFFC0
0000000000
0000000000
0000000000
0000000000
0000000000
0000087E00
08FC1CFF00
1DFE1CFF80
1DFF1C0380
1C071C0380
1C071C0380
1C071C0380
1C071C0380
1C071C0380
1C071C0380
1C071C0380
1DC71C0380
1DC71CE380
1DE71CE380
1CE71CF380
1C671C7380
1C271C3380
1C071C1380
1C071C0380
1C071C0380
1C071C0380
1C071C0380
1C071C0380
1C071C0380
1C071C0380
1C071C0380
1C071C0380
1C071C0380
1C7F1C0380
1C3F1C0380
180E1C3F80
00001C1F80
00000C0700
ENDCHAR
STARTCHAR 4E3E
ENCODING 20030
SWIDTH 900 0
DWIDTH 45 0
BBX 35 43 5 -3
BITMAP
0201801C00
0701C03C00
0780E03800
03C0607000
01C0004000
0000000000
0000000000
0000000000
7FFFFFFF80
7FFFFFFF80
3FFFFFFF00
0000000000
0000000000
0020000000
0070000000
00E0602000
01C0E07E00
03C0E03F80
0780E007C0
0F00E00000
1E00E00000
380FFFC000
701FFFE000
E01FFFE000
0000E00000
0000E00000
0000E00000
0000E00000
0000E00000
0000E00000
FFFFFFFFE0
FFFFFFFFE0
7FFFFFFFC0
0000E00000
0000E00000
0000E00000
0000E00000
0000E00000
0000E00000
0000E00000
0000E00000
0000E00000
0000600000
ENDCHAR
STARTCHAR 4E3F
ENCODING 20031
SWIDTH 900 0
DWIDTH 45 0
BBX 10 44 18 -4
BITMAP
0180
01C0
01C0
01C0
01C0
01C0
01C0
01C0
0180
0180
0180
0180
0180
0380
0380
0380
0380
0380
0300
0300
0300
0700
0700
0700
0600
0600
0E00
0E00
0E00
0C00
0C00
1C00
1C00
1800
3800
3800
3000
7000
7000
6000
E000
C000
C000
8000
ENDCHAR
STARTCHAR 4E43
ENCODING 20035
SWIDTH 900 0
DWIDTH 45 0
BBX 33 42 6 -5
BITMAP
3FFFFF8000
7FFFFFC000
7FFFFFC000
000001C000
0000038000
0000038000
0000070000
0000070000
01800E0000
01C00E0000
01C01C0000
01C01C0000
01C0180000
01C03FFE00
01803FFF00
01803FFF80
0180000380
0180000380
0380000380
0380000380
0380000380
0300000380
0300000380
0300000380
0700000380
0700000380
0600000380
0600000380
0E00000380
0E00000380
0C00000380
0C00000380
1C00000380
1800003F80
1800003F80
3800000F00
3000000000
7000000000
6000000000
E000000000
C000000000
4000000000
ENDCHAR
STARTCHAR 4E45
ENCODING 20037
SWIDTH 900 0
DWIDTH 45 0
BBX 34 43 5 -3
BITMAP
0060000000
00E0000000
00E0000000
01E0000000
01C0000000
03C0000000
0380000000
0780000000
0700000000
0700000000
0E00000000
0E0FFE0000
1C1FFF8000
181FFF8000
3800038000
3000078000
0000070000
00000F0000
00000E0000
00000E0000
00001C0000
00001C0000
0000380000
0000780000
0000700000
0000F00000
0001E00000
0001E00000
0003C00000
0007800000
0007000000
000F018000
001E01E000
003C01F800
0078007E00
00F0003F00
01E00007C0
03C00000C0
0780000000
1E00000000
3C00000000
7800000000
E000000000
ENDCHAR
STARTCHAR 4E47
ENCODING 20039
SWIDTH 900 0
DWIDTH 45 0
BBX 33 41 6 -1
BITMAP
000007E000
0003FFF000
00FFFFE000
0FFFF00000
1FE0000000
0000000000
0001000000
0003800000
0003800000
0003800000
0003800000
0003800000
0003800000
0003800000
0003800000
0003800000
0003800000
0003800000
7FFFFFFF00
FFFFFFFF80
FFFFFFFF80
0003800000
0003800000
0003800000
0003800000
0003800000
0003800000
0003800000
0003800000
0003800000
0003800000
0003800000
0003800000
0003800000
0003800800
0003800800
0003800C00
0003800C00
0003FFFC00
0003FFFE00
0001FFFC00
ENDCHAR
STARTCHAR 4E48
ENCODING 20040
SWIDTH 900 0
DWIDTH 45 0
BBX 31 37 7 0
BITMAP
00080000
00180000
00380000
00700000
00700000
00E00000
01C00000
03C00000
03800000
07000000
0F000000
0E000000
1C000000
38000000
38010000
70030000
E0070000
C0070000
800E0000
000E0000
001C0000
001C0000
00380000
00380000
00300000
00700000
00600040
00E000E0
00E00070
01C00078
01C00038
0380001C
03807C0E
073FFC0E
07FFE006
07FF0000
03E00000
ENDCHAR
STARTCHAR 4E49
ENCODING 20041
SWIDTH 900 0
DWIDTH 45 0
BBX 33 39 6 -2
BITMAP
0000004000
000C00E000
000E00E000
000700E000
000381C000
000181C000
000003C000
0000038000
0000078000
0000070000
00000F0000
07000E0000
07801E0000
03E01C0000
01F03C0000
00F8380000
003E780000
001F700000
000FF00000
0003E00000
0001F00000
0003FC0000
0007BE0000
00071F0000
000F07C000
001E03E000
003C00F000
0078007800
0070001E00
00F0000F00
01E0000380
03C0000180
0780000000
0F00000000
1E00000000
3C00000000
F800000000
E000000000
4000000000
ENDCHAR
STARTCHAR 4E4B
ENCODING 20043
SWIDTH 900 0
DWIDTH 45 0
BBX 33 42 6 -1
BITMAP
0001800000
0001C00000
0001C00000
0001C00000
0001800000
0000800000
0000000000
0000000000
0000000000
0000000000
1FFFFFF000
1FFFFFF000
0FFFFFF000
0000007000
000000E000
000001E000
000003C000
0000078000
00000F0000
00001E0000
00003C0000
0000380000
0000700000
0000E00000
0001C00000
0003C00000
0007800000
000F000000
001E000000
003C000000
0078000000
00F0000000
00E0000000
01C0000000
0FC0000000
1FE0000000
3CF0000000
783C000000
701E000000
E00FFFFF00
C007FFFF80
C001FFFF80
ENDCHAR
STARTCHAR 4E4C
ENCODING 20044
SWIDTH 900 0
DWIDTH 45 0
BBX 33 45 6 -2
BITMAP
0001C00000
0003C00000
0003800000
0007000000
0006000000
0000000000
0000000000
00FFFF8000
01FFFFC000
01FFFFC000
01C001C000
01C001C000
01C001C000
01C001C000
01C001C000
01C001C000
01C001C000
01C00FC000
01C00FC000
01C007C000
01C0008000
01C0000000
01C0000000
01C0000000
01FFFFFE00
01FFFFFF80
00FFFFFF80
0000000380
0000000380
0000000380
0000000380
0000000380
0000000380
7FFFF80380
FFFFFC0380
FFFFFC0380
0000000380
0000000380
0000000380
0000000380
0000000380
0000000380
0000001F80
0000000F80
0000000300
ENDCHAR
STARTCHAR 4E4D
ENCODING 20045
SWIDTH 900 0
DWIDTH 45 0
BBX 33 45 6 -3
BITMAP
01C0000000
01C0000000
03C0000000
0380000000
0780000000
0700000000
0E00000000
1E07FFFF00
1C0FFFFF80
3C0FFFFF80
3800000000
7000000000
7000000000
E000000000
C006000000
000E000000
000E000000
000E000000
000E000000
000E0FFC00
000E0FFC00
000E07F800
000E000000
000E000000
000E000000
000E000000
000E000000
000E000000
000E000000
000E0FFC00
000E0FFC00
000E07F800
000E000000
000E000000
000E000000
000E000000
000E000000
000E000000
000E000000
000E000000
000E000000
000E000000
000E000000
000E000000
0006000000
ENDCHAR
STARTCHAR 4E4E
ENCODING 20046
SWIDTH 900 0
DWIDTH 45 0
BBX 34 42 5 -3
BITMAP
00001FF000
003FFFF000
0FFFFFE000
1FFFFC0000
0000000000
0000000000
0000000000
0000C00000
0000E00000
0000E00000
0000E00000
0000E00C00
0200E01C00
0700E03800
0380E07800
0180E06000
0000E00000
0000E00000
0000E00000
0000E00000
7FFFFFFF80
FFFFFFFFC0
FFFFFFFFC0
0000E00000
0000E00000
0000E00000
0000E00000
0000E00000
0000E00000
0000E00000
0000E00000
0000E00000
0000E00000
0000E00000
0000E00000
0000E00000
0000E00000
0000E00000
0000E00000
000FE00000
0007E00000
0003C00000
ENDCHAR
STARTCHAR 4E4F
ENCODING 20047
SWIDTH 880 0
DWIDTH 44 0
BBX 32 41 6 -2
BITMAP
000001F0
0001FFF8
00FFFFF0
1FFFFC00
3FF80000
00000000
00000000
00018000
0001C000
0001C000
0001C000
00018000
00008000
00000000
00000000
1FFFFFC0
1FFFFFE0
0FFFFFE0
000001E0
000003C0
00000780
00000F00
00001C00
00007800
0000F000
0001E000
0003C000
00078000
000F0000
001E0000
003C0000
00700000
03E00000
07E00000
1FF00000
1E780000
381C0000
780F0000
7007FFFE
E003FFFF
4000FFFF
ENDCHAR
STARTCHAR 4E50
ENCODING 20048
SWIDTH 900 0
DWIDTH 45 0
BBX 35 44 5 -4
BITMAP
000007F000
0000FFF000
000FFFC000
00FFFC0000
00FE000000
0000000000
0000000000
0000000000
0000000000
0600000000
0700600000
0700700000
0700700000
0700700000
0700700000
0700700000
0700700000
0700700000
0700700000
0700700000
07FFFFFE00
07FFFFFF00
03FFFFFF00
0000700000
0000700000
0000700000
0000700000
0000700000
0000700000
0000700000
0000700000
0200700E00
0700700F00
1F00700FC0
3E007003E0
78007000E0
F000700000
8000700000
0000700000
0000700000
0000700000
0007F00000
0003F00000
0001E00000
ENDCHAR
STARTCHAR 4E52
ENCODING 20050
SWIDTH 900 0
DWIDTH 45 0
BBX 35 43 5 -4
BITMAP
000001C000
00001FC000
0001FFC000
000FFE0000
000FC00000
0300000000
0380000000
0380000000
0380000000
0380000000
0380000000
0380000000
0380000000
0380000000
038FFFFE00
038FFFFE00
0387FFFC00
0380000000
0380000000
0380060000
0380070000
0380070000
0380070000
0380070000
0380070000
0380070000
0380070000
0300060000
0000000000
0000000000
7FFFFFFFC0
FFFFFFFFE0
FFFFFFFFE0
0000000000
0000000000
0000000000
0020000000
0070000000
01F0000000
03E0000000
07C0000000
0F00000000
1C00000000
ENDCHAR
STARTCHAR 4E53
ENCODING 20051
SWIDTH 900 0
DWIDTH 45 0
BBX 35 42 5 -3
BITMAP
000001C000
00001FC000
0000FFC000
000FFE0000
000FC00000
0300000000
0380000000
0380000000
0380000000
0380000000
0380000000
0380000000
0380000000
0380000000
038FFFFE00
038FFFFE00
0387FFFC00
0380000000
0380000000
0380060000
0380070000
0380070000
0380070000
0380070000
0380070000
0380070000
0380070000
0300060000
0000000000
0000000000
7FFFFFFFC0
FFFFFFFFE0
FFFFFFFFE0
0000000000
0000000000
0000000000
0000000000
000001C000
000001F000
000000FC00
0000003E00
0000000F00
ENDCHAR
STARTCHAR 4E54
ENCODING 20052
SWIDTH 880 0
DWIDTH 44 0
BBX 34 44 5 -4
BITMAP
000007C000
0001FFC000
007FFFC000
07FFF80000
0FFC000000
0000000000
0001800000
0001C00000
0003800000
0003800000
0003800000
0007000000
0007000000
FFFFFFFFC0
FFFFFFFFC0
7FFFFFFF80
003C000000
0038000000
0078038000
00F003E000
01E003F800
03C000FE00
0780001F00
0F00000000
3C00000000
7800030000
E000070000
0060070000
00E0070000
00E0070000
00E0070000
00E0070000
00E0070000
00E0070000
00C0070000
01C0070000
01C0070000
01C0070000
0380070000
0380070000
0300070000
0700070000
0600070000
0600030000
ENDCHAR
STARTCHAR 4E56
ENCODING 20054
SWIDTH 900 0
DWIDTH 45 0
BBX 35 44 5 -3
BITMAP
00000FF800
0001FFF800
007FFFE000
03FFF80000
03F8000000
0000000000
0000C00000
0000E00000
0000E00000
0000E00000
0000E00000
FFFFFFFFE0
FFFFFFFFE0
7FFFFFFFC0
0000E00000
0000E00000
0000E00000
0030E00000
0070E18000
0070E1C000
0070E1C3C0
0070E1C7C0
FE70E1CFC0
FE70E1DF00
7C70E1C000
0070E1C000
0070E1C000
0070E1C100
0070E1C100
1E70E1C180
7E70E1FFC0
FC70E1FFC0
F070E0FFC0
0070E00000
0070E00000
0070E00000
0030E00000
0000E00000
0000E00000
0000E00000
0000E00000
0000E00000
0000E00000
0000C00000
ENDCHAR
STARTCHAR 4E58
ENCODING 20056
SWIDTH 900 0
DWIDTH 45 0
BBX 35 45 5 -4
BITMAP
0000002000
00001FF000
0007FFF000
01FFFFC000
07FFF00000
03E0000000
0000000000
0000600000
0000E00000
0000E00000
0000E00000
0000E00000
FFFFFFFFE0
FFFFFFFFE0
7FFFFFFFC0
0000E00000
0000E00000
0018E00000
0038E180E0
0038E1C3E0
7F38E1C7E0
7F38E1CFC0
3E38E1CC00
0038E1C000
0038E1C000
0038E1C100
0038E1C180
1F38E1C180
7E38E1FFC0
F838E1FFC0
6038E0FFC0
0038E00000
0038E00000
0018E00000
0000E00000
0000E00000
0000E00000
0000E03000
00C0E03800
07E0E03C00
1FC0E00F00
3F00E00780
3000E00180
0000E00000
0000600000
ENDCHAR
STARTCHAR 4E59
ENCODING 20057
SWIDTH 900 0
DWIDTH 45 0
BBX 33 37 6 -1
BITMAP
FFFFFF8000
FFFFFFC000
7FFFFFC000
000003C000
0000038000
0000070000
00000F0000
00001E0000
00001C0000
0000380000
0000780000
0000F00000
0000E00000
0001C00000
0003800000
0007800000
000F000000
000E000000
001C000000
003C000000
0078000000
0070000000
00E0000000
01C0000000
03C0000000
0380000000
0700000000
0E00000000
1E00000000
1C00000000
3800000400
7000000600
F000000700
E000000700
FFFFFFFF80
FFFFFFFF80
7FFFFFFF80
ENDCHAR
STARTCHAR 4E5C
ENCODING 20060
SWIDTH 900 0
DWIDTH 45 0
BBX 35 41 5 0
BITMAP
0380000000
0380000000
0380000000
0380000000
0380000000
0380000000
0380000000
0380000000
0380006000
03800FF000
0381FFF800
039FFE3800
03FFC03800
7FFC003800
FF80003800
F380003800
0380003800
0380003800
0380003800
0380003800
0380003800
0380003800
0380003800
0380003800
0380003800
0380003800
0380003800
038003F800
038001F800
0380007000
0380000000
0380000000
0380000000
0380000000
0380000080
0380000080
03800000C0
03800000E0
03FFFFFFE0
03FFFFFFE0
01FFFFFFE0
ENDCHAR
STARTCHAR 4E5D
ENCODING 20061
SWIDTH 900 0
DWIDTH 45 0
BBX 33 44 6 -5
BITMAP
0060000000
0070000000
0070000000
0070000000
0070000000
0070000000
0070000000
0070000000
00E0000000
00E0000000
3FFFFC0000
7FFFFF0000
7FFFFF0000
00E0070000
00E0070000
00C0070000
00C0070000
01C0070000
01C0070000
01C0070000
01C0070000
0180070000
0380070000
0380070000
0380070000
0380070000
0300070000
0700070000
0700070000
0700070000
0E00070000
0E00070200
0E00070300
1C00070300
1C00070380
180007FF80
380007FF80
380003FF80
3000000000
7000000000
6000000000
E000000000
C000000000
C000000000
ENDCHAR
STARTCHAR 4E5E
ENCODING 20062
SWIDTH 900 0
DWIDTH 45 0
BBX 32 42 6 -1
BITMAP
03000000
07000000
07000000
0E000000
0E000000
1C000000
1C3FFFFC
383FFFFC
381FFFF8
70000000
60000000
C0000000
00000000
00000000
00000000
00000000
00000000
03FFFF80
03FFFF80
01FFFFC0
00000380
00000780
00000F00
00001E00
00003C00
00007800
0000F000
0001E000
0003C000
00078000
000F0000
001E0000
003C0000
00780000
00F00000
01E00008
03C0000C
0780000C
0700000E
07FFFFFF
07FFFFFF
03FFFFFF
ENDCHAR
STARTCHAR 4E5F
ENCODING 20063
SWIDTH 900 0
DWIDTH 45 0
BBX 33 41 6 -1
BITMAP
0001C00000
0001C00000
0001C00000
0001C00000
0001C00000
0601C00000
0701C00000
0701C00000
0701C00000
0701C00000
0701C00000
0701C1E000
0701FFF000
070FFFF000
07FFF07000
3FFFC07000
FF81C07000
F701C07000
0701C07000
0701C07000
0701C07000
0701C07000
0701C07000
0701C07000
0701C07000
0701C07000
0701C3F000
0701C1F000
0701C00000
0701C00000
0701C00000
0701C00000
0701C00000
0701800000
0700000400
0700000600
0700000600
0700000700
0700000700
07FFFFFF80
03FFFFFF80
ENDCHAR
STARTCHAR 4E60
ENCODING 20064
SWIDTH 900 0
DWIDTH 45 0
BBX 28 39 9 -3
BITMAP
7FFFFFC0
FFFFFFE0
FFFFFFF0
00000070
00000070
00000070
00000070
00000070
00000070
00000070
00000070
00000070
07000070
07C00070
03F00070
00F80070
00000070
00000070
00000070
00000070
00000070
00000070
00000070
000F0070
007E0070
03FC0070
0FF00070
3FC00070
FE000070
F0000070
00000070
00000070
00000070
00000070
00000070
00000070
000007F0
000003F0
000001E0
ENDCHAR
STARTCHAR 4E61
ENCODING 20065
SWIDTH 920 0
DWIDTH 46 0
BBX 29 42 8 -2
BITMAP
00E00000
00E00000
01C00000
03C00000
03800000
07000000
0F000000
1E000000
1C003800
38007800
7FF07000
7FE0E000
3F01C000
0003C000
00078000
000F0000
000E0000
001C0000
00380000
00700038
00F00038
01E00078
03C000F0
0387E1E0
07FFE3C0
07FF0780
03F00F80
00001F00
00003E00
00007C00
0000F800
0001F000
0007C000
000F8000
001F0000
007C0000
01F80000
07E00000
1F800000
7E000000
F8000000
40000000
ENDCHAR
STARTCHAR 4E66
ENCODING 20070
SWIDTH 900 0
DWIDTH 45 0
BBX 34 45 5 -4
BITMAP
0001800000
0001C00000
0001C00000
0001C00000
0001C00600
0001C00700
0001C00380
0001C00180
0001C00000
03FFFFC000
03FFFFE000
01FFFFE000
0001C0E000
0001C0E000
0001C0E000
0001C0E000
0001C0E000
0001C0E000
0001C0E000
0001C04000
0001C00000
0001C00000
0001C00000
3FFFFFFF00
FFFFFFFFC0
7FFFFFFFC0
0001C001C0
0001C001C0
0001C001C0
0001C001C0
0001C001C0
0001C001C0
0001C001C0
0001C001C0
0001C001C0
0001C001C0
0001C00FC0
0001C007C0
0001C001C0
0001C00000
0001C00000
0001C00000
0001C00000
0001C00000
0001800000
ENDCHAR
STARTCHAR 4E69
ENCODING 20073
SWIDTH 900 0
DWIDTH 45 0
BBX 40 41 2 0
BITMAP
00C0000000
01C0000000
01C0000000
01C0006000
01C000E000
01C000E000
01C000E000
01C000E000
01C000E000
01CFF8E000
01CFF8E000
01C7F0E000
01C000E000
01C000E000
01C000E000
01C000E000
01C000E000
01C000E000
01C000E000
01C000E000
00C000E000
000000E000
000000E000
3FFF00E000
FFFF80E000
FFFFC0E000
E001C0E000
E001C0E000
E001C0E000
E001C0E000
E001C0E000
E001C0E000
E001C0E008
E001C0E00C
E001C0E00C
E001C0E00E
E001C0FFFF
E001C0FFFF
FFFFC07FFF
FFFF800000
7FFF800000
ENDCHAR
STARTCHAR 4E70
ENCODING 20080
SWIDTH 900 0
DWIDTH 45 0
BBX 35 42 5 -4
BITMAP
1FFFFFFE00
3FFFFFFE00
0FFFFFFF00
0000000700
0000000700
0000000700
0000700700
0000700200
0060700000
0070700000
0070700000
0038700000
0008700000
0000700000
0800700000
1E00600000
1F00E00000
0780E00000
0000E00000
0000E00000
0001C00000
0001C00000
7FFFFFFFC0
FFFFFFFFE0
FFFFFFFFE0
0003800000
0007000000
0007000000
0007000000
000E000000
000E030000
001C07C000
003C07F000
003801FC00
0070003E00
00F0000000
01E0000000
01C0000000
0380000000
0F00000000
0E00000000
0400000000
ENDCHAR
STARTCHAR 4E71
ENCODING 20081
SWIDTH 900 0
DWIDTH 45 0
BBX 40 39 2 0
BITMAP
0003004000
003F80C000
03FF80E000
1FFE00E000
3F8000E000
000000E000
000000E000
006000E000
007000E000
007000E000
007000E000
007000E000
007000E000
007000E000
7FFFE0E000
FFFFF0E000
FFFFF0E000
007000E000
007000E000
007000E000
007000E000
006000E000
000000E000
000000E000
000000E000
000000E000
1FFF80E000
3FFF80E000
3FFFC0E000
3801C0E008
3801C0E00C
3801C0E00C
3801C0E00E
3801C0FFFF
3801C0FFFF
3801C03FFE
3FFFC00000
1FFF800000
1FFF800000
ENDCHAR
STARTCHAR 4E73
ENCODING 20083
SWIDTH 920 0
DWIDTH 46 0
BBX 40 38 3 0
BITMAP
007FE0E000
1FFFC0E000
3FF800E000
000000E000
000000E000
000000E000
004060E000
00E0E0E000
E0E0E0E000
F071C0E000
782180E000
180000E000
000000E000
000000E000
000000E000
1FFF00E000
1FFF00E000
0FFF00E000
000F00E000
001E00E000
003800E000
007000E000
007000E000
0071E0E000
007FE0E000
01FF80E000
0FFC00E000
7FF000E000
FF7000E000
F07000E008
007000E00C
007000E00C
007000E00E
007000FFFF
07F000FFFF
07F0007FFF
01F0000000
0060000000
ENDCHAR
STARTCHAR 4E7E
ENCODING 20094
SWIDTH 900 0
DWIDTH 45 0
BBX 40 40 3 -1
BITMAP
0000004000
00E000E000
00E000E000
00E001C000
00E001C000
00E003C000
3FFF838000
7FFFC38000
7FFFC71FFE
00E0071FFE
00E0060FFC
00E00E0000
00E00C0000
0FFE080000
1FFF800000
3FFF800000
3803800000
3803800000
39F383FFE0
3BFB83FFF0
3BFB81FFF0
38038000F0
38038001E0
3FFF8001C0
3FFF800380
1FFF000780
00E0000700
00E0000E00
00E0001E00
7FFFC01C00
FFFFF03800
FFFFF07000
00E0007000
00E000E008
00E001C008
00E003800C
00E003800E
00E003FFFE
00E003FFFF
006003FFFE
ENDCHAR
STARTCHAR 4E86
ENCODING 20102
SWIDTH 920 0
DWIDTH 46 0
BBX 26 41 10 -4
BITMAP
7FFFFF00
FFFFFFC0
FFFFFFC0
000003C0
00000780
00000F00
00000E00
00001C00
00003800
00007800
0000F000
0001E000
0003C000
00078000
000F0000
000E0000
000E0000
000E0000
000E0000
000E0000
000E0000
000E0000
000E0000
000E0000
000E0000
000E0000
000E0000
000E0000
000E0000
000E0000
000E0000
000E0000
000E0000
000E0000
000E0000
000E0000
000E0000
000E0000
00FE0000
007E0000
003C0000
ENDCHAR
STARTCHAR 4E88
ENCODING 20104
SWIDTH 900 0
DWIDTH 45 0
BBX 34 43 5 -4
BITMAP
03FFFFC000
07FFFFE000
07FFFFE000
000001E000
000001C000
0000038000
0000038000
0000070000
00000E0000
00000C0000
001C080000
001F000000
000FC00000
0003F00000
0000F80000
0000180000
0000000000
3FFFFFFF00
FFFFFFFF80
7FFFFFFFC0
00000001C0
00000001C0
00000001C0
0000C001C0
0000E001C0
0000E00080
0000E00000
0000E00000
0000E00000
0000E00000
0000E00000
0000E00000
0000E00000
0000E00000
0000E00000
0000E00000
0000E00000
0000E00000
0000E00000
0000E00000
000FE00000
0007E00000
0003C00000
ENDCHAR
STARTCHAR 4E89
ENCODING 20105
SWIDTH 880 0
DWIDTH 44 0
BBX 36 46 4 -4
BITMAP
0030000000
0070000000
00E0000000
01E0000000
01C0000000
0381FF8000
0783FFC000
0F03FFC000
0E00038000
1C00038000
1800070000
0000060000
00000C0000
0000000000
0000000000
01FFFFE000
01FFFFF000
00FFFFF000
0000007000
0001807000
0001C07000
0001C07000
7FFFFFFFE0
FFFFFFFFF0
FFFFFFFFF0
0001C07000
0001C07000
0001C07000
0001C07000
0001C07000
00FFFFF000
01FFFFF000
01FFFFE000
0001C00000
0001C00000
0001C00000
0001C00000
0001C00000
0001C00000
0001C00000
0001C00000
0001C00000
0001C00000
001FC00000
000FC00000
0007800000
ENDCHAR
STARTCHAR 4E8B
ENCODING 20107
SWIDTH 920 0
DWIDTH 46 0
BBX 36 46 5 -5
BITMAP
0000600000
0000700000
0000700000
0000700000
1FFFFFFE00
3FFFFFFF00
3FFFFFFF00
0000700000
0000700000
0000700000
003FFFC000
00FFFFE000
00FFFFF000
00E0707000
00E0707000
00E0707000
00FFFFF000
00FFFFE000
007FFFE000
0000700000
0000700000
0000700000
01FFFFF000
01FFFFF800
00FFFFF800
0000703800
0000703800
0000703800
FFFFFFFFF0
FFFFFFFFF0
7FFFFFFFE0
0000703800
0000703800
00FFFFF800
01FFFFF800
01FFFFF000
0000700000
0000700000
0000700000
0000700000
0000700000
0000700000
0000700000
0007F00000
0003F00000
0001E00000
ENDCHAR
STARTCHAR 4E8C
ENCODING 20108
SWIDTH 900 0
DWIDTH 45 0
BBX 32 33 6 1
BITMAP
1FFFFFF8
1FFFFFF8
0FFFFFF0
00000000
00000000
00000000
00000000
00000000
00000000
00000000
00000000
00000000
00000000
00000000
00000000
00000000
00000000
00000000
00000000
00000000
00000000
00000000
00000000
00000000
00000000
00000000
00000000
00000000
00000000
00000000
7FFFFFFE
FFFFFFFF
FFFFFFFF
ENDCHAR
STARTCHAR 4E8D
ENCODING 20109
SWIDTH 920 0
DWIDTH 46 0
BBX 36 42 5 -4
BITMAP
07FFFFF000
0FFFFFF800
0FFFFFF800
0000000000
0000000000
0000000000
0000000000
0000000000
0000000000
0000000000
0000000000
0000000000
0000000000
0000000000
7FFFFFFFE0
FFFFFFFFF0
FFFFFFFFF0
0000000000
0000000000
0000000000
0000000000
0000600000
0000700000
0000700000
0000700000
0000700000
0000700000
0000700000
0000700000
0000700000
0000700000
0000700000
0000700000
0000700000
0000700000
0000700000
0000700000
0000700000
0000700000
0007F00000
0003F00000
0001E00000
ENDCHAR
STARTCHAR 4E8E
ENCODING 20110
SWIDTH 900 0
DWIDTH 45 0
BBX 33 39 6 -4
BITMAP
0FFFFFF000
0FFFFFF000
07FFFFE000
0000000000
0000000000
0000000000
0001800000
0001C00000
0001C00000
0001C00000
0001C00000
0001C00000
0001C00000
0001C00000
0001C00000
FFFFFFFF80
FFFFFFFF80
7FFFFFFF00
0001C00000
0001C00000
0001C00000
0001C00000
0001C00000
0001C00000
0001C00000
0001C00000
0001C00000
0001C00000
0001C00000
0001C00000
0001C00000
0001C00000
0001C00000
0001C00000
0001C00000
0001C00000
001FC00000
000FC00000
0003800000
ENDCHAR
STARTCHAR 4E8F
ENCODING 20111
SWIDTH 900 0
DWIDTH 45 0
BBX 35 42 5 -5
BITMAP
01FFFFE000
03FFFFF000
03FFFFF000
0000000000
0000000000
0000000000
0000000000
0000000000
0000000000
0000000000
0000000000
0000000000
FFFFFFFFE0
FFFFFFFFE0
7FFFFFFFC0
0000000000
0000000000
0030000000
0070000000
0070000000
0070000000
0070000000
0070000000
0070000000
007FFFE000
003FFFF000
003FFFF800
0000003800
0000003800
0000003800
0000003800
0000003800
0000003800
0000003800
0000003800
0000003800
0000003800
0000003800
0000003800
000003F800
000001F800
0000007000
ENDCHAR
STARTCHAR 4E91
ENCODING 20113
SWIDTH 880 0
DWIDTH 44 0
BBX 34 38 5 -3
BITMAP
0FFFFFF000
0FFFFFF000
07FFFFE000
0000000000
0000000000
0000000000
0000000000
0000000000
0000000000
0000000000
0000000000
0000000000
0000000000
0000000000
7FFFFFFF80
FFFFFFFFC0
FFFFFFFFC0
0000000000
0000000000
0000000000
0000000000
0030000000
0038000000
0070000000
0070000000
00E0000000
00E0000000
01C0030000
01C0038000
038001C000
038001E000
070000F000
0700007800
0E01F03800
0E3FF01C00
1FFFC00C00
1FFC000000
0FC0000000
ENDCHAR
STARTCHAR 4E92
ENCODING 20114
SWIDTH 900 0
DWIDTH 45 0
BBX 33 38 6 -1
BITMAP
3FFFFFFE00
3FFFFFFE00
1FFFFFFC00
0000000000
0000000000
0010000000
0038000000
0038000000
0038000000
0030000000
0070000000
0070000000
0070FFC000
0061FFE000
00E1FFC000
00E001C000
00C001C000
01C001C000
01C0018000
01C0038000
0180038000
0380038000
0380030000
03FFC70000
03FFE70000
03FFE70000
0000060000
00000E0000
00000E0000
00000E0000
00000E0000
00001C0000
00000C0000
0000000000
0000000000
7FFFFFFF00
FFFFFFFF80
FFFFFFFF80
ENDCHAR
STARTCHAR 4E93
ENCODING 20115
SWIDTH 900 0
DWIDTH 45 0
BBX 33 41 6 -3
BITMAP
1FFFFFE000
1FFFFFE000
0FFFFFC000
0000000000
0000000000
0000000000
0000000000
0000000000
0000000000
0000000000
0000000000
0000000000
0000000000
FFFFFFFF80
FFFFFFFF80
7FFFFFFF00
0000000000
0000000000
0000060000
0000070000
01C0070000
01C0070000
01C0070000
01C0070000
0180070000
0180070000
0380070000
0380070000
0380070000
0300070000
0300070000
0700070000
0700070000
0600070000
0E00070000
0E00070000
1C00070000
1C00070000
1C00070000
1800070000
0000060000
ENDCHAR
STARTCHAR 4E94
ENCODING 20116
SWIDTH 920 0
DWIDTH 46 0
BBX 34 36 6 0
BITMAP
3FFFFFFF00
3FFFFFFF00
1FFFFFFE00
0000000000
0000000000
0000000000
0006000000
0006000000
0006000000
000E000000
000E000000
000E000000
03FFFF0000
0FFFFFC000
07FFFFC000
001C01C000
001C01C000
001801C000
003801C000
003801C000
003801C000
003001C000
003001C000
007001C000
007001C000
007001C000
006001C000
006001C000
00E001C000
00E000C000
0000000000
0000000000
0000000000
7FFFFFFF80
FFFFFFFFC0
FFFFFFFFC0
ENDCHAR
STARTCHAR 4E95
ENCODING 20117
SWIDTH 880 0
DWIDTH 44 0
BBX 36 42 4 -3
BITMAP
0000030000
0000038000
000C038000
000E038000
000E038000
000E038000
000E038000
000E038000
000E038000
000E038000
000C038000
0FFFFFFF00
0FFFFFFF00
07FFFFFE00
000C038000
001C038000
001C038000
001C038000
001C038000
001C038000
0018038000
0018038000
7FFFFFFFE0
FFFFFFFFF0
FFFFFFFFF0
0038038000
0038038000
0030038000
0070038000
0070038000
0070038000
0070038000
0060038000
00E0038000
00E0038000
00C0038000
01C0038000
01C0038000
0180038000
0380038000
0380030000
0100000000
ENDCHAR
STARTCHAR 4E98
ENCODING 20120
SWIDTH 900 0
DWIDTH 45 0
BBX 36 38 4 -1
BITMAP
1FFFFFFF00
3FFFFFFF80
3FFFFFFF80
0000000000
0000000000
0000000000
0000000000
0000000000
0000000000
003FFFC000
00FFFFE000
00FFFFF000
00E0007000
00E0007000
00E0007000
00E0007000
00E0007000
00E0007000
00EFFC7000
00EFFC7000
00E7F87000
00E0007000
00E0007000
00E0007000
00E0007000
00E0007000
00FFFFF000
00FFFFE000
007FFFE000
0000000000
0000000000
0000000000
0000000000
0000000000
0000000000
7FFFFFFFE0
FFFFFFFFF0
FFFFFFFFF0
ENDCHAR
STARTCHAR 4E9A
ENCODING 20122
SWIDTH 900 0
DWIDTH 45 0
BBX 35 38 5 -1
BITMAP
3FFFFFFF80
3FFFFFFF80
1FFFFFFF00
0000000000
0000000000
0000000000
00180C0000
001C1C0000
001C1C0000
001C1C0000
001C1C0000
001C1C0000
001C1C0000
001C1C0000
001C1C0380
001C1C0780
701C1C0F00
781C1C1E00
3C1C1C3800
1E1C1C7000
0F1C1C0000
039C1C0000
001C1C0000
001C1C0000
001C1C0000
001C1C0000
001C1C0000
001C1C0000
001C1C0000
001C1C0000
001C1C0000
00180C0000
0000000000
0000000000
0000000000
7FFFFFFFC0
FFFFFFFFE0
FFFFFFFFE0
ENDCHAR
STARTCHAR 4E9B
ENCODING 20123
SWIDTH 900 0
DWIDTH 45 0
BBX 35 42 5 -1
BITMAP
0030030000
0070038000
0070038000
0070038000
0070038000
0070038000
10700381C0
38700387C0
3870038F80
3873E39E00
3873E38000
3871C38000
3870038000
3870038000
3870038000
3870038000
3870038080
38700380C0
38700380C0
38300380E0
000003FFE0
0003C3FFE0
00FFC1FFE0
3FFF000000
FFE0000000
FC00000000
0000000000
0000000000
0000000000
00FFFFF800
01FFFFFC00
01FFFFFC00
0000000000
0000000000
0000000000
0000000000
0000000000
0000000000
0000000000
7FFFFFFF80
FFFFFFFFC0
FFFFFFFFC0
ENDCHAR
STARTCHAR 4E9F
ENCODING 20127
SWIDTH 900 0
DWIDTH 45 0
BBX 36 43 4 -3
BITMAP
07FFFFF800
07FFFFFC00
03FFFFF800
000000F800
000001E000
000003C000
00000F8000
00001F0000
00003E0000
0000780000
0000F00000
0000E00000
0000E00000
0000E0FFC0
7FC0E1FFE0
FFE0E1FFE0
FFE0E000E0
E0E0E000E0
E0E0E001C0
E0E0E001C0
E0E0E0E380
E0E0E0FF80
E0E0E07F00
FFE0E01F80
FFE0E01FE0
7FC0E03DF0
0000E03830
0000E07000
0000E0E000
0000E1C000
0000E38000
0000E30000
0000E00000
0000E00000
0000E00000
000FE00000
0007E00000
0001C00000
0000000000
0000000000
7FFFFFFFC0
FFFFFFFFE0
FFFFFFFFE0
ENDCHAR
STARTCHAR 4EA0
ENCODING 20128
SWIDTH 920 0
DWIDTH 46 0
BBX 36 10 5 32
BITMAP
0000600000
0000E00000
0000E00000
0000E00000
0000600000
0000400000
0000000000
FFFFFFFFF0
FFFFFFFFF0
7FFFFFFFE0
ENDCHAR
STARTCHAR 4EA1
ENCODING 20129
SWIDTH 880 0
DWIDTH 44 0
BBX 34 42 5 -2
BITMAP
0000C00000
0000E00000
0000E00000
0000E00000
0000C00000
0000400000
0000000000
0000000000
0000000000
FFFFFFFFC0
FFFFFFFFC0
7FFFFFFF80
0000000000
0000000000
0000000000
0000000000
0000000000
0180000000
0380000000
0380000000
0380000000
0380000000
0380000000
0380000000
0380000000
0380000000
0380000000
0380000000
0380000000
0380000000
0380000000
0380000000
0380000000
0380000000
0380000000
0380000000
0380000000
0380000000
0380000000
03FFFFF000
01FFFFF800
01FFFFF800
ENDCHAR
STARTCHAR 4EA2
ENCODING 20130
SWIDTH 900 0
DWIDTH 45 0
BBX 35 44 5 -5
BITMAP
0000C00000
0000E00000
0000E00000
0000E00000
0000C00000
0000400000
0000000000
0000000000
FFFFFFFFE0
FFFFFFFFE0
7FFFFFFFC0
0000000000
0000000000
0000000000
0000000000
0000000000
0040000000
00E0000000
00E1FF0000
00E1FF8000
00E0FF8000
00E0038000
00E0038000
00C0038000
00C0038000
01C0038000
01C0038000
01C0038000
01C0038000
0180038000
0180038000
0380038000
0380038100
0300038180
0300038180
07000381C0
060003FFC0
060001FFE0
0E0001FFC0
0C00000000
0C00000000
1C00000000
1800000000
1800000000
ENDCHAR
STARTCHAR 4EA4
ENCODING 20132
SWIDTH 900 0
DWIDTH 45 0
BBX 33 45 6 -5
BITMAP
0000C00000
0001C00000
0001C00000
0001C00000
0000C00000
0000800000
0000000000
0000000000
7FFFFFFF00
FFFFFFFF80
FFFFFFFF80
0000000000
0000000000
0000000000
0000008000
000001C000
000001F000
038000F800
0380003C00
0700001E00
0F00060200
0E00060000
1C000E0000
18001E0000
10001C0000
00003C0000
0018380000
001C700000
001F700000
000FE00000
0003E00000
0003F00000
0007FC0000
00073F0000
000E0F8000
001E07E000
003C01F000
0078007800
00F0001E00
03C0000600
0780000000
0F00000000
3E00000000
7800000000
7000000000
ENDCHAR
STARTCHAR 4EA5
ENCODING 20133
SWIDTH 880 0
DWIDTH 44 0
BBX 34 44 5 -5
BITMAP
0000C00000
0000E00000
0000E00000
0000E00000
0000C00000
0000400000
0000000000
7FFFFFFF80
FFFFFFFFC0
FFFFFFFFC0
0000000000
0000000000
0030000000
0038010000
0070038000
00F0070000
01E0070000
01C00E0000
03C01E0000
07FF1C0000
07FE380000
03F0700000
0000F04000
0001E0E000
0003C1C000
000781C000
000F038000
001E078000
003C070000
00F00E0000
01E01E0000
03C03C0000
0F00780000
1E00700000
0800E00000
0003C08000
000781F000
000F01FC00
001E007E00
003C001F00
00F0000000
01E0000000
0380000000
0300000000
ENDCHAR
STARTCHAR 4EA6
ENCODING 20134
SWIDTH 900 0
DWIDTH 45 0
BBX 35 43 5 -3
BITMAP
0000C00000
0000E00000
0000E00000
0000C00000
0000400000
0000000000
0000000000
0000000000
7FFFFFFFC0
7FFFFFFFC0
3FFFFFFF80
0000000000
0000000000
0000000000
0000000000
00000C0000
00000E0000
00000E0000
00000E0000
00000E0000
000C0E0000
001C0E0000
0C1C0E0000
1C1C0E0000
3C1C0E1800
381C0E3F00
701C0E1FC0
E01C0E07E0
C0180E0060
80380E0000
00380E0000
00380E0000
00700E0000
00700E0000
00700E0000
00E00E0000
00E00E0000
01C00E0000
01800E0000
0380FE0000
07007E0000
0E003C0000
0C00000000
ENDCHAR
STARTCHAR 4EA7
ENCODING 20135
SWIDTH 900 0
DWIDTH 45 0
BBX 34 46 6 -5
BITMAP
0000600000
0000700000
0000700000
0000600000
0000200000
0000000000
3FFFFFFFC0
3FFFFFFFC0
1FFFFFFF80
0000000000
0000000000
0000000000
001C00E000
001E01E000
000E03C000
0007030000
0000000000
0000000000
071FFFFF00
073FFFFF80
073FFFFF80
0700000000
0700000000
0700000000
0600000000
0600000000
0600000000
0E00000000
0E00000000
0E00000000
0E00000000
0E00000000
0C00000000
1C00000000
1C00000000
1C00000000
1800000000
3800000000
3800000000
3000000000
7000000000
7000000000
E000000000
E000000000
C000000000
8000000000
ENDCHAR
STARTCHAR 4EA8
ENCODING 20136
SWIDTH 900 0
DWIDTH 45 0
BBX 33 46 6 -5
BITMAP
0000C00000
0001C00000
0001C00000
0001C00000
0000800000
7FFFFFFF00
FFFFFFFF80
FFFFFFFF80
0000000000
0000000000
0000000000
003FFF0000
007FFF0000
007FFF8000
0070038000
0070038000
0070038000
0070038000
0070038000
007FFF8000
007FFF0000
001FFE0000
0000000000
0000000000
0000000000
03FFFFE000
07FFFFF000
07FFFFE000
000003C000
0000078000
00000F0000
00001E0000
00003C0000
0000780000
0000F00000
0000E00000
0000E00000
0000E00000
0000E00000
0000E00000
0000E00000
0000E00000
0000E00000
0007E00000
0003E00000
0001E00000
ENDCHAR
STARTCHAR 4EA9
ENCODING 20137
SWIDTH 900 0
DWIDTH 45 0
BBX 37 45 4 -2
BITMAP
0000300000
0000700000
0000700000
0000700000
0000300000
0000200000
0000000000
0000000000
0000000000
FFFFFFFFF8
FFFFFFFFF8
7FFFFFFFF0
0000000000
0000000000
0000000000
0000000000
0000000000
0000000000
01FFFFF800
03FFFFFC00
07FFFFFE00
0700000E00
0700000E00
0700000E00
0700000E00
0700300E00
0700700E00
0700700E00
0700700E00
0700700E00
0707FF8E00
070FFFCE00
070FFFCE00
0700700E00
0700700E00
0700700E00
0700700E00
0700300E00
0700000E00
0700000E00
0700000E00
0700000E00
07FFFFFE00
07FFFFFE00
03FFFFFC00
ENDCHAR
STARTCHAR 4EAB
ENCODING 20139
SWIDTH 900 0
DWIDTH 45 0
BBX 35 46 5 -4
BITMAP
0000C00000
0000E00000
0000E00000
0000C00000
0000400000
0000000000
7FFFFFFF80
7FFFFFFF80
3FFFFFFF00
0000000000
0000000000
000FFC0000
001FFE0000
003FFF0000
0038070000
0038070000
0038070000
0038070000
0038070000
003FFF0000
001FFE0000
000FFC0000
0000000000
0000000000
0000000000
007FFF8000
00FFFFC000
00FFFFC000
0000078000
00000F0000
00001E0000
00003C0000
7FFFFFFFC0
FFFFFFFFE0
FFFFFFFFE0
0000E00000
0000E00000
0000E00000
0000E00000
0000E00000
0000E00000
0000E00000
0000E00000
0007E00000
0003E00000
0000C00000
ENDCHAR
STARTCHAR 4EAC
ENCODING 20140
SWIDTH 920 0
DWIDTH 46 0
BBX 34 45 6 -4
BITMAP
0000C00000
0001C00000
0001C00000
0001C00000
0000800000
0000000000
0000000000
FFFFFFFFC0
FFFFFFFFC0
7FFFFFFF80
0000000000
0000000000
0000000000
0000000000
003FFE0000
00FFFF8000
00FFFF8000
00E0038000
00E0038000
00E0038000
00E0038000
00E0038000
00E0038000
00E0038000
00E0038000
00E0038000
00FFFF8000
00FFFF8000
003FFE0000
0000000000
0000000000
0000C00000
0000E01000
0300E03C00
0780E03E00
1F00E00F80
3E00E007C0
F800E000C0
C000E00000
0000E00000
0000E00000
0000E00000
000FE00000
0003E00000
0001C00000
ENDCHAR
STARTCHAR 4EAD
ENCODING 20141
SWIDTH 900 0
DWIDTH 45 0
BBX 33 47 6 -6
BITMAP
0001800000
0001C00000
0001C00000
0001800000
0000800000
0000000000
FFFFFFFE00
FFFFFFFE00
7FFFFFFC00
0000000000
0000000000
0000000000
007FFC0000
00FFFE0000
00FFFE0000
00E00E0000
00E00E0000
00E00E0000
00E00E0000
00FFFE0000
00FFFE0000
003FF80000
0000000000
0000000000
C000000000
E3FFFFFF00
E7FFFFFF00
E1FFFFFF80
E000000380
E000000380
E000000380
E0FFFF0380
C0FFFF0300
007FFE0000
0000000000
0000000000
0000C00000
0000E00000
0000E00000
0000E00000
0000E00000
0000E00000
0000E00000
0000E00000
000FE00000
0003E00000
0001C00000
ENDCHAR
STARTCHAR 4EAE
ENCODING 20142
SWIDTH 900 0
DWIDTH 45 0
BBX 31 46 7 -4
BITMAP
00018000
00038000
00038000
00038000
00010000
00000000
7FFFFFFE
7FFFFFFE
3FFFFFFC
00000000
00000000
007FFC00
00FFFC00
00FFFE00
00E00E00
00E00E00
00E00E00
00E00E00
00FFFE00
00FFFC00
003FF800
00000000
C0000000
E3FFFFFC
E7FFFFFE
E3FFFFFE
E000000E
E000000E
E000000E
E000000E
C073F806
0073FC00
0071FC00
00601C00
00E01C00
00E01C00
00E01C20
00C01C20
01C01C30
01C01C30
01801FF8
03801FF8
03800FF8
03000000
06000000
06000000
ENDCHAR
STARTCHAR 4EB2
ENCODING 20146
SWIDTH 920 0
DWIDTH 46 0
BBX 34 46 6 -5
BITMAP
0000600000
0000E00000
0000E00000
0000E00000
0000400000
0000000000
0000000000
0FFFFFFE00
0FFFFFFE00
07FFFFFC00
0000000000
0000000000
000001C000
007001C000
0078038000
0038030000
0008020000
0000000000
0000000000
7FFFFFFF80
FFFFFFFFC0
FFFFFFFFC0
0000000000
0000000000
0000000000
0000E00000
0000E00000
0000E00000
0000E00000
07FFFFFE00
0FFFFFFF00
0FFFFFFF00
0000E00000
0000E00000
0000E00000
0000E00000
0380E03800
0780E03E00
0F00E03F00
1E00E00F80
3C00E00180
7000E00000
4000E00000
0007E00000
0003E00000
0000E00000
ENDCHAR
STARTCHAR 4EB3
ENCODING 20147
SWIDTH 900 0
DWIDTH 45 0
BBX 34 47 6 -4
BITMAP
0000C00000
0001C00000
0001C00000
0001C00000
0000800000
0000000000
3FFFFFFE00
3FFFFFFE00
1FFFFFFC00
0000000000
003FFC0000
007FFF0000
00FFFF0000
00E0070000
00E0070000
00E0070000
00E0070000
00FFFF0000
007FFF0000
003FFC0000
0000000000
C000000000
E7FFFFFF80
E7FFFFFF80
E3FFFFFFC0
E0000001C0
E0000001C0
E0000381C0
C00FFFC180
01FFFF8000
01FFF00000
0003800000
0003800000
0003800000
0003800000
0FFFFFFE00
1FFFFFFF00
1FFFFFFE00
0003800000
0003800000
0003804000
0003806000
0003806000
0003807000
0003FFF000
0001FFF000
0000FFF000
ENDCHAR
STARTCHAR 4EB5
ENCODING 20149
SWIDTH 900 0
DWIDTH 45 0
BBX 33 46 6 -5
BITMAP
0000C00000
0001C00000
0001C00000
0001C00000
0000800000
7FFFFFFF00
FFFFFFFF80
FFFFFFFF80
0000000000
0000180000
01801C0000
03801C0000
03801C0000
0380FFE000
3FF9FFF000
7FFDFFF800
7FFC383800
0380383800
0380383800
0380383800
03F8303800
7FF1F03800
FF81FC3800
03807F1800
0380631900
0380E01F00
0380C01F00
3F80C00E00
0F81C00000
0101800000
0070006000
00F001E000
03E003C000
07C0038000
0F00020000
3E00000000
7800000000
60C0000000
01C00F0000
01C00FC000
01C003F000
01C000FC00
01C0003F00
01FE000700
01FC000000
00F0000000
ENDCHAR
STARTCHAR 4EBA
ENCODING 20154
SWIDTH 900 0
DWIDTH 45 0
BBX 28 39 9 -2
BITMAP
00030000
00030000
00070000
00070000
00070000
00070000
00060000
000E0000
000E0000
000E0000
001C0000
001C0000
001C0000
00180000
00380000
00380000
00300000
00700000
00700000
00600000
00E00000
00E00000
01C00000
01C00000
03800000
03801800
07803E00
07003FC0
07000FE0
0E0001F0
1C000000
1C000000
38000000
38000000
70000000
60000000
E0000000
C0000000
80000000
ENDCHAR
STARTCHAR 4EBB
ENCODING 20155
SWIDTH 900 0
DWIDTH 45 0
BBX 11 32 5 2
BITMAP
00C0
01E0
03C0
0780
0F80
1F00
3E00
7800
7000
E000
8000
0000
0600
0700
0700
0700
0700
0700
0700
0700
0700
0700
0700
0700
0700
0700
0700
0700
0700
0700
0700
0600
ENDCHAR
STARTCHAR 4EBF
ENCODING 20159
SWIDTH 900 0
DWIDTH 45 0
BBX 37 33 4 2
BITMAP
0000FFFF00
00C1FFFFC0
01E1FFFFC0
03C00003C0
0780000380
0F00000780
1E00000700
3C00000F00
7800000E00
F000001E00
E000003C00
8000003800
0000007800
0600007000
070000F000
070000E000
070001C000
070003C000
0700038000
0700078000
0700070000
07000E0000
07000E0000
07001C0000
07003C0000
0700380000
0700700040
0700700060
0700E00060
0700E00070
0701FFFFF8
0701FFFFF8
0600FFFFF8
ENDCHAR
STARTCHAR 4EC0
ENCODING 20160
SWIDTH 900 0
DWIDTH 45 0
BBX 35 38 5 -1
BITMAP
0000018000
000001C000
00C001C000
01E001C000
03C001C000
078001C000
0F8001C000
1F0001C000
3E0001C000
780001C000
700001C000
E00001C000
800001C000
000001C000
060001C000
0703FFFFE0
0703FFFFE0
0701FFFFC0
070001C000
070001C000
070001C000
070001C000
070001C000
070001C000
070001C000
070001C000
070001C000
070001C000
070001C000
070001C000
070001C000
070001C000
070001C000
070001C000
070001C000
070001C000
060001C000
000001C000
ENDCHAR
STARTCHAR 4EC1
ENCODING 20161
SWIDTH 920 0
DWIDTH 46 0
BBX 36 36 5 0
BITMAP
00E0000000
01E0000000
03C0000000
0780000000
0F003FFF80
1E007FFFC0
3C007FFFC0
7800000000
E000000000
C000000000
0000000000
0000000000
0000000000
0600000000
0700000000
0700000000
0700000000
0700000000
0700000000
0700000000
0700000000
0700000000
0700000000
0700000000
0700000000
0700000000
0700000000
0700000000
0700000000
0700000000
0703FFFFF0
0703FFFFF0
0701FFFFE0
0700000000
0700000000
0600000000
ENDCHAR
STARTCHAR 4EC2
ENCODING 20162
SWIDTH 900 0
DWIDTH 45 0
BBX 35 44 5 -4
BITMAP
0000060000
0000070000
0000070000
0000070000
0000070000
0000070000
00C0070000
01E0070000
03C0070000
07C0070000
0F80070000
1F00070000
3E00070000
7C01FFFFC0
7003FFFFC0
E000FFFFE0
80000600E0
00000E00E0
06000E00E0
07000E00E0
07000E00E0
07000E00E0
07000E00E0
07000C00E0
07000C00E0
07001C00E0
07001C00E0
07001C00E0
07001800E0
07001800E0
07003800E0
07003800E0
07003000E0
07003000E0
0700700FE0
07007007E0
07006001C0
0600E00000
0000E00000
0001C00000
0001C00000
0001800000
0003800000
0001000000
ENDCHAR
STARTCHAR 4EC3
ENCODING 20163
SWIDTH 900 0
DWIDTH 45 0
BBX 35 38 5 -1
BITMAP
00007FFFC0
0000FFFFE0
0000FFFFE0
00C0000000
01E0000000
03C0000000
07C0000000
0F80001800
1F00003800
3E00003800
7C00003800
7800003800
E000003800
8000003800
0000003800
0600003800
0700003800
0700003800
0700003800
0700003800
0700003800
0700003800
0700003800
0700003800
0700003800
0700003800
0700003800
0700003800
0700003800
0700003800
0700003800
0700003800
0700003800
0700003800
060003F800
000001F800
000000F800
0000001000
ENDCHAR
STARTCHAR 4EC4
ENCODING 20164
SWIDTH 900 0
DWIDTH 45 0
BBX 37 41 4 -4
BITMAP
07FFFFFFF0
0FFFFFFFF8
0FFFFFFFF8
0000000000
0000000000
0000000000
0000000000
0600000000
0700000000
0700000000
0700000000
0700006000
070000E000
070000E000
070000E000
070000E000
070001C000
070001C000
0F0001C000
0F00018000
0E00038000
0E00038000
0E00038000
0E00070000
0E00070000
1C00070000
1C000E0000
1C000E0000
1C000C0000
18001C0000
38001C1C00
3800381F00
3000380F80
70007007E0
70007000F0
6000E00010
E000C00000
E001C00000
0003800000
0003800000
0003000000
ENDCHAR
STARTCHAR 4EC5
ENCODING 20165
SWIDTH 880 0
DWIDTH 44 0
BBX 36 32 4 1
BITMAP
0040000000
00E0000000
03E1FFFE00
07C1FFFF00
0F80FFFF00
1F00000700
3E00000600
3C00000E00
7000000E00
E000000E00
8000001C00
0000001C00
0600003C00
0700E03800
0700F03800
07007C7000
07003F7000
07000FE000
070007E000
070001F800
070003FC00
070003BF00
0700070F80
07000E03E0
07001E00F0
07001C0010
0700380000
0700700000
0700E00000
0701C00000
0707800000
0607000000
ENDCHAR
STARTCHAR 4EC6
ENCODING 20166
SWIDTH 900 0
DWIDTH 45 0
BBX 37 41 4 -2
BITMAP
0000018000
0000038000
0000038000
0000038000
0000038000
00C0038000
01E0038000
03C0038000
0780038000
0F80038000
1F00038000
3E00038000
7800038000
7000038000
E000038000
8000038000
0000038000
0600038000
0700038F80
07000387F0
07000381F8
0700038078
0700038000
0700038000
0700038000
0700038000
0700038000
0700038000
0700038000
0700038000
0700038000
0700038000
0700038000
0700038000
0700038000
0700038000
0600038000
0000038000
0000038000
0000038000
0000018000
ENDCHAR
STARTCHAR 4EC7
ENCODING 20167
SWIDTH 900 0
DWIDTH 45 0
BBX 38 39 3 -2
BITMAP
0000060000
00000E0000
00000E0000
00000E0000
00C00E0000
01E00E0000
03C00E0000
07C00E0000
0F800E0000
1F000E0000
3E00FFFE00
7801FFFF00
F001FFFF80
E0000E0380
00000C0380
00001C0380
06001C0380
07001C0380
07001C0380
07001C0380
0700180380
0700380380
0700380380
0700380380
0700300380
0700700380
0700700380
0700600380
0700E00390
0700E00398
0701C00398
0701C0039C
07038003FC
07038003FC
07070000F8
060E000000
000E000000
001C000000
0018000000
ENDCHAR
STARTCHAR 4EC9
ENCODING 20169
SWIDTH 920 0
DWIDTH 46 0
BBX 38 40 4 -4
BITMAP
0000200000
000077FE00
000077FE00
00E073FF00
01E0700700
07C0700700
0F80700700
1F00700700
1E00700700
3C00700700
7000700700
E000700700
8000700700
0000700700
0600700700
0700700700
0700600700
0700600700
0700600700
0700600700
0700E00700
0700E00700
0700E00700
0700E00700
0700C00700
0700C00700
0701C00700
0701C00700
0701800710
0701800718
0703800718
070380071C
07030007FC
06070007FC
00070003FC
0006000000
000E000000
000C000000
001C000000
0008000000
ENDCHAR
STARTCHAR 4ECA
ENCODING 20170
SWIDTH 900 0
DWIDTH 45 0
BBX 32 42 7 -3
BITMAP
00008000
0001C000
00038000
00078000
00070000
000E0000
001E0000
003C0000
00380000
00700F00
00E00FF0
01C003FE
038000FF
0700001F
1E018000
3C01C000
7001C000
E0018000
80008000
00000000
00000000
00000000
00FFFF80
03FFFFC0
03FFFFC0
000001C0
000001C0
00000180
00000380
00000300
00000700
00000600
00000E00
00000C00
00001C00
00003800
00003800
00007000
0000E000
0001C000
00038000
00030000
ENDCHAR
STARTCHAR 4ECB
ENCODING 20171
SWIDTH 900 0
DWIDTH 45 0
BBX 33 45 6 -4
BITMAP
0000C00000
0001C00000
0001C00000
0003800000
0007800000
0007000000
000E000000
001E000000
003C000000
0078030000
00F007F800
01E001FF00
03C0007F80
0780000780
1E00000000
3C00000000
F000000000
E000000000
0000030000
0000038000
0000038000
0070038000
0070038000
0070038000
0070038000
0070038000
0060038000
00E0038000
00E0038000
00E0038000
00E0038000
00C0038000
01C0038000
01C0038000
0180038000
0380038000
0380038000
0300038000
0700038000
0600038000
0E00038000
0C00038000
0000038000
0000038000
0000030000
ENDCHAR
STARTCHAR 4ECD
ENCODING 20173
SWIDTH 900 0
DWIDTH 45 0
BBX 37 40 4 -3
BITMAP
0001FFFC00
0003FFFE00
0003FFFF00
00C0000600
01E0000600
03C0000E00
0780000C00
0F00000C00
1E00001C00
3C00001C00
7800001800
F000001800
C000303FE0
0000303FF0
0000301FF8
0600300038
0700700038
0700700038
0700700038
0700700038
0700600038
0700600038
0700E00038
0700E00038
0700E00038
0700C00038
0700C00038
0701C00038
0701C00038
0701800038
0703800038
0703800038
0703000038
07070003F8
06070001F8
00060000F0
000E000000
000E000000
001C000000
0008000000
ENDCHAR
STARTCHAR 4ECE
ENCODING 20174
SWIDTH 900 0
DWIDTH 45 0
BBX 33 39 6 -3
BITMAP
00C0018000
00E001C000
00E001C000
00E001C000
00E001C000
00E001C000
00C0018000
00C0018000
00C0018000
00C0018000
01C0038000
01C0038000
01C0038000
01C0038000
0180030000
0180030000
0180030000
0384070000
038F070000
0307860000
0301C60000
07000E0000
07000E0000
06000C0000
06000C0000
0E001C0000
0C00181800
0C00181C00
1C00381E00
1800300E00
1800300700
3800700380
3000600100
7000E00000
6000C00000
6000C00000
C001800000
C001800000
8001000000
ENDCHAR
STARTCHAR 4ED1
ENCODING 20177
SWIDTH 900 0
DWIDTH 45 0
BBX 33 43 6 -2
BITMAP
0000400000
0000E00000
0001E00000
0001C00000
0003800000
0007800000
000F000000
000E000000
001C000000
0038030000
007007F800
00E001FF00
03C0007F80
0780000780
0F00000000
3C00000000
7800000000
E000000000
0000000000
0060000000
0070000000
0070000000
0070000000
007000F000
007003F000
00701FE000
00707F0000
0070780000
0070000000
0070000000
0070000000
0070000000
0070000000
0070000000
0070000000
0070000000
0070001000
0070001000
0070001800
0070001800
007FFFFC00
007FFFFC00
003FFFFC00
ENDCHAR
STARTCHAR 4ED3
ENCODING 20179
SWIDTH 900 0
DWIDTH 45 0
BBX 33 43 6 -2
BITMAP
0001C00000
0003C00000
0003800000
0007000000
000F000000
000E000000
001C000000
0038000000
0078000000
00F00FF000
01E003FF00
03C000FF80
0780000F80
1E00000000
3C00000000
7800000000
E000000000
8000000000
0003FF8000
00C7FF8000
00E1FFC000
00E001C000
00E001C000
00E001C000
00E001C000
00E001C000
00E001C000
00E001C000
00E001C000
00E01FC000
00E00FC000
00E0038000
00E0000000
00E0000000
00E0000000
00E0000000
00E0000400
00E0000600
00E0000700
00E0000700
00FFFFFF80
00FFFFFF80
007FFFFF80
ENDCHAR
STARTCHAR 4ED4
ENCODING 20180
SWIDTH 920 0
DWIDTH 46 0
BBX 38 36 4 -1
BITMAP
00007FFFC0
00007FFFC0
00003FFFE0
00E00001C0
01E0000380
03C0000780
0780000700
1F00000E00
3E00001C00
3C00003C00
7000003800
E000007000
800000E000
000000E000
060000E000
070000E000
0703FFFFFC
0703FFFFFC
0701FFFFF8
070000E000
070000E000
070000E000
070000E000
070000E000
070000E000
070000E000
070000E000
070000E000
070000E000
070000E000
070000E000
070000E000
070000E000
06000FE000
000003E000
000001E000
ENDCHAR
STARTCHAR 4ED5
ENCODING 20181
SWIDTH 900 0
DWIDTH 45 0
BBX 37 34 4 2
BITMAP
0000006000
00E000E000
01E000E000
03C000E000
07C000E000
0F8000E000
1F0000E000
3C0000E000
780000E000
F00000E000
C00000E000
000000E000
0600FFFFF8
0700FFFFF8
0700FFFFF0
070000E000
070000E000
070000E000
070000E000
070000E000
070000E000
070000E000
070000E000
070000E000
070000E000
070000E000
070000E000
070000E000
0700006000
0700000000
0700000000
07007FFFC0
07007FFFC0
06003FFF80
ENDCHAR
STARTCHAR 4ED6
ENCODING 20182
SWIDTH 880 0
DWIDTH 44 0
BBX 38 38 3 0
BITMAP
000000C000
000000E000
000000E000
000000E000
000000E000
00C000E000
01E0C0E000
03C1C0E000
0781C0E000
0F01C0E000
1F01C0E000
3C01C0E7E0
7801C0FFE0
F001DFFFE0
E003FFF0E0
000FFEE0E0
000FC0E0E0
0601C0E0E0
0701C0E0E0
0701C0E0E0
0701C0E0E0
0701C0E0E0
0701C0E0E0
0701C0E0E0
0701C0E7E0
0701C0E3E0
0701C0E1E0
0701C0C000
0701C00000
0701C00000
0701C00000
0701C00000
0701C00010
0701C00018
0701C00018
0701FFFFFC
0601FFFFFC
0000FFFFFC
ENDCHAR
STARTCHAR 4ED7
ENCODING 20183
SWIDTH 900 0
DWIDTH 45 0
BBX 36 40 5 -2
BITMAP
0000000C00
0000000E00
0000000E00
0000000C00
00C0001C00
01E0001C00
03C0001C00
0780001C00
0F80001C00
1F00001C00
3C07FFFFF0
7807FFFFF0
F003FFFFE0
E000003800
0000003800
0000003000
0600007000
0700007000
0700007000
0700007000
070000E000
070010E000
070038E000
07003EC000
07000FC000
070007E000
070001F000
070003FC00
070003BF00
0700070F80
07000703C0
0700060060
07000E0000
07001C0000
07001C0000
0600380000
0000380000
0000700000
0000E00000
0000C00000
ENDCHAR
STARTCHAR 4ED8
ENCODING 20184
SWIDTH 880 0
DWIDTH 44 0
BBX 38 35 3 0
BITMAP
0000000600
0000000E00
0000000E00
00C0000E00
01E0000E00
03C0000E00
0780000E00
0F00000E00
1E00000E00
3C00000E00
7801FFFFF8
E003FFFFFC
8003FFFFFC
0000000E00
0600000E00
0700000E00
0700000E00
0700000E00
0700000E00
0700000E00
0700000E00
07001E0E00
07001F0E00
07000F0E00
0700000E00
0700000E00
0700000E00
0700000E00
0700000E00
0700000E00
0700000E00
0700000E00
070000FE00
0600007E00
0000003E00
ENDCHAR
STARTCHAR 4ED9
ENCODING 20185
SWIDTH 900 0
DWIDTH 45 0
BBX 38 35 4 2
BITMAP
0000003000
0000007000
0000007000
0040007000
01E0007000
03C0007000
07C0007000
0F80007000
1F00007000
3E00007000
7C00007000
7000007000
E000007000
8000007000
0000007000
0600C07018
0701C0701C
0701C0701C
0701C0701C
0701C0701C
0701C0701C
0701C0701C
0701C0701C
0701C0701C
0701C0701C
0701C0301C
0701C0001C
0701C0001C
0701C0001C
0701C0001C
0701C0001C
0701FFFFFC
0701FFFFFC
0700FFFFF8
0600000000
ENDCHAR
STARTCHAR 4EDD
ENCODING 20189
SWIDTH 900 0
DWIDTH 45 0
BBX 33 42 6 0
BITMAP
0000C00000
0001C00000
0001C00000
0003800000
0007800000
0007000000
000E000000
001E000000
003C000000
00780F8000
00F00FF800
01E003FE00
03C000FF00
0780001F00
0E00000000
3C00000000
7000000000
E000000000
007FFF8000
00FFFFC000
00FFFFC000
0000000000
0000000000
0000000000
0001800000
0001C00000
0001C00000
0001C00000
0001C00000
0001C00000
0001C00000
0001C00000
0001C00000
0001C00000
0001C00000
0001800000
0000000000
0000000000
0000000000
1FFFFFFF00
3FFFFFFF80
3FFFFFFF80
ENDCHAR
STARTCHAR 4EDE
ENCODING 20190
SWIDTH 900 0
DWIDTH 45 0
BBX 36 36 5 -1
BITMAP
0000FFFFE0
0000FFFFE0
00E0FFFFF0
01C0000070
07C0000070
0F80000070
1F00000070
3E00000070
3C00030070
7000030070
E000030070
8000070070
0000070070
0600070070
0703860070
0707860070
070F8E0070
071E0E0070
071C0E0070
07100C0070
07000C0070
07001C0070
07001C0070
0700180070
0700380070
0700380070
0700300070
0700700070
0700600070
0700600070
0700E00070
0700C003F0
0601C001F0
0001800060
0003800000
0001000000
ENDCHAR
STARTCHAR 4EDF
ENCODING 20191
SWIDTH 900 0
DWIDTH 45 0
BBX 35 38 5 -1
BITMAP
0000000600
000000FF00
00000FFF00
00C07FFC00
01E07F8000
03E0000000
07C0000000
0F80000000
1F00000000
3E00000000
3C0000C000
780001C000
E00001C000
800001C000
000001C000
060001C000
070001C000
0703FFFFC0
0707FFFFE0
0707FFFFE0
070001C000
070001C000
070001C000
070001C000
070001C000
070001C000
070001C000
070001C000
070001C000
070001C000
070001C000
070001C000
070001C000
070001C000
060001C000
000001C000
000001C000
000000C000
ENDCHAR
STARTCHAR 4EE1
ENCODING 20193
SWIDTH 900 0
DWIDTH 45 0
BBX 38 42 4 -1
BITMAP
0000180000
0000180000
0000380000
0000380000
0000780000
0000700000
0000F00000
00E0E00000
01E0E0FFF0
03C1C1FFF8
0781C1FFF8
0F01800000
1E03000000
3C00000000
7000000000
E000000000
8000000000
0000000000
0600000000
0700FFFF80
0700FFFF80
07007FFFC0
0700000380
0700000780
0700000F00
0700001E00
0700001C00
0700003800
0700007800
070000F000
070001E000
070001C000
0700038000
0700078000
07000F0000
07001E0020
07001C0030
0600380030
0000780038
00007FFFF8
00007FFFFC
00003FFFF8
ENDCHAR
STARTCHAR 4EE3
ENCODING 20195
SWIDTH 900 0
DWIDTH 45 0
BBX 36 38 5 0
BITMAP
0000300000
0000380000
0000381800
00E0381C00
01E0381C00
03C0181800
07801C0800
0F001C0000
1E001C0000
3C000E0000
78000E0000
E0000E0000
C0000E01E0
0000071FE0
000007FFE0
00000FFE00
0600FFF000
070FFF8000
071FF38000
070E038000
070001C000
070001C000
070001C000
070000E000
070000E000
0700007000
0700007000
0700007800
0700003800
0700003C00
0700001C00
0700000E00
0700000F10
07000007B0
07000003F0
07000001F0
07000000F0
0600000000
ENDCHAR
STARTCHAR 4EE4
ENCODING 20196
SWIDTH 900 0
DWIDTH 45 0
BBX 33 43 6 -2
BITMAP
0001C00000
0001C00000
0003800000
0003800000
0007000000
000E000000
001E000000
003C000000
0078000000
00F007E000
01E003FE00
03C0007F80
0780000F80
0F00000000
1E00C00000
7800E00000
F000E00000
4000C00000
0000400000
0000000000
0000000000
0000000000
0000000000
007FFFC000
01FFFFF000
01FFFFF000
000000F000
000000E000
000001E000
000001C000
0000038000
0000078000
0000070000
00000E0000
00001C0000
0000380000
0010300000
003C000000
003F000000
000FC00000
0007E00000
0001F00000
0000380000
ENDCHAR
STARTCHAR 4EE5
ENCODING 20197
SWIDTH 900 0
DWIDTH 45 0
BBX 34 40 5 -3
BITMAP
0000030000
0000070000
0000070000
0000070000
0000070000
C000070000
E000070000
E000070000
E000070000
E000070000
E000070000
E0200E0000
E0700E0000
E0780E0000
E03C0E0000
E01C0E0000
E0041E0000
E0001E0000
E0001C0000
E0001C0000
E0001C0000
E0003C0000
E000380000
E000380000
E000780000
E000700000
E000700000
E00070E000
E000E0F000
E000E07C00
FE00E03E00
FC01C01F80
F801C007C0
00038000C0
0003800000
0003000000
0007000000
0006000000
000E000000
000C000000
ENDCHAR
STARTCHAR 4EE8
ENCODING 20200
SWIDTH 900 0
DWIDTH 45 0
BBX 35 32 5 2
BITMAP
00C1FFFFC0
01E1FFFFC0
03E0FFFF80
07C0000000
0F80000000
1F00000000
3E00000000
7C00000000
7000000000
E000000000
8000000000
0000000000
0600000000
0700000000
0700FFFE00
0700FFFE00
07007FFC00
0700000000
0700000000
0700000000
0700000000
0700000000
0700000000
0700000000
0700000000
0700000000
0700000000
0700000000
0703FFFFC0
0707FFFFE0
0707FFFFE0
0600000000
ENDCHAR
ENDFONT
